<mxfile host="app.diagrams.net" modified="2024-03-07T23:12:15.403Z" agent="Mozilla/5.0 (Windows NT 10.0; Win64; x64; rv:123.0) Gecko/20100101 Firefox/123.0" etag="JLtWqkpuYzyWXt3K0bgP" version="24.0.2" type="device">
  <diagram name="PÃ¡gina-1" id="KGgLWuAfCx1Iv-mHiD2X">
    <mxGraphModel dx="880" dy="462" grid="1" gridSize="10" guides="1" tooltips="1" connect="1" arrows="1" fold="1" page="1" pageScale="1" pageWidth="827" pageHeight="1169" math="0" shadow="0">
      <root>
        <mxCell id="0" />
        <mxCell id="1" parent="0" />
        <mxCell id="Xs_mq94B_sRQJEEhU1SU-3" value="&lt;font style=&quot;font-size: 16px;&quot; color=&quot;#ff5500&quot;&gt;Login Information&lt;br&gt;&lt;/font&gt;" style="text;html=1;align=center;verticalAlign=middle;whiteSpace=wrap;rounded=0;" parent="1" vertex="1">
          <mxGeometry x="640" y="380" width="110" height="50" as="geometry" />
        </mxCell>
        <mxCell id="Xs_mq94B_sRQJEEhU1SU-6" value="" style="labelPosition=right;align=left;strokeWidth=1;shape=mxgraph.mockup.markup.curlyBrace;html=1;shadow=0;dashed=0;strokeColor=#FF6F0F;direction=south;" parent="1" vertex="1">
          <mxGeometry x="570" y="290" width="40" height="210" as="geometry" />
        </mxCell>
        <mxCell id="Xs_mq94B_sRQJEEhU1SU-7" value="&lt;div&gt;&lt;font style=&quot;font-size: 16px;&quot; color=&quot;#ff5500&quot;&gt;Header&lt;/font&gt;&lt;/div&gt;" style="text;html=1;align=center;verticalAlign=middle;whiteSpace=wrap;rounded=0;" parent="1" vertex="1">
          <mxGeometry x="30" y="130" width="110" height="50" as="geometry" />
        </mxCell>
        <mxCell id="Xs_mq94B_sRQJEEhU1SU-12" value="" style="endArrow=classic;html=1;rounded=0;exitX=-0.012;exitY=0.204;exitDx=0;exitDy=0;exitPerimeter=0;strokeColor=#FF5500;" parent="1" edge="1">
          <mxGeometry width="50" height="50" relative="1" as="geometry">
            <mxPoint x="264.5132799999999" y="156.27999999999997" as="sourcePoint" />
            <mxPoint x="160" y="156" as="targetPoint" />
          </mxGeometry>
        </mxCell>
        <mxCell id="QsdEgpgo2d-icxKY0zvt-9" value="" style="shape=image;verticalLabelPosition=bottom;labelBackgroundColor=default;verticalAlign=top;aspect=fixed;imageAspect=0;image=data:image/png,iVBORw0KGgoAAAANSUhEUgAAAeEAAAPMCAYAAAB15wHPAACAAElEQVR4XuydB3gU5faH915rerIBESsqKAqKil3B3q69e/92vSotIT0hhIQu0lHpPXQIvffee++92MuliKJy/uf3bTYMZ88kIQmC12+e532SbGZnZmdmv3fOV87n8dilwCU+Pv7StLTkV7IaN0ho9kmjBk2aZGalp6c0jI2r1bBOnY8HxsbVXpOQVPeb5JT4w6lpib8yv6ekJhxPTkkgfo0Sk+pSfEIM1Y2rTTGxNQ2163xMNWt9aLFYLKcFLodo+vRJNH/+rAB69e4WsH6dmBqmbIqtW4vi4utQQmIsJSXHmTIM5VlavaQ/eJu/paQmHuXXf+IybVedmJoza9f+qHVSSlxDLhUbNmvWKIupl5GZ8XFycvK9r2S9cr4sT+1il4AlLi6uXGajjNpNm2ZlJifHN+GbcD4L9CDfcH9AnrVqfxRww1osFsvZDEuTZs+eRosXzwugb3bPgPVPB5A6S/w4i/tYfGLs3jqxNXtkZqZnNWFRp9ZPfSYrK+tcWR7b5X984Qj2Qb4B6sfFxXRKTIr7GjdIQVEp/o9olp/0qGWr5tSxUwfq1asb9R/Qh4YOG0RjxoygSZPH04yZU2nevNm0eMkCWrFyKa1Zu5I2bFxLmzavp63bNtGOnVto1+7ttHvPDtrD7N23i/bt322xWCwlzu7dO2jdulW0lsshyWYuk5zr7tmz05RLYOeurbRt+2basnUjbdy0jtatX02rVi+nZcsX04KFc2n2nBk0ddokGj9hDI0YOYwGDe5npN61Wydq36E1NWna0DwAIKKWZakEETcL+te6dWvPT89Iy2rUKLM2L9Gy3LbLX3jJzKz/QkZmWlZ8Qt11LNLjWlQLydZLT6Y2bVtS7z7dzY0FoUKkkOf+A3voy6/253Hgy720d+8uvlm38826hTZv2WBku3bdalqzZiWtXLmMli9fQkuXLWYhL6RFixfQwkXzacGCuTR//hwj6rlg7iyaM3emxWKxlDjzF8yh9RtW00YumyQruWw7se4sX3nEzJs3h983l2U7j8ut+Rw1L6AlSxfRMi7LVqxYSqtWLWeJr+LtrnEEF1tZ3jtp/36Uk/tOlJVf7jNSx7qQ94SJY2ngoH7UucvnRtSoZZRlMYC8OTg6kpgY26tx04ZJKSkxl8ly3S5n8ZKU9FZIoyaZMfEJsSOSkuN+k9LFBf6kRRPK7tfLRK94wkNE6rtx9hm5bt222dw4kCkECllOnzGF159AY8eNppGjhrOoc2jEiGE0fMRQyhnO5AyhYczQYYN9DB1EQwwDafAQJwN8DLZYLJbTB8qnFSuWcGCwPIBZs6YFrG/wl0+55RXKLx+DTJmGsm1YDhhiyjyUfcN5P9gXysTRo0cY2U6dOolmzppuhI5gBLWCmzatN4ELghi/pCHxefNn8zaGUKfOn5lgSCuzE5Pi9tWrn9qkfv3Ue2SZb5ezZGnUKOM9jnTHJSTG/uG8gOgM1a59a75JhtLKVctyn9b20569O82THEQ7j6PTqdMm09ixo8yNhBsLNxpuOnMz8s05aHB/GjiwHw0YmE39B/Q19Ovfh/r168NC723om90rjz59e+bRuw/ocRK9ene3WCyW0waizqVLF5qoVzJl6sSA9WUZ5Su3TpRj4EQZ5yvzgCkH+/vKxP4DsrmM7Gf2jTITQofEIW9IG8IeNXo4TZw4zkh6yZKFtHbdKtq+Y0uenPE7aiJxDGgCdEoZnceSU+K+Sc9IaZqRkVFBesAuf/KSlhZfPi0tuTXL95DzQqFXIC4gqmP27dttItztO7aaqHfuvFnmBkA0mzMckatPtLhh/ILNZrH6RYqbsFfvE9Ls2atbHj16djV079GFOnb6nNp3aEMtW7XgSLspNWnSkLIaNqCMjHpUr14KpaYmUVJyAiUkxlNcfF1D3bgYiomtY7FYLCVOIpc17du3oS++6BBAkyaN8taLZeLiY02ZFJ9Ql6NOjOpIJC5bKb1+GjXIrE+NGmVRs2aNqcWnzU2z3edftKcuXTvllYE9ep4oF4FT7H55+4UNUfsk7RM0Ah7IefSYkabGEX1qNm5cl1d2b9q8wfS7adW6xUmjSjhCPp6YWHd+Vlb6u9INdjnNS4PG9aolpyaMiouvkxf1on0BMkT18YEDe80FRJUyotzx48eaizyMn8bwZIYboH9/yNYXvfojU6dccZM1a96E0ligMTG16f0P3qPXX3+Vnn32GXr0sUepWvVqdPvtt1OVKlXohhtuMFx//fVUsWJFuu6666hChQp0zTXX0NVXX01XXXUVlStXjq688kq64oor6PLLL8/jsssus5xFOK+N5QTyPFn+d5DXGmUUyiuAsgtlWPny5enaa681ZRvKOYAyr3LlynTrrbfS3XffTQ8++AD9619P0ksvvUhvvfUG1ajxEQcdcRzNZlDrNi1Nxy2UrSckfULQkDOCIARDqPpGbeSoUSNo2rQptHzFEtq+fYuJktFhbAzLummzhnkyRgCWlFz3uwYN6qV89NFHwdIXdinBJSsr45HklPg5dWJqHPdfgMZNMmnipLGmAwA6UK1bv4Zmz5nJT1UjTKSLJy1UI+MiO4Xrj2ARueKpD5J9/oXn6f77q9PNN99sbjLccLgBcWOWLVuWLrroIoqOjqaIiAgKDQ2l4OBguvDCC+m8886jc845h/7xj38QH6blL8i5555LF1xwgcWF888/n/75z38GnDfL3xPcC/jO4L4ICgqikJAQCg8Pp6ioKCpVqhRdfPHFdOmllxqRIyBBeVqpUiW688476PEnHqd//9/rHNXWooYNG1DHjp+dJGeIGQESaiURLaMqG51l0Ydn6dJFpiMYImTUbPbs1dU0OfplnJBY93B6ekrTmJiYcI9dSm5p3LhBtaTk+Jl++eJkt2vfyvTeQ+M+2hAWLZpvOk3hCQrRLp6qcCFxQf3S/fyLDpSenkrvvvs2PfroIyzbKka0eNqDZCFY3EgQqy1w/j7gAQoPVihIIBxcf8sJcE7CwsIM9kHTUhRw3yBYwXcsMjLSBDQIbhBhI6JGJP3iiy9QnRh0nG1G3bp3NlJG0OSLlPvSwEH9TfPhyJE5NG36FFqzdpUJvHaylBFwpaQm5EXHCYmxh9PSk7Li4+ODPHYp+lKvYb2KqWlJI2Jia+bJ9/PP25kOVgdYvhs2rqMZM6eZzlRDhgw04kWHAVw4SLdb9y7UpGkjE+U+/PBD5kkMkS2EixsBhYstVCx4kvc/fAH8bTmB/7wgyrEPp5aSBg/BkHPp0qWNmBEY3XbbbfTiSy+Y6mw0DXbvgUjZFyWjVnMQCxk9tBF4YQgVhkihs+2YsSPNGOUTkXHsDxkZqR977HJqS0xMzAVpaclt4xNifvU/2bRt1zJPvqhynjJ1Eg3nqBfVFbgo6ECFJydUMTdt1pjefOsNuuuuO007xiWXXGIKWVSfeJSbwPL3Bk0LKAT8AkYzg+UEfhGjtsB+hyynGwRGuN9QrY3qbLQ7P/nkExQXF0tfdOxgAizUbiJCRuCF6BiduhYunE+7du9gGe+ikaNyTMpNv4wTk+quz2qadZ/HLgUvmZnpT8UnxH7l7+3cpEkWn9y5ptp5/Ya1NGXKJFPljAZ8VDf7o148LdWsVYOqV69mxIs2CRQgNtK1FAQkg4c0K2B3cG68Xq+JWuT5s1hOJ3jwQy0MOraiIyw6fjVslGkCLgReffr2Mj2u0aFr1OgRJjESImOMSUZWQ3/mrpjYWn+kpSf3i4//wOuxS+DC0W/peukpQ/ztvkgTOW78aFPnv2XrJtMG4It8ffL1t/N+2rI5vf76a+bioCoDhakVr+VUgFjQPIGI2Io4EP9Dim0Ttpxp0BEM1dYItB544H4zpKpzl465Mu6ZJ2NExkgSgpScGCXTtl2rE+3FCbHf18+s/5zHLieWRo0yH4xPiPnGf5KQOQVd0fE0gzRqvvykA0xiDHRrh3ybNW9Mzz//nGnURxsv2nc9ykWzWAqD7R3tDqoGbe9oy9kEHgbx4Iw+PnfddRfVql2TvfH5STJGNfWECWNN8yUSgSABiL/zFgd7f6SnJw+wHbc8SLiR1DEmtubvODE4QbPnTDcnDN3Px4wdZYYY+dp8ffJt0aKZkS+6vJcpU8a2UVlKDHyxLe7I82WxnGlwX6KGBm3Hd955p8np0KWrLzJGmzFyQqD5cubMabRz1zYzvKlzly/y2orjE2J3Nm7coKrn77jExsZewQKe7m/7xewbiH5Rj48nlpycISb9GZ5qcEKRjerf/37d9HC28rVYLBaLH7+MERnfd999lJqWbNqM0WyJDIjIiogq6pWrlpsgb9r0yRhTbNwTnxDzS3Ja4n88f6eladOs2+Li63ydWy1gcokiyxXGfZnol0+Yv90XWVZq16lJt956i8nugmoxj3IRLBaLxfL3BjJGNTXajJG9C2k2UYPap09PE9QhuEPOaiR3QmpMf+YtVE+n1Uvq4/k7LPUyUp5NSIg5ig+OHM/IE7pv/x6TXhKpJZHdCr3dfO2+Teihhx406R8xhMSjnHSLxWKxWJygsyVqTG+88Ub6z4cfmCpqBHVo2kQT57jxY2jjpvW0d99uk3XLXz1dv37q5P/pbFtJSXEJdeNqHzNDj5o2NPPw7ty5zYz5RRJvZEXxR7//+c/7ZnwYesLZDiEWi8ViOVXQsx8ZER948AFq/klTX1TMQR46+mISn2XLl5jq6bHjRpla2dwxxSvi0uLKef7XlpSUhDYI+U37b/vWpuczphLEEwm6lKP6GW2/rVt/So8+9oip20evTI9yYi0Wi8ViKQyookYwd9NNN7Fka5i2YnT0RfU05oOfO2+2meJ2ztyZFBdfx0TFcfExe1NSUq73/K8sKSmJXWvX+dgIGE8iqH5evWalmQAaeZ7Riw2vY8q/qlWrmkQbNvq1WCwWS0mBMe+YTAKjazCPAGpdMUkE2omRh2IPB4aIjJNT4nNFXPvrBg0aVPH81RcWcEe/gPtxtLv/wF5atmyxyfeM7uPo/Ywnkw8+eM8MO0JSAI9yAi0Wi8ViKQ5oK0ZSp2rV7qNPW35ial/Rexq1sZMmTzCjc1avWZGXf7puXO2v09PTK3v+qktSUnzL2nV8VdADB2WbHtCLFy8wma8GDMg2VQIYs4XZMzCbBhIDeJQT92dwzj/+QWXPPZfuCAqi58LC6IOoKEotVYqalS5NHcqUoa5ly1IvJvuSS6ifBv8vXzi6LxDeT6G46KL84WMuFPz58iU6WiWb6eXH66VufK6aRETQi3zuIm0NhuV/mH8wN3A58QHf641CQ6k1Bw3tmQ65PzXaudDWCX9/QBsXWrvQShIZSS1d+NSFFgqf8Hdao7lCM0FTpiGTwaTwturwcb3LZeoLISF0P5+3SuefT6VYhv9Uzu+fgb96umrVWymjQXrumOLeZhgTkntgLPG69avzRBwXV2dfcnJyBc9fbUlJia9RJ6aGScKR3a+XETByemLgNLKZoCrgs8/b0eOPP2YGWv/Z437P5QtRkaX/En8B6rFwukOkl14aiJStG1K6EilcDSlbN6R0JVK2bkjpShQBB8ASdvIFf+mq2mFklv9BgrnMeJcl0oGF8hmDn5CvHynfv6uE/SJuyuWBpImDBrzOe/zZH+ZzWo7Lf5TJ8pyfTjCUCb2nExLiTHMomkXRPDp+whjasWMrrVm70ozggcMSk2LX1q5dO9rzV1kaNsx4zN8LGj2dIeAlSxaaCBh18BBwu/Zt6IEHHjBjf/+s9t8L+SLfyRc8huXRFeLkfQdIVyJl64aUrkQKV0PK1g0pXYmUrRtSuhIpXA0hYYDI+Kbzzgs4/xbLX5Xzuez4D5cdkK8fK+HiSdhJYyad3/NaaChV5od4nG95DU4HyBePZtDatWvm9pzumSvisSbD1sqVy5DMw/Sa5sh4JhEqQ87yBSnA4hPqmHHAbdu2pH37dtPyFUvMGGBUQUPASKZdrVo1k/P5z0iHdw1f1Pf5AueJ14mUrkTK1g0pXYkUroaUrRtSuhIpWzekdCVSuBpCwH6ac4EQ+idcW9w/eIj7xz/+nAc5y9+Te/mhsr1DwFbCJS9hJxDyMyEhdNmfUEOKYUyYw/ijj30dhxERI2HUxEnjzSie+QvmUExsTSPi9PSUYZ6zeUlM/KhUXHzMbgi4YaMM2rVrO61du8p0wkJ3cEy+gAgY0w2iB/TpFDDaeG/nk5vJUsqW4rUSPu0S7svcdZqqpSHd88+/gL88IRQcEkohoWH8RBtOoWGYjjD4T2/asPxvcx6XJUnBwScJ2Er49EoYNGIaMv/hz3UDJhBRrk1JgeGwEDGmw/WJuLfprDV12mQTSE6aPN5US6OTcXJyfJrnbF3S66dMwNNCUnI8bdi4lrZs3WjydaIXNDphoVv4gw8+QJewtE6XgP+JKmf+wjSH1KRwNaR0JVK2bkjpSqRwNaRs3ZDSlUjZuiGlK5HC1fAGCtjPO3wd5PUpHv+g884734g2KPhkAYeFRVBYeCSFR0RSRGSU+d/puscsfy/K8kNfs9BQK2FFwKdbwgYuZ0BtPi5UVZ8uGSMirlixItWNi2URo9d0bxo2bDDNnjPTjOpBti3f0KU6xxo3b1zNc7YtSSkJjfkAj/OTAs2bP9tEwUjEMWhQ/7xe0E8++YRpAz5dheMN/DTTiCWVffnl1A9I4WpI6UqkbN2Q0pVI4WpI2bohpSuRsnVDSlcihavhDZSvn3gupOQ1Kiq4Z86/IDf69Qs4JOwkCYeH+wQcGeWlKG80/x3xp/U3sPzvcs0551ArIWAr4T9fwqAh8xF/zqtOU58TpEdGpsZ69VJNRGxEnDMkL71yy1bN/ck8vk1OrnWx52xZGjducHfduDqmIxbmcET2EYTxaOBGQ3e37p3plVdfNunDME7Lo3z44hDJ26zJF6ePX75WwoVDSlcihavhDZSvn5QSlLAvAoaAQ42AIyK9VObSq6h02SupVJkrzM+yl5en6NJljYC93lLkjS7N0XEEIYKW27NYCsu1555LbayEzwoJ+0WcybwYGkphp+EhO4LP4y233ExNmzU2w5eQThl9mjAv8datm0yPadT41qufMtZzNiyvvPLK+fEJMTsg4E9bNjNPCwsWzjMyNpmwenSljz/+0MxqcV4JP71gzN69/OTyBWQpBWwlXDBSuhIpXA1voHz91A8vmcQr//znOQ4Bh1FEVCkqdWl5irr4KvKWvZouuvw68vLvkaUvp9KXXkMXXXwZC7gURZe6iEoxF9j0p5ZiUJEl3NZK+KySsJ9k3k+VCy4wLpDXrTiU4vLvnnvuMVPoojPxgIHZNGbsSDOGGB21IGG0D6fWS/rYc6aX1NSkHjighMRYMyvF+g1rzVNDv359TDjfILO+mQMY9e0e5cMWlVB+AqrNF6GvFK+VcKBs3ZDSlUjhangD5esnM7xkJIxqaH/1c3iEly668noqe/3ddOUtj9FFV99K3stuoFJXVKZLK95DZa6+hcpccT2L+FIqVboMlb7oYhMZy21aLIUFyTnaWQmflRIGWczLfC2CSzAqRvPXpVz+YzpEDLNFkyomfUAN7/4De0zuCwSeCYkxR5OTY89cIo+mTbPuqxtX+zcczMRJ48wcjWPHjTY9oXv2wljg1nTHHXeYQdEe5YMWlXLnn08tITYpXYkUroaUrkTK1g0pXYkUroaUrRtSuhIpWzekdCVSuBreQPn6acaFQnGfUPFlQCcsf/tvmcvK0yWVqtO1D79D1933Fl11w5MUevH1FFa2EpW+9j668tanqXS5W+jSqyoZCV9U5mIjYttj2lJUqvC9IwVsJXz2SNgPOm4h66G8fkUFTaeYRvf99981qZVRs4sa3iVLF9KevTspMyvdiDitXvJkz5laEpPqrsVBtG7zqek9NmfOTNMO3LuPrx346aefKvGe0HeHhFA3KVs3pHA1pHQlUrZuSOlKpHA1pGzdkNKVSNm6IaUrkcLV8AbK18+nXChcUMxrj6poCNgMQWLKcBRc7s7nqPIzifTCG13ouWfb0iVXP0AhF1cib4VqdMXtL9OlNzxEF19+HZVmCZe5uCxzCV1wga2SthSNO847L0DAVsJnn4QREafx+jeWYPpjpFJGTW5WwwZ57cMjR+bQ1m2bTWctdERGtXT9zPqvef7spV69pAT0ho6tW8tUQaPRGikp0ZsM1dC169QyM1aUVEcsRFTP8s3aG3K94opA4WpI4WpI6UqkbN2Q0pVI4WpI2bohpSuRsnVDSlcihavhDZSvn9b8ZS5uwo5zzjk3r/czxgGXveYmuu7hd+l6lnC1ZxtRtQeTKerSWymkDEu4/H10+e2vcTT8HJUtV5kj4DJ0cdlLmEvNsCa5bYulMNx//vkBArYSPjslDDKYakFBxa6F8xPFnwXtw/6ZlzDkdsqUiaZaGq7zVUvHfvvuu+9e6PmzFuTQjE+IOYKdDxk6gPbu223SfKHxGk8LrVq3oFtuucV09/YoH+pUQeKNt/hE9IV8/UjhakjhakjpSqRs3ZDSlUjhakjZuiGlK5GydUNKV+IXbX54A+Xr5zP+Ml9UzHYaPMTljQEOj6CLr6pEV9/7MlV8qi5dfNuLFHa5T8AVHnyDHo7rQJX+VYcuu/FxKot24TIXU1kWcNlLLivxPgmWvw/PcDQkBWwlfPZKGKD39BPsn5IYU4ya3CvYOf/3f6+bammM+Bk6bDCtWLmUtu/YSknJcb5q6bSklp4/a0lNTepmUnjVTzFpvRYtXmCyi/iHIz311L9KLCMWBPwBX4hsp4CthPNHytYNKV2JX7T54Q2Ur58u/EW8qpg1IRjni2FG4RFRFMGUvfI6uqRSNar42Id02R0vUsSVt1FY2Rvplhfr0tMZvei2l5OoTPk76fJrKpsoGAIG55+m7F2W/33evPDCAAFbCZ/dEvaLGKkvS0LEKD9uuOEGUy2N6BdzICAR1a7d6Ac1yh8N/5qUlHSV53Qv9eolVkTGEOx0ytSJtGPnNho5arjJJoKDS0pONOm/SqIaGtUJ70SJCNhKOFC6EilbN6R0JZBsQXgD5eunN3NjMYel4UEObcImCUekl0pfzFItfzNddtODVO72Z6g0C9d7xc10Ef+89r4X6RL0kC5XiS4vV8FEwZdcerlpFy6JB0LL35NYJWWllfDZL2G/iP/FIi6Jqulo3tYDD95Pnbt0NL2l0f9p3vw5Jq1lVsP6RsQpaYnZntO98E4GYmdNmmSZOnGk9Bo8GJ2xelDHTp/R3XffZQY7e5QPcaq8xjeDKmAr4fyRsnVDSlcSrUhX4g2Ur5NHSqCTBJ5C/VmwkISjzKVX0sVXVaboy6+ni664gX+/iUpfXpGicscMX37VdaYdGAK+9LIrKCysZIZKWf5+BPHDWwYX4lLAVsJ/DQmDBszDJZBCF7Vy6C1dK3fGJQSeGI67bftmmjV7upFw3bg6v6Wnp1f2nK4ltUHqjf4hSXPmzqSt2zadGBPcoyv958MPTFaskog6HuUbvI8Ur5XwX07C75bAzY/7CZ2yTAKO6NIUXao0XXzJlXT5NZXookvLMVfRRZeUoyuuyY2ALzkh4DJlytrUlZYig7zRzZW80X9JCbMYDacqYf4e+5EC/itIGNEwOmvdUQL9QjD14W233Uaffd7OdNLC2OGZs6ab0UHNmjfyRcOpiUM8p2tJSUnoj51gZ9jpzJnTzEHgYNq3b2M6Y5VEB5gbL7yQekKiUrzFkHB//nsAPyAMKFfu5P9J6Qr6574XPwPEC/zrSulKpHA1pGzdkNKVSNm6IaUriVakK/EGitdJYy5gzlGu8anyz3POMdXRJgtW6TK5iTj8XEwXsWz9bcCXXuYTMH4/z7YFW4rBzeeeGzCF4V9Nwq34e9iBy8wuVapQZ6YNl0dOGUsBt+D/teYyrUP58tTxxhupM5frnW+9lTrxzy/47/YVKlAr/r9fylLATglLweaJVYDZkiRZfnJlCtEWVcIgncG0tvIanwoICC5nH7zzzlumkxZGAyEQxWRFc+fNyouG69VLvMFT0ktycvI1/vzQs+fM4J0iCvYNScLBvPX2myUyOcNFGBgPqUnpSqRwNSBO/jno2mtp1H330ZRXXqHJL7xAI+66iwbyDWbWUcTrB9LG+8Y99hiNuOMO6s/7hZCH8Y04vGpVGnHnneb/g6+7rmARS+FqSNm6IaUrkbJ1Q0pXEq1IV+INFK+TL/hLfUkJ9A8A6GeAamm/dP1jgFH17Ix+L7v8CvM68k3LbVgsp8JLLj2j/0oSbs/l4NSkJPpm7Vo6sHw5DfzXv6gVlxMBEoZ8uRzqxKIeW6MGrcrOpq/5PT/u2kU/7dljfn69bh2t7t+fxtaqRZ1uvplaciDSjL/nmoQh3QYMxu4mc1mRzGUKSHIhMR/w//RcIUv5FlbCmbyNeN5GVDHLI0x7WOXmKiYZlS8a7s/R8DQTmDZt1tCIODk1sbenpJe0tOS22Hijxg1MWzDqwP1RcNt2ragKXzgcnEc56MKCeTvrQzJSuBpSuC4Mvv56mle3Ln29eDH9d9s2+mnrVto/YwZNf/NNn4gR6UKu2KYjMsbfkO+B2bPpp82baU2HDjTkhhtoaOXKtKF7d/pq/nyzre9WraIZb71FAxFhS/FaCVM2fxnvL4F2YT/+DFqmSjp3DDAiXr+A8TfagIv7MGixINFMukt78NksYUS+7ViOoBV/Rz+/+mpa1qUL/XroEB3++msa+fbb1IbLG6eEP+X3dOCgY/gbb9CW8ePp4IED9Ovhw3Ts6FHz85f//te8/9jPP5u/D335JW2dNImGv/MOteNytDnvxynhxkwKU4fLvhSOnOtz2Vm/UiWVdBfqOUjiQKcWf54EPk4IVQq4sBIG7/J5OrcY5QPKFgScb775fydFw2iehYzhyfiEmGOJiR+V8pTUkpWVdX5SUt2j2DjSU27fsYVGONqC33nn7RKJgl/im6HvlVcGCldDEa4Ekewkjny/56e5n7/5hnaMGEG7+Qb7mW/EA3Pm0Kjq1U2UPO7xxw0Dr7nGJ2H+LMP4KW9Dt270608/0TG+6Tb17m0EDBGvatmSdo4cSUe//95sa/aHH9JA3leAeK2EqR++jFxYlcQwAQlSUV4YFGSmNkQyjpKeIMTy9+Y6l9mTzmYJt+bvXGcOPMZymTSeo9nuVatSRy7jVnDg4JfwqHff9VVJ+yXM39H2HERMSUmh7zjgOHbkCP1y8KCJfndMn04ruOxb0KYNrejVi7ZNnUo/7d5t/v8bC/l7DkSmpqdTWxa9PyJGFNwgV8CfPfEEDfv4YxoVG0ujOBhyY6QLIwC/d2jNmvT5009TLS6fEVlrEbGUr5uEGzAPFLOvCgLOm9kR/gkeEJDOmTPLTGBUPyPNTPCQkZGW5SmppVGjjEQTYqfE0569u2jBgrm56Sl7mAbqW28tfltweY6WekCuJSjhQfz0tDgjg37+6iv6auFCGvvwwya6/XblSjq0dy/Nwo365JP09ZIlJlJG1TLehwh59kcf0X+3b6df+QnwGN9wfgmjbRgiHvfoo/T9unV0hJ8IrYTzgb+MXfiLfnUJ5nS1WP4M3uaC9nNFvmezhFH1PDk+nn5Ard+uXTS/RQvqduut+Uq4JX/X+zzwAH29Zg39xpHvjyzZZbz+wOeeo6533kldb789jy5olnvmGVrCkfWPO3ea9VFF3ZvLw0+4TIGEmzCp/N1Pq1iRRtSpQ3u5fD24f7+JnosC3rtv+XIayZ8rvUoVSoBMo4suYZDGf19WjDLJHw0jrzQCUfSURjrLnbu206jROb4q6ZT4g56SWhIT627ERjFAGRIePXqEyaGJbto1anxEV7I4ixMFoxq6EUQFAZekhPkJcGFqqhElqpVH3nsvjbznHtrPvx9hMS/mJ7ixLOUdOTm0fdgwX7sv73/0/ffTXn7i+55vyr3Tpplo1y9hf4es4bfdZmRuJayIV0gY/KeEsqdZLH8Gl51zDrUIDT3rJdyGv4OfcZn1OUey7bhs+Ix/zm3WjI7+9JOpNl7F5VYPlmd+EkYnrc433USbRo2ivRysjOEABMLtVb06TeBIFMJdM2CA+TmRRdiLhd2F/z/qgw9oz4IFtGncOOp4yy15VdKoik7i3xtxGTk5M9OI9I9jx4oFjnsqf65mHCjF8edsCLiMKqqEEQ1/wJ+9ONXSwRxNo6c0huYiIB0yZCAtXrKQRbyNkM6ZnXk8M7P+G57iLg0apN1eJ6bG7wivN2xcSytXLjMzSSA7FqZ4uvfee0y3bY9ykIXlSb4JTTV0CUu4P9+QE55+mg7u2EGH9+2jZY0a0aK0NBPhHv32W1rCN8iQSpVoGD9dgQG876E33kirWremH9avp+V80SFfiNZK2AUpXUmuhDvzDX9VMZ48LZY/CyR2QJYsCPhslnAb/n51Z/ktaNmSlnz+OeW88gp14uhz3iefnJBwnz7Ug4OL/CSMNmF01OrO6/V56CHqWrUqTU5MpH0cwR7+5htfW/CRI77389/7ly2jKRzcdOYyEELuevfd1ILLL2d7MCTchKPoqVzm4j1SqqfKES6vp3NU/wk/GCRy2d6OHwKa8GcojoQzmLuKUYOLwBNDcuPiYjgg7WaCVMwiiD5TXbp29GXRSogd6ynuUq9+chNsrGXL5nTgy700afJ4GjAg20TBafVSqXz58sWKgtFTrSM6RJ0GCaNtN4dv0m1Dh9KRAwfo0O7dRshoy/jl++9pSYMGpsra2Rt66uuvGwF/OXcuzXjnHdqcnW3ak7fzNkZXq2Z6R1sJn7qEQTw/rJXEcCWL5XRyLT8sts4V8FklYZZlO/5+d+DypC1/9/Bz/Mcfm2pnSGotR6s9WKBFkbDpnMXbbMfl74TYWPqBAxVUNR/98UdTHYz2Yfz8+YcfzOs/cDk6KSmJ2nK515zLCmcP6dMm4U8/NRJOueYa6vPSS9Scj7U4EgaJ/HpYMfIIIDHVQw89aAJSf07pdetX06LF8/2pLI+9m1XMiR2SU+J/wsbGjRtF27dvMTMlYV5F5Ih+/vnnqDQX5h7l4ArLWyionQIuYQmjehltvUsyMmhdx460pn17OrhzpxHrAn7aG1ShQp6EERWv79yZjn73Hf3KN98hvrl/4Z9//PYbHeX1ndGwlfCpS7g3U70Ee0pbLCVNMAcUScHBeQI+myQM6ea8+CKN5/Kmzz330BflytHUhAT6mcsriHHLuHHUk4VbVAmbiJjLl6GvvkpfrlpFX61eTbObNKHsxx+nbnfdRdmPPUYzGzakA1zufbVmDeW88YaZ110OT/ozJJz92mv0CZe5zippKd/CSBg8UYyaXCQCuv7666lZ88Zm8qIBA/vRrNkzaP/+PZSalmhE3LhxgwRPUZf69VPvq13n49/rxNQws0WgvjsvOUeHtmZYUnF6pJbhJ04zN/BplDDWxTAltAWjY9b8uDjTHnyIn+ym8oVEuzHG/AJURS/NzKQ9kybR/pkz6ct588x6v//yCx1kIa9p146G8LashIsmYfAZFyZob5P3gsVypkE1tH9c8Nkm4TYsyJ5cRn3FZQ4i0g2DB1P3m28+WcLjxxdbwugp3Y7lPuTll6nfE0+YJB09OYgZ8Oyz1LNaNerEf/dlGQ/hstNEwd7AMcKnW8LJvN/uTz1FzbiML24kDFL4f8UZO1yWz+Xbb79pAtPsfn3MXAp79+0ywSokHJdQZ4qnqEtGZlp9UxXdylcVPWHiOFPvjbFRsXXrFLtD1tsopKWAS1jCkOy8mBjaOmgQ7Rw1Kq89eHtODg3nm3PMgw+aqmcMWUJ1M3o+owo7h2+20Q88QJt69TIds7bxTT/y7rvzMmdZCRdNwqARF17hxagCslhOB/dyQNFOCPiskTB/b/pyIPHfvXtNzdy+hQupF5dBJS7hXBG35PKo/dVXm2FLiHohfvSCnla/PrXjSBT/h4C1jFl5Eub9TuHIucQk3KIFNecyOp6PvRmXt424DCsJCYMnixENY8reO/mBA+3A6KCFPlNr1q7ioHWBkXBiUt1jnqIuiYl192AjI0YMpR0cCQ93VEU/xU8iXr4IHuWgCgOePLpAlFLAJSzhwRUrml7Q3y5fbpJ1/LhxI23u29eMCx7AN9PYhx6ibzBEiTFDlCDZ3OppRNDLmzY1713Ttm1eFAxy+CkUETP+N/2NN2yyDjcUCYNkvulR9SfvC4vlTID0lG1ye0NLpHzPFgn3ZAlPiYvLk/DmsWOp5+23q72jl3ftekLC77wTkKxDgpzRbbksntWkCR366is6/scf5r1zWYRtuazLL3d0E3y/+bufcdNNND4tjb7nwAdtycUBbdATMzMpi8Uez2UXROoUcHEljIxeRW0bRiB63XXXUsNGmaZKeuCg/jRnzkwzu1JCYqzpJZ2Vlf4fz6ku8fHxQXHxdcxkDes3rDETGA8eMpB698bY4PZ0E5/g4lRFP883VraU72mQMDJfoa13dPXqZkwwhikN5WNHz2msg85YiGqBySudK2CTNYv/j8gY/8M2nPmj8T9EzPjfICT5wOtSvFbCAfJ1giQeRb3xLZaS4jYux1qzgL9QBHzWSJjF2PPWW+nA0qX0086dtH7QIOpWuTKN4gAA43sxLnhZx47U9cYbaWJMDH2zfr1JvDGXg4gu/Nosjki/27SJvlq1ioa88AK15nKkIAm34O83qqNXcjT9PW9/9YABpkf0J1w25CdhJOtIZ2K5jOz9+us0C723ORJf0rNnkVjcowfNatOGevNnjeXyGsKEXEtSwqBaMRJ4oEr6nXffNrXEGDOMuYbRS7pT58/9aSybeU51ycpqUAcGR+PygQN7acaMqabRGb2iU1KT6Oqrry5yVTTGBbeF6KR8T4OE8+C/0Ukr4HWHdFVypVsgUroSKVwNKVs3pHQlUrZuSOlKohXpSqR0JYp8nTThAujSYrTHWCxFBT31Hz//fFMFDQGfzRJGxyz0jEaHrP4PPkjdWcBt+TvagcuwvqjBe+ABkymrDX+vMVa4Lwcd2fzaFxUqUGt+DT/78t997r+f2vF78p3AIVfC4FPeB3JEj3zvPTORQwveVmFmUWrIxHH5kMz7bffoo9T52Wep8/PP50snhY7gueeo7WOPmdSVMbx/zIgkBVwSEo7h8qqo44bD+F64n89t126dqU/fXpSTM4S2bNlI48aP9kk4Oe47z6kuKSkJzfHmLl2+MEYfNXqEaXSG6V//92t0Ed8QHuVgCsOt/MTRR4r3dEvYDSldiZStG1K6EilcDSlbN6R0JVK2bkjpSiDZgpDSlTiE60Yn/tJX58LwdKS2tFg0vP/8J9UICjKS9Qv4bJewf2wwEnSgehp/I1c0UlXidZM3mmmJ//E6AL+biRz4J/JIAzmdoRSwU8L+iLgVl3H4KQXsJuEmDGZCQrV0HJdJsVxuxXAZp1HHhdp++L11eBsJ0b65gaV8S0rC9ZlrizjLEiaXqVSpErVp2zIvjeWy5Uto46Z1uTMr1f69Vq1aoZ5TWZKS4780Q5PY5JimaRibHYaH6YuboKMGCngpXivhQNm6IaUrkbJ1Q0pXEq1IVyKlK4kKlK5GNn/xU/ieusJGxZbTCGrhHjrvPJMNyynfv4qEJTJtpTaLUt58wi5IAUsJO5ECdpOwfypDzKSkTk8oyFTADEyGaJ98IdTiTGVYkITBc3xN5T1TGFArXK5cOYpPqGtqiwcMzKbpM6aaWuTcoUrHMxtl1PScypKYFGfag1evWZHXHuyfMQnGh/k9ysEURBA/gXaCIKV4rYQDZeuGlK5EytYNKV1JtCJdiVcRr5OoQOGq8Bcf9GZqBAdbGVtKFMyIhN7PDfne6ugiYCvhkpewpIkLzjmHA+YejvbJ14+Ub0lKGMk7cK/I+6cwoHb43/9+7aR2YYwq+vyLdiYabtCgXoansEt6euqTtWp/9AfyX+7bv5vmzJ1JAwf2o549u1FySmKx2oOroioaEpXitRIOlK0bUroSKVs3pHQl0Yp0JV5FvE6iFOFqRPok7Kcvk8GF5cMXXEBRtvOWpQigzbcCP8y9yvfQpyEhRr5+pHythK2EQTpzXRGrpNEuXL16NZM9q29uuzDyawwbNshfJb3IU9ilafOsdOSKbvFpUzb5Pho/foyZsAGGf/vtt0xPMI9yEIXhHT6pAdKVSOFqSOFqSOFqSOlKpGzdkNKVSOFqSNm6IaUrkbJ1Q0pXEq1IV4LrmR9RinA1Ik+WsBRyS77BPwwKoie5QK1y7rl0CReudoiTBUC2Ucjjy/fEnRztPseFaAzfKxhy5BSvlbCOFPDfWcLIJ13UDFoYLVS5cmUzsyBGEQ0ZOpDWrFlJCxbOMxJOTUv81VPYJSEhtinehDFPyPyBCYv7Zvc244OfeOJxiuIT7FEOoiCQkaYVxCalK5HC1ZDC1ZDC1ZDSlUjZuiGlK5HC1ZCydUNKVyJl64aUriRaka7Eq4jXSZQiXI3IQPmeBBcwGj25APucgaQb85enAUc8mIg9NTiYkosKF+CF4sIL84cfGEoElsqpkAT4fZJEFxJOgXgX4hTqOuHzURCxghgH+DsB8HlP4WvUgGnK17k104mve2cGPyVSvlbCgUgB/90lXDuqiH7jB8EKFSpQZlZG3njhhYvmm3TP8GlMbM3fY2JiLvAUZolPiN2ON40eM4K2bN1kklL36eObNalq1apFnjsYaSrz5gzODylcDSlcDSlcDSldiZStG1K6EilcDSlbN6R0JVK2bkjpSqIV6Uq8inidRCnC1YhUxOskIlDAKlygFQgXnvnChXShYAHkC4uiUPD3KV9YPm5kK/QF/D5JHxd6K/Tyw8fnpKcLPRS6O+Hz4aebC10FXTRCfcLVkAK2ErYSLoqEU6OLlsYSEr6cvVOrdg3TOQvZJafPmGI6ZyUlx5nOWRkZ9d7zFGbhsPkYJLxkyUJatXqFmScRnbJat/nUdMpC0mqPchAFcRd/iU6astANKVwNKVwNKVwNKV2JlK0bUroSKVwNKVs3pHQlUrZuSOlKohXpSryKeJ1EKcLViFTE6yRCEa5GuCJdSZgiXiehinA1QhTxOglWhKsRpIjXiSJfK+FApICthK2EiyJhtAtXuqBoE82gc9arr75imm4xpHfM2FH05Zf7qFXrTwhNvM2aNanvKcwSW7f275Dwtm2bzZRMgzisRnhdP6NesaYufJUvboBwNaRwNaRwNaRwNaR0JVK2bkjpSqRwNaRs3ZDSlUjZuiGlK4lWpCvxKuJ1EqUIVwP3Rn5EKMLVCFekKwlTxOskVBGuRogiXifBinA1ghTxOlHkayUciBSwlbCVcFEkDB7ie036qzBgasNHHnnENN0ixTNSPe/du4v92RWRMCWlxDXwFLSkpiY+jp7RdeNq034Oo2fOmm7GPCG8rl27Jl3BAiyqhJMgCClcDSlcDSlcDSlcDSldiZStG1K6EilcDSlbN6R0JVK2bkjpSqIV6Uq8inidRCnC1YhUxOskQhGuRrgiXUmYIl4noYpwNUIU8ToJVoSrEaSI14kiXyvhQKSArYSthIsq4df5mkh/FQY01aLJ1j+/8LCcwbSVg9mc4UOMhGNjay30FLQ0a9YoGSs3bJRhekZPnDgur2f0G2/8H13MsvAoOy8M7SA1KVwNKVwNKVwNKVwNKV2JlK0bUroSKVwNKVs3pHQlUrZuSOlKohXpSryKeJ1EKcLViFTE6yRCEa5GuCJdSZgiXiehinA1QhTxOglWhKsRpIjXiSJfK+FApICthK2EiyphpLCU/ioM5557rukh3b59GzOj0pChg2jdutUczE4zEk5JTTjiKWhp0iSzAequMcAYA41Hjsqh7H6+ntHPPPM0RfOH8Sg7LwQ/dYc8pXA1pHA1pHA1pHA1pHQlUrZuSOlKpHA1pGzdkNKVSNm6IaUriVakK/Eq4nUSpQhXI1IRr5MIRbga4Yp0JWGKeJ2EKsLVCFHE6yRYEa5GkCJeJ4p8rYQDkQK2ErYSLqqEMccwnKV4LF9QS1yxYkVq3KShacIdNLi/SV+5Zu1KI+HklPjfPQUtCUmxDbAyLL579w6TrrJ3n57UpWsnql69OoWHFy1MZ9b2tBLOHylbN6R0JVK2bkjpSqIV6Uq8inidRCnC1YhUxOskQhGuRrgiXUmYIl4noYpwNUIU8ToJVoSrEaSI14kiXyvhQKSArYSthIsq4TSGnbVO8Vi+QMJIZpWUnGBqj/sPyKb58+fQzp3bjIQxTMlT0FInpuZ0rIy6bHTMwgTFvXr3MBMW33LLLabO26PsvBBM720lnD9Stm5I6UqkbN2Q0pVEK9KVeBXxOolShKsRqYjXSYQiXI1wRbqSMEW8TkIV4WqEKOJ1EqwIVyNIEa8TRb5WwoFIAVsJWwkXVcL1ShkJT1c8li/+YUof1/iIunXvYppyZ8ycZvpXIQMlhinFJ8ff78lvSUyK+x4SnjxlAq3fsNYMT0JY3eGztmZ4UjHmEM7Jd+YkK+FA2bohpSuRsnVDSlcSrUhX4lXE6yRKEa5GpCJeJxGKcDXCFelKwhTxOglVhKsRoojXSbAiXI0gRbxOFPlaCQciBWwlbCVcVAljmBKcpXisQNBv6o03/8804aIpd9Kk8aZ/Vf2MVBMNN2qUUdeT35Ka6hsjjKFJK1ctN3XayBn9SYumdP311xe5ZzTTM1vK1g0pXA0pXA0pXA0pXYmUrRtSuhIpXA0pWzekdCVStm5I6UqiFelKvIp4nUQpwtWIVMTrJEIRrka4Il1JmCJeJ6GKcDVCFPE6CVaEqxGkiNeJIl8r4UCkgK2ErYSLKmFMawhnKR4rkFL83hdefN6XQzq7l0l6BQm3bNncN1b4k0b5jxVGwzEkvHbdKlq6bLFJvYXhSQ0y69O1115bHAl/biVcAFK2bkjpSqRs3XAKVyNaka7Eq4jXSZQiXI1IRbxOIhThaoQr0pWEKeJ1EqoIVyNEEa+TYEW4GkGKeJ0o8rUSDkQK2ErYSrioEgbsrI6KxwoEaZ0ff/wx048K0/8i7TOyZnXs1MEXCTfJzH+sMCYfxorId7lgwVwzRrh7j66UmBhfrNmTmDYBsnVDCldDCldDCldDSlciZeuGlK5ECldDytYNKV2JlK0bUrqSaEW6Eq8iXidRinA1IhXxOolQhKsRrkhXEqaI10moIlyNEEW8ToIV4WoEKeJ1osjXSjgQKWArYSvhYkq4veKxAsFsSvfdd5+RMDo1o3Pz7j07qVfvbkbCycnxmR63JS4uriyv9AdCZkxhOHvODJP/Er28atcpXqIOj5VwwUjZuiGlK5GydUNKVxKtSFfiVcTrJEoRrkakIl4nEYpwNcIV6UrCFPE6CVWEqxGiiNdJsCJcjSBFvE4U+VoJByIFbCVsJVxMCbdRPFYgwXy/33b7baYzM0YZYe4FTGk4cFA/I+HatT/u6nFb0tKSX0LvrYTEWBM+T5s+xfTuQgPzfz58ny5lKXmUnRYSK+GCkLJ1Q0pXImXrhlO4GtGKdCVeRbxOohThakQq4nUSoQhXI1yRriRMEa+TUEW4GiGKeJ0EK8LVCFLE60SRr5VwIFLAVsJWwmdCwueffz7deOON1LnLF2bOBSTs2LxlA40aPdxIOLZunbUetyUjI702JFwvPdkk6pg0eQJLuI+R8JtvvVGsbFkeK+GCkbJ1Q0pXImXrhpSuJFqRrsSriNdJlCJcjUhFvE4iFOFqhCvSlYQp4nUSqghXI0QRr5NgRbgaQYp4nSjytRIORArYSthK+ExI2J81CyOKIOHBQwaakUYTJ40zEk5MrPutx21p2jQrBSs1bpJpenONGz8mL1vWK6+8bGaI8Cg7LSRWwgUhZeuGlK5EytYNKV1JtCJdiVcRr5MoRbgakYp4nUQowtUIV6QrCVPE6yRUEa5GiCJeJ8GKcDWCFPE6UeRrJRyIFLCVsJXwmZAwZhnEcN6WrT7JzZo1wGTMmjV7upFwSmrCzx63pdknTeqjPRhvhoRHjR5BfbN7m67Wzz33rOl67VF2WkishAtCytYNKV2JlK0bTuFqRCvSlXgV8TqJUoSrEamI10mEIlyNcEW6kjBFvE5CFeFqhCjidRKsCFcjSBGvE0W+VsKBSAFbCVsJnwkJo98UhvM2bdbYJ+FB/WnFymW0eMkCI+HUtMTfPG5Lk2a+vNGffe7LG42u1RjnBAk/+eQTpuu1R9lpIbESLggpWzekdCVStm5I6UqiFelKvIp4nUQpwtWIVMTrJEIRrka4Il1JmCJeJ6GKcDVCFPE6CVaEqxGkiNeJIl8r4UCkgK2ErYTPlIQxnDerYQPq0bObGea7dNkiWrNmhT8S/sPjtjTIqpeJldCrC72jMRcipmOChB955GEzV6JH2WkhsRIuCClbN6R0JVK2bkjpSqIV6Uq8inidRCnC1YhUxOskQhGuRrgiXUmYIl4noYpwNUIU8ToJVoSrEaSI14kiXyvhQKSArYSthM+UhMuXL0/p6akmx8aAgf1o0aIFtHHTOiPhpOQ4dwmn1ks0EsYExHv27KScnCFGwr7JG6qZ8U8eZaeFxEq4IKRs3ZDSlUjZuiGlK4lWpCvxKuJ1EqUIVyNSEa+TCEW4GuGKdCVhinidhCrC1QhRxOskWBGuRpAiXieKfK2EA5ECthK2Ej5TEvZP4uCTcDbNXzDXzMUAv8YnxLhLuG58jJFw3+yetGvXdjOJg38GpXvuuZtC+EvgUXZaSKyEC0LK1g0pXYmUrRtSupJoRboSryJeJ1GKcDUiFfE6iVCEqxGuSFcSpojXSagiXI0QRbxOghXhagQp4nWiyNdKOBApYCthK+EzJeFy5cpR3bjYvJmU5s6bRbt2bzcSjomt6S7hmjU/aoaVkKBjx86tZpAxBhujevrOO+8wg5A9yk4LiZVwQUjZuiGlK5GydUNKVxKtSFfiVcTrJEoRrkakIl4nEYpwNcIV6UrCFPE6CVWEqxGiiNdJsCJcjSBFvE4U+VoJByIFbCVsJXymJIzEVjExtXMl3Jdmz5lJ+/btNhKuVfujP+Lj44M82lK7To0crDRk6EDatv3kaQyrVq1KF/KX26PstJBYCReElK0bUroSKVs3pHQl0Yp0JV5FvE6iFOFqRCridRKhCFcjXJGuJEwRr5NQRbgaIYp4nQQrwtUIUsTrRJGvlXAgUsBWwlbCZ0rCmM6wZq2PjYSR8Gqmmc5wD6JgiPh4QkJMFY+2xMTUnAMJDx8xlLZs3WgyffglXKVKFbrgggsCdngKWAkXhJStG1K6EilbN6R0JdGKdCVeRbxOohThakQq4nUSoQhXI1yRriRMEa+TUEW4GiGKeJ0EK8LVCFLE60SRr5VwIFLAVsJWwmdKwsgu+dFH/zE5NiDh6TOmmDmF4+LrGAnHJ8c/5tGW2Lq1VkPCSK+1afOGXAl3N+m3kAEE6bg8yk4LiZVwQUjZuiGlK5GydUNKVxKtSFfiVcTrJEoRrkakIl4nEYpwNcIV6UrCFPE6CVWEqxGiiNdJsCJcjSBFvE4U+VoJByIFbCVsJXwmJAwuYSd88MF7uRLuQ1OnTTYSTkyqaySckpL4okdb6sbX2QEJjx03kjZuWk+Dhwwwg407dvrMSPi8884L2NkpYCVcEFK2bkjpSqRs3ZDSlUQr0pV4FfE6iVKEqxGpiNdJhCJcjXBFupIwRbxOQhXhaoQo4nUSrAhXI0gRrxNFvlbCgUgBWwlbCZ8pCZflMv/dd9/OnVO4N02eMtHk3khOiTcSrlcv5T2PtiQkxO6DhMdPGE0bNq6jwYMHmMHGn3/R3qThQk5Mj7LDQmIlXBBStm5I6UqkbN2Q0pVEK9KVeBXxOolShKsRqYjXSYQiXI1wRbqSMEW8TkIV4WqEKOJ1EqwIVyNIEa8TRb5WwoFIAVsJWwmfKQljnoV33nkrT8KYhwFZKFPTEiFhysio97FHWxKS6n6DFSZPGU/r1q/JlXBXk4gaEj7nnHMCdnYKWAkXhJStG1K6EilbN6R0JdGKdCVeRbxOohThakQq4nUSoQhXI1yRriRMEa+TUEW4GiGKeJ0EK8LVCFLE60SRr5VwIFLAVsJWwmdKwmW4nH7jzf8z/amQdXLCxHEmEq6fkWok3CCrfh2PtiQlx/8XK0ydNonWrVtNSDwNCbfv0MZKuCCkdCVSuBpStm5I6UqkbN2Q0pVEK9KVeBXxOolShKsRqYjXSYQiXI1wRbqSMEW8TkIV4WqEKOJ1EqwIVyNIEa8TRb5WwoFIAVsJWwmfUQm/8e88CY+fMMZIuEFmPSPhxo2zEjza4pfwtOmTae3aVXkSbt2mpZVwQUjpSqRwNaRs3ZDSlUjZuiGlK4lWpCvxKuJ1EqUIVyNSEa+TCEW4GuGKdCVhinidhCrC1QhRxOskWBGuRpAiXieKfK2EA5ECthK2Ej5TEsaMg6+9/lqehDEjISScmZVeeAmvMRLuf5KE0fXao+ywkFgJF4SUrRtSuhIpWzekdCXRinQlXkW8TqIU4WpEKuJ1EqEIVyNcka4kTBGvk1BFuBohinidBCvC1QhSxOtEka+VcCBSwFbCVsJnSsKluXwtkoRTUhOOYAWMabISthIOEK6GVxGvkyhFuBqRinidRCjC1QhXpCsJU8TrJFQRrkaIIl4nwYpwNYIU8TpR5GslHIgUsJWwlfBZIeG+gRJu1qxRqkdbUlITf8YKmHzYSthKOEC4Gl5FvE6iFOFqRCridRKhCFcjXJGuJEwRr5NQRbgaIYp4nQQrwtUIUsTrRJGvlXAgUsBWwlbCZ4uEx44bbSTcqHGDwkl4zpyZtHrNCithK+GC8SridRKlCFcjUhGvkwhFuBrhinQlYYp4nYQqwtUIUcTrJFgRrkaQIl4ninythAORArYSthI+oxJ+7dU8CY8ZOzJXwplFk3DLVi1YwjdYCeeHlK5ECldDytYNKV2JlK0bUrqSaEW6Eq8iXidRinA1IhXxOolQhKsRrkhXEqaI10moIlyNEEW8ToIV4WoEKeJ1osjXSjgQKWArYSvhMynhl195qeQk/GnLT6yEC0JKVyKFqyFl64aUrkTK1g0pXUm0Il2JVxGvkyhFuBqRinidRCjC1QhXpCsJU8TrJFQRrkaIIl4nwYpwNYIU8TpR5GslHIgUsJWwlfCZknApfr+VsJVwwTiFqxGtSFfiVcTrJEoRrkakIl4nEYpwNcIV6UrCFPE6CVWEqxGiiNdJsCJcjSBFvE4U+VoJByIFbCVsJfyXk3Cbti1/ad++NS1ZsoDWsIQnThpLI0cNoz59eto24YKQ0pVI4WpI2bohpSuRsnXDKVyNaEW6Eq8iXidRinA1IhXxOolQhKsRrkhXEqaI10moIlyNEEW8ToIV4WoEKeJ1osjXSjgQKWArYSvhMynh9957h4YPH0Jjx42iWbOm0c6dW6l3n+7Uuk0Latu+dZpHW8aNG3ls2bJFtGHDGlq/fjWtXr2cVqxcQvPnzzITOFgJ54OUrkQKV0PK1g0pXYmUrRtO4WpEK9KVeBXxOolShKsRqYjXSYQi3HzoD/h9YEAu5rXwYki4MOuEWAlbCVsJWwmXopSUJONPeBQ+hVdXrFhCCxbMpj7Zvep7tMVKWEHK1g0pXYkUroaUrRtSuhIpWzecwtWIVqQr8SridRKlCFcjUhGvk4hA0Z4kXV5nAG9nEDOYGcr7HsbHl5MLfsdrQ/B/Xn8gMyDcRcihJ6TanxnArw3kdQfxewDeb8BrjP+nAesyA/DekEKKOEgRrxNFvlbCgUgBWwlbCVsJn4yVcEFI2bohpSuRsnXDKVyNaEW6Eq8iXidRinA1IhXxOokIFC9AhDuQ3z+Y95XDxzyKP9d4vh6Tr7qKppYvT9OvvZZmXHcdTeOfU665hibyvTOWz+FIPvZh/D5INUDGoSckDPkO5X2M5O2O5Ws0jq/leD/8t4G3N5b/P4a3OZqPYwRvN4ffMyTcJ+UBIQXIOEgRrxNFvlbCufD57ZKLFLCVsJXw/4aEV1gJFwopXYkUroaUrRtSuhIpWzf8snUjWpGuxKuI10mUIlyNSEW8TiJ0AQ/hfQznYx3H12B6xYq04PbbadVTT9GWmBjamZVFe1u1ov3t29PeFi1oR3o6bfzwQ1r60EM0p0oVmlyunJG2X8Z5VdWhuVEw/z6E9zGWr9/8Bx6g5bzdVc88Ewi/voy3ufiuu2jBrbfS3Jtuouks/ol8/4zk4xvK2x2E7YW4yDhIEa8TRb5/dwlDut34vPbg69Yzl+78N153RsVSvlbCgUgBWwlbCQcKV0MKV0MKV0NKVyJl64aUrkQKV0PK1g0pXYmUrRt+2boRrUhX4lXE6yRKEa5GpCJeJxGBAh7K+x/D5w3R7vLHHqM9LVvSf+fOpV/27KFj335Lv/3wA/3+00/0+3//a37i72PffEM/b9tG348bR1vi42n+HXfQRL5XhvO2UMVsRJwrYUTIw/nYZt1yC/24aBH9sn8//XrggMove/fSz1u20KElS+jHSZPoQLdutP6tt2guv3cS32eIjhEVqyIOUsTrRJHv31nCEG13vlbZfH8N4e9WDp/fYcxAvhd68X3Rla+bX8RSvlbCgUgBWwlbCQcKV0MKV0MKV0NKVyJl64aUrkQKV0PK1g0pXYmUrRtO4WpEK9KVeBXxOolShKsRqYjXSUSggBGhzuPIcztHuIdWrKDffvyRjh87RnT8OOW7/PEH/XH0KP361Vf0Awtzzb//baqqR0TnijjMFw2jKnoUv7bgzjvp5507C7Xd47/9Rsd/+YV+P3SIfmUxfz92LK3/6COaVqECjeDzoYo4SBGvE0W+f2cJI+KFgEddfTUteu01WvnBB7Ti/fdp7ksv0SD+TiM69ldPS/laCQciBWwlfAYl3LRpw6MNG2bQgoVzzRClUaOH06DB/ahT58/tEKWCkNKVSOFqSNm6IaUrkbJ1wylcjWhFuhKvIl4nUYpwNSIV8TqJONEBC+2/o/k8IMrc1749/bpvn5HfKS8s1T9+/pkOrVpFGz7+mCZddRUN421DvhAxOm+N5vOw6K67CidhueRu/+fNm2ljrVqm+juHtzmQJRAQDfsJUiTM9HfgFLMUsF/C2bxONm/PT7EkzPLr7QB/9wTBRZQwRMr0AHyeAf7G6wVJuBuv25vvgRz+bi599VU6uH49/frNN/TL11/T94sX07ibb6Y+fD+ZaJjXlfK1Eg5ECthKuGQk/Mab/0f9B/SlnJzBNGXqRNqzZyd99nlbM4lDy5bN9SFKerKOLvRpy+Y2WUdBSOlKpHA1pGzdkNKVSNm64ZetG9GKdCVeRbxOohThakQq4nUS4ZPwQF4XbcDTy5enbUlJphoYEWjAwgJEVPzHkSMmKkXka0StiPSPX3+lg8uW0dLHHzfR9RDeH3pEo504Xwnn7sPw+++B/89d8P9Dy5fTsmeeoTF8fYaE+TprISJGL2pIOQ+85v8fM4gZzAzh//nB33h9AMsNUjbCDfIJGq9hG2iDHsz7AaZzWKhv+FRf/n9hJNwb6/H62WG+zmqomveDv/F6X95mbwZSlgKWEu7J6/Xk9/Rm+vA2+vK5zcY1zb2++L03v96L/9+dgZClgLvya4hyB/B9N/n662lvp070+8GDuSf5OB3eto2m3X47DeJrhmppVFkbGTOdwk4WspSvlbCVcElL+ESyjp6FT9ZhJawgZeuGlK5ECldDytYNKV2JlK0bpRTxOolWpCvxKuJ1EqUIVyNSEa+TiBPV0Oj9jI5QBxcs8FU/n2Q8nxjRTntw4UL6dsgQ+qpHD/p+9Gg6zBHvb9995xOmWNBuvJ8L9ZmVK5tqaf9wpPwkDMEf4WM4OHeu2fbRXbvot++/V6Nys/1u3WhqhQo0DNsO8wkSv6Pz1mjeJ8DvOVwoD+X/4eco/sxj+fWJfA9N4ft+Et+T4/gaj+bX8f/BueKGlIfy78PxHt4Gem9P4u8SwPkazdd7GL8Hw6ekjJ3y7cOvZ/P/Tac0PrYc3tYo3t9Y3u8EjuTH8/bwO3qLD+XrhtqCbN6niY4VCSNi7oN94jPz+sP4fI7ge300fz/H8fYmXHMNjb/6ahrD2x3BxzkY9x0fJ0SNCBniNQKG6PnvbN7GSH7/wvvvp0MrV54413xtft6xgxbedx+N4+91Dn/+Qfgu8PZ68Xu68v6dIpbytRK2ErYSthIOlK0bUroSKVs3UODlR7QiXYlXEa+TKEW4GpGKeJ1E+KLgEXzcsypVMr2eIbyTxIjqXxbjwUWLaNOHH9IClufsm26imbw+ekMv5YJ7d+PGdHTr1gBRHudoGh22Vr/2Go3n645oGO3DY0rpEobIj27cSBuffZaW3HYbLeQIbMWjj9LujAz6efXqgIcD/P3TnDk0m48DnbQwfAmdviZzRL+AxbHkwQcN+H0aS2kiX8dpfJ/P4+Nfxse94d13aXu9erSlTh1azRE1eoGjB/Y4Ph8j+Fgh6wl8D+HcLLrnHlr7+uu0LTXVsJ7fu/Sxx8wDBiL9ofy5MP7ZL2K/gPE3Xod80Wt8yrXX0lz+bEv5c61/7z3ayvvfyttb9847tPiRR2h21ao0gY8VQ8OQCKUPol1HVIzf+7Ko0Hwwhr9rUzl6nXf33bTs6adp7fvv05bkZNrZtCltb9iQNsbE0Eo+93P5s07i9Ybj+8DnpyefJ0TGiKKz+TPi9Vk330w70tJM57sTJ/i4efDayttd+cQTtIg/7zw+xunVq9MIPk+9+V7twtvytxNL+VoJWwmffRJevYIGDupP3XuwhD+1Ei4QKV2JFK6GlK0bUroSKVs3INr8iFakK/Eq4nUSpQhXI1IRrwO0BWM4EoYirXjqKTqybl1ARPvHL7/QT7Nm0coXXqCpiK74XI3gz4Hq65EMxvTOYRFtZZH9wlGTrMaGwL8ePJhm8DrDeV+QUX4SPrJmDS254w6azPsZx+tN5O3Pv+EG2v7xx3Tsyy8DHhAg+QUsSHT2yuFtT+D7bwPL5xB/ll/27TMcWruWttaoQctZslt5O+g49vP27XTs6699vbtZPOilfZj3/WWfPqZGYCZ/H+ZwRLnmpZfo2+HD6cimTfQr7x8PKQDvPcrH/82IEbTy1VdN2/dQnFNIUggYw7XQW3wxy3BPhw50cOlSOrpnD/2K/eduD7/jtf8uXkzbGzWiOXfeSaP4uqCmwojYEQEP4c86hR8kVrO49/foQYf4uE0vc97GMWzvxx9PfC4+5sN87Hu7daPF/HAzhq8hqp778LnCPTKCz9dcluruli3pKJ/LgAcp/huf9VfePvZxlDm4YQOtZmEP4XIF1dP+aFjK10rYSrjEJfzyS9S5S0fqwxIePcZK2B0pXYmUrRtSuhIpXA0pWzekdCVStm6UUsTrJFqRrsSriNdJlCJcjchA8TpBAY+sV1M4ctxev74vCj6pBD5uejtjfPBU9HTm40fmrIH8Pj/ImIVEHQtuuYW+7tmT/jh0KGAbpkqTBYRIEKIawz/dJHyYI975HA0iQQfWhbgn83VcxdHsz6tWBTwk/MKR2rLnnjPHgGh4CstwO0fOkJB/+ePwYfpp6FD65pNP6OjmzaYtW1aDY8G2MezqxwkTaCuLdRcL+zALE++XDxe+N/g6iR1ev57WseTH872PTF/otIUqaL+AcX4R6f40c6Y5Lrd2dCxGet98Q9/yMSznY0C0O4BF4G8nRjX1mAoVaBfLF9JG27w8J3JBjQTaefFgsi4+nsbytRzM1x3Vyws4gv5u2jQj74K241+O8TnazOcyh4Xeg6+RlXAgUsBWwlbCgcLVkMLVkMLVkNKVSNm6IaUrkcLVkLJ1Q0pXImXrhl+2bkQr0pV4FfE6iVKEqxEZKN6TJMzrDOdjnsWR5gFnh5zc5fivv9JPs2fTfI7KRvM5gIBRReqcuAGCgMgn872x/t//NuOJpWAg8tWvv24i7hzeBjJh5Svh224zmbLQ3oohSFP4Oq6uVo1+5ohPigLR2dInnzSds0bytlHtvDMz8yQJE+TKkvndpe36pAViZen+wtHzsV27zDkoaME6P/J5mnv33eahAR220AaMqH8Sf6/QS/zIxo1mmJU8N+Zv5TXUIPy4cCEtePRRGo77j+UEERsJ84PGtubN6ZjzMxZiQfX9QT6/i194gUbx93Qsb2ddUpKJoAOOIZ/FSthK2Er4BFbCBSFl64aUrkTK1g2ncDWiFelKvIp4nUQpwtWIDBSvk4FRvvbguVWq0PcjRpiozrn8xoUtknUgPSVyRSNylrMnIRHHYH4dYl18xx10kKM9Ka5jLL/NHIFN4vsQkspPwqiOXsbSn8LXZDyvN5mv88LKlWkXR+O/SVlwhHeEI9t5vF90nEIkDAnvkhLG4pcdY8YcI+EI4yZGE60i+sXvLC+TnOTHH33nSFkf0evm5GQaz98RdA5DZ61RfL1RVf7jjBmmWt+5Ps4RqnlRnY5qYLxfjsf+jfe5t2tXmsIPSYMifdXSaA8exucFckY1uxlDzZgx1Kh+RpITfjBBVTRELo/1d37A2D9wIE3hczqOz9WauDg6sn2771wond9MFO1PyoJqeOYwX7c1DRrY6ujIQPlaCQdiJWwlXDikdCVStm74ZetGtCJdiVcRr5MoRbgakYHiPUnCXl8vXXRIOjh/fkDHJ8hzU2wsTSxXzrQdI+qVEgaolkbe6Lk33kjfDR7sK/wdC2S++9NPTbUsItv8JPwLR4ybn32WlqHzEtJlPvII7WWp/gzhiOODEL/OyaHp6HTExwBcJYyF94XXf5oyhfa3akUH+Jjw0GCq0KVYc9dHVHxo8WL68rPPaF+TJvTD8OGmN7hcHxLcD2Hm9tRGFD8FUXnDhr7OTs7PyUI+tGABbeYIeRlH+MuqV6ftfJ6PLFt28mdEx7YdO2jZa6/RcL5HMYQJIsbD0AR+MNrGn+Hw1q303xUraB+yidWsScufeYaWsaDR2QzHaqrSHQvOMaLhWXxuR/N3cfq999J6fkDC+UDkj1oD54LzdaBtW1PFvyk9ndanpdGKunVp4v33U1++d2zHLB0pYCthK+FA4WpI4WpI4WpI6UqkbN2Q0pVI4WpI2bohpSuRsnXDKVyNaEW6Eq8iXidRinA1IgPF62SQ15egYxEXxEgPKds9UY285o03zPAUrSo6r0qat4UUlbNYhl927hxQrQ0RoMMTZIkOVOh9jJzQUsJGeiyzwyzGgyzKQ4sWmV7X2hAl0/MaEdk775hqbuSSxgQP+UkY2/6mXz9a/sADNIclNu+662jtv/5Fh/EAolQ7m05p06bR6qefpjl87LNZsCtYmN8NGBAgN7QzfztqFE2vVMn00MbnnIeHm6VLTz52Pu5fWXZb33vP7H8qfx+mMQv5fbtq1aJjHMWeFA1z9L29WTMad9VVptahV240PITvpSm33kpLWNBz+Pphv5hgYyJfqynMvIoVadPzz9MvynU9uneviaQxrGkYgyFNS/mcHOaHjZMeAvg4MEQMUp/M52sUbz+HH8gGcTnQl69hN74fnMk7pHythK2ErYSthANl64aUrkTK1g2/bN2IVqQr8SridRKlCFcjMlC8J0mY1xnD53H544+bXsRyQdUmJljAEJzCSHgGF9T7WrQw1ZfOBRHrtyNHmh7SRsJ8PlUJY0FVLcvPACEoHaIgYAyd2dW6NU1jOaKdGVXAOXx8rhKGUHh/qznKnsKfZzS/ZxwfC0R4QDlmLKgu3sxinMbfn1G8Pqq8Z/D3ZDMLFP9zLma41Lx5NKtKFd+YYr6n0ONcnld8rsNTp9JGPueLbrzRyH0us/Smm2grr/8zxmk7HghQfXyAHxwmsVT9HbTQQ9qccz6PqP6exExhOU7DDFe83mw+z4tvuYU2PfkkHZ40iY6jI5pjQSas5W++ScP5OzaAP1cOb2fObbcFjhHnc4Ze5LP5Wg3jdfry5+oZ6UvYgQhYZs+S8rUSthK2ErYSDpStG1K6EilbN5zC1YhWpCvxKuJ1EqUIVyMyULyahJc9/LCJjuQCCa945hkay9eiMBKeCQm3bBkgNESJ340ZUzgJF7BAEhgKtadNG5p9882mGtzMN8wSyE/COIYfJk6keZAkfxYk7kASjml8T2+rUYN+++abk9Y3ncTWrKFFd99tOokhIxfGIaOdegVHjSarmHN9jnaRIWw2yw/ro6MaxlWjrfek9ZD0ZN06+r5LF/qSP8N+fpDYx3zVrh390L07HRPDhCDk76dPp6ksbLQLo0oaMkaHukn8WedwNLzsiSfMuOVtKSm0p1Ur+rJrV/q2b1/67/DhdGzz5oBqfKSkXPn++zScv4sYJ4yoembVqvSTbJI47suYNf2OO8ywprz80WF66kopXythK2ErYSvhQNm6IaUrkbJ1wy9bN6IV6Uq8inidRCnC1YgMFO9JEvbmVkezaI6sX28iTOeCXrPr3n6bJvB1HxKVv4QxfGl2pUr0dbduAcOUzFjhgQNpxg03FE/CfHzHdu+mnXXq0HyW0ljeJ8SIVJTokTwswl3CaLP9kiWHeZCH83r+bFiT+D7a8PrrdOyrr05a3/R4ZvnN4f2M4PWxD4geGbgWY/IJVPM623kh4eXLaQ5LGOObp11zTWAvbbOir1PWHwcP5s1E5Z+VCq/J4Uv+NtwZvF3k4MbD0Gg+5jl8/jYnJdH3/GCBKmP/mGOzLaQU5Qga51129sICCa/64AMj4b64D0rpEj6eK+FpLGHcd6h+dhOwlbCVsJSvlbBECldDCldDCldDSlciZeuGlK5ECldDytYNKV2JlK0bpRTxOolWpCvxKuJ1EqUIVyMyULxOBvI6I/mzYVwuxrDKdlF0zNqakGDaGjEeOL+OWegJPB+9rNEZSPSyRhvxvk6dTC9rpK80PaldJAwJISqFFCGmk6qjeV0k7NjOketMPiZU+6Ia2p8vOl8Jo6c3R4kY7zwMxxwcbHJGT+Brv+7ll00iDudiqtD5s8xEdTev35/Xxz6wz0W3304/b9p00kOLlDBqBfZ/9llA+/ipLtjH4Q0bjCSRHAU1F4sefZS+mzDBiNf0unZ7kHF53S9hTNhwKhKWaSolUr5WwlbCVsJWwoGydUNKVyJl60YpRbxOohXpSryKeJ1EKcLViAwUr5MBUb5xwkhD+a3SqxkS3NehgxERMmRBtlLAEDOi5HF8Dpfecw8dXrgwoPoTnYt2NGlCk1mA+Q1RMp2W+LXdtWvTtjffpK9537InMtpUf+IIdWm1aqaDFzpkmckZCpAw/t6ZlWXaTodxQe+X8ERI+JVXAiWM6L1/fxM5SwkjnaYZ95uPhPG+/R07BkoYkTB/BtQWmEg4FwxHUuFz9+PSpTSNH3CQkARtt18PG+bbrvPc8e8QMqJhZMnCeG1U25umAVnDUQQJ9/daCWtI+VoJB2IlbCVcOKR0JVK2bpRSxOskWpGuxKuI10mUIlyNyEDxSglj/O+MihXN9IUm8nQsRixLltCS6tVpHJ9LGQ2jehrtlKiKns7yQ0rIgNSSlFut/eGHJqNUQck6jqxdSyvvu4/m8/bQE/nHiRN9Ga7yVjpuRLO3XTuTZAQJOsy43ND824TxN+ZInsz3OdqDMTNSXiSsSBgdor7Kzja5pCFtv4QxGURhJGyqo1n68jgg4KMs1W+6dzeR8l5+0NjD5343g59O8NqONm1oLcYf8+dC4o91LE/T2UsIGFL+acYM2lavHq144QWT03vdv/5FP/brF9CTW0oYEzzMUCSM7frbhPvzfWKrowOR8rUSDsRK2Eq4cEjpSqRs3SiliNdJtCJdiVcRr5MoRbgakYHidWJyR/P+0MFnS0KCrxORKNwxxnUnywvDj5A1CyIezO+DfNE+iQh5Il8rRME/KAk/INZDyIJ1772myhrjZwtKW7mIoz3kjp7O9+2Gt9+moxzRnSQ8/h2vYQIEdICCfNE5K18Js7ghYYhMSnhtPhKexhLG+qciYXTMQo/ljSw62TELQvyBI+zVLMm5/BCB7U+qUCGPyQzGGk+99loz2cPE8uVpNJ8HJFXBbFG7PvnEjLs+aZuoHZg61fRyx1hszMiEa7L45pvpu759C5YwH6+bhJHIYxZfK0TLPSNOTGOIntH+8cFWwoFIAVsJWwkHCldDCldDCldDSlciZeuGlK5ECldDytYNKV2JlK0bpRTxOolWpCvxKuJ1EqUIVyMyULwnEeGbCm80n6dFLAVMUyirkvH3kRUraDMX2nMrVzbT/qFaFGkiMQxnKt83S7iQ3oc0iujcJKJgk8SiZ0+axtE2ouCCJnDw545Gpyush8kh9n/xhamWPWldiIcjv8UcLSOyRjtvfsk6/kwJo8oa52gZhn6hF7XzuPl8Hl6yhNbw/6bz92ksn0e0k6N3OX6i4xo+DybGmMDHOoZBWtD/Z+88wKQqz/795fvnSwLIzu6M+WLvighSRSkaa9SUL8WYpomaZteoscSSmFgSU6z0ugvswi4Ly7L0IqiooIBUERWR3nu1P//f7z3nzL77zHN2B0sSzZnruq+Zeec9Zc45c+553srpD5+EtNdD4DnVBpDyasj5af5RwnZZzz8e52n26afLzqeeyqnr1xIeivU/2a6dbJs+PUfCbDX/4oUXuoE9KOJByFuM88jhKinkZCpDGy3gRMKJhHOFa6GFa6GFa6Glq9GyjUNLV6OFa6FlG4eWrkbLNo4DDfH6ZAzpatKGeH2KDOFaFBri9UkF8wlzPtrJiKA4RV+OSD8IWvOyIdLKP/5R5uGGzEZVjFZnI/pdfPHFrjsMi6F162rWRbLlrhtQA+edAuZUhnHzCUcSng4JU0aUKmXELlQ5fxBYLA3Rss766bDVNbseTf0XS5hdlJiHsPvQdmO/Ofzl+r59ZfZZZ8k0HHdGzeNwfCbgd8pibPbznQmBzoco515zTRAJ4/s5CRvFy/yjw1bpbLU9GXknH320zMD54RSQrj+z+mOkJcyR0ya3auUae9UZXlOCYvwV998vMzp1kikcEASMPflkGY79LsE+OREnEs5BCziR8L9UwrcoCQ+GhHtCwg8mEm4ILV2NFq6Flm0cWroaLds4KNr6yBjS1aQN8foUGcK1KDTE64MbjKvXTQddlThX8BbeiNXgDnxQkLwhv7VihexCJLcTUSjHeeYUd04K6kaflWSvXjIVN21GekNxYxyayk/ClFg0P/AUSOX1m25y26qznbBYejGEQvm4VsmQ2Ip/sYQ5hnUlvud47BPn93XrVvvN/eNoXMvvvFMWX3KJ2wf2K152992yvrhYds2b56LojRMnykRImRJmMfWKf/zDNdjyH9w2R8Za/cADsviHP5Ql+NOzvmdPeRvnypqwwpcwpzQsxXeawEk88GeK39t/cN1v4xhvGTZM1mKd64cOlY2TJskrf/2rDMOxZkQcDdqh5ZtIOJHwJyPhbpBwP0i4KpFwLFq6Gi3bOLR0NVq4Flq2cWjparRs46Bo6yNjSFeTNsTrU2QI16LQEK8PbjDZaBjbpTQW/fznrg+sdfN2D0bGuDEzOq4vD2/mW3Cz5hSGbgYmbgc32P2RMKXNqQHZN/c5RJUb2YJbS4LF0k8/7YZdnIJr5hmIaqXRIOqfKWFG8GwsxpbgjIZda2a13/zeUWtmlj5w+6w/5n4zL48FI+htzz0nk1u3dn9ixmLfX77+ejecqP7Tw+0zwua6GP261tM8P8xXTyRMCQ/EtVIDob5+3332zExYD4vAuU4+s056dUWFVDdvLgPwXVlHnEg4kbCWbyJhjRauhRauhRauhZauRss2Di1djRauhZZtHFq6Gi3bOCLZxpExpKtJG+L1KTKEa1FoiNcnFUjYRcNFQXclDnvI6I2SiZt3t94HozyIZSsEPOeii1yL6GFYdxluiqW4wQ5JBRKeUY+EKS5O9DAEy1Dcw7AMGxrN+973ZM+iRXXlz4gb8mF3oOfbtJHnsP9xEmbL4fGUMIQRSZj12gu//31TwusgYTaQiiTMblCUMKdajJPwU9gHjmHt/nCAGlyDnO94+8yZgRh1kX09j0jCk1q1cg3i2AiOg3Rs0bMyxTy4/Dtr17p+1/4xcyNmhRIuxrElFTgOz154oezkRBlxf67Cx3t798ra4cOlJpFwjnwTCeeSSDiRcH5o6Wq0bOOgaOsjY0hXkzbE61NkCNei0BCvTyqQsBMx3pdj3VX4rmxEtRAR8ZYJE5yc3MhLDdyYowe7OW3s1Utmn322q+tkgyKKlwIejBs1xcqhJjn9IGcI0hLeOW+eTPNERvFRZpQyx6ZezmhNzUoU1T0vvvJKmYGocfnvf58jYU7B9+odd8g4XJ+ULyU8FM9sGDUXcrckvKakRCYed5zLP5gSbtLERbn8k8ABNLSEt8+aJU9SmDymyEtYAsBhP1+44ALXQG3fihWuBbk7nnF/cMIombJcV1MjYyE7HkP2067BMZ2Hc7NzwQJ5z5iq0C2O/eL+c9jNFXffLRv69avT/YxjR8++4gqpwG9oAM5HPzAIx7fm+OPlVRxf/jlyjbmMdbs/PVjXytJSGYnrhGNJJ8XRuWgBJxL+N5HwPEi4bMhg6dO3pzyUSLhhtHQ1WrgWWrZxaOlqtGzj8IVrkTGkq0kb4vUpMoRrUWiI1ydVK+GsiIuCiHgcrpnpEOUr11/v6gHZzYjz1LrhETdvtqM63qAhsxU33eQiUg5P6aJgrr9pIGFGxGwlTVltfuYZ2Qsp7Vu50rEHN//1Y8fKxJNOco24WPxLkfGZ9cOMoCnvDdXVrutMtBzhlH6rIM1nEaUuxj5TUnvDz/i8A/s/D5LmkI8csrK0USMZgmdGts+fd54bEMPPvwuR7ut//7uMwXFg/kHITwlzcJDJLVrIJkT6eyF+5iV78Idi7ahRMh7fm38aBkLaJYD7z2L1ahzTJ1u2lIW/+IWbfnHn3LlOyCxapmw5FzBfc7xu/jnZNHGivIqIftpZZ8kwLMuZk8gQHLvRRx0lsxC9r8d6uN23uA6cEzefMI7/riVLZE1Zmcy+6CJ5Cvs6+7vfle2zZ8se7ifY+tJL8gz+eJTh/PTDOvsAjgtdhuM7FvnnX3edbOG54YAfON/ZdWM7e7DPG6dMkdk33CDluB/4fYe1fBMJJxL+JCTco2c3KS6BhEclEo5HS1ejZRuHlq5GC9dCyzYOLV2Nlm0cFG19ZAzpatKGeH2KDOFaFBri9UnVlXAkYt7oh2E/ONfwONzwp+LG/GzHjjLnO9+RRZwo4OabZQOiXdeSWomYEdTumTNlASQxCdeda5DF9TYNJMxnRofsRjMFIn6mQwcnVgr/qfbtnYBZ7EqRMQqOIkpfxJw56Rnk5VSBz4HpEO80RKcTIUB2nWLdNqNplwef8ZnSH41r0401TTlCqmWAUS6XeZIzGnn5pyKiHsvhOrGvzE8JD8IzBwXhd5qE/XwK23ya+QHHdqaA+aeDsqaAi7FMCZfj/uP7DMOxrcF1PQn7z2Wfh2Dn/uhHsvCqq2TR1VfL3EsvlRc4bWKXLjIZwq7hPM74vpTvAKyDcAYlnqMRuLbZUnn62WfLHCy36MYbZcG118rsSy6Rp844Q8ZxlDP8RtjyvQq/uQk4HpNxrCZhX8fgu5VjPwbgu/XB9+kFemO97AfM628E7gUT8H2mn3++zLnsMlnwm9/IvGuukRex7qe/9rVgeeTpj++aTGVoowWcSDiRcK5wLbRwLbRwLbR0NVq2cWjparRwLbRs49DS1WjZxnGgIV6fjCFdTdoQr0+RIVyLQkO8PqlcCTsRp4LGWkOxDg7mwVG1RuK7cUpDTubAbjTsprS2R4+cYSVdUeqePbKN0dKFF7quN65IGjdFSthFw00DEVdi/Sxmdl16sA22hKb0tIB9EbPBUyXyVGH/OFoWuyWxNfJwpHFZNuRycwtHeUAVXnPoyXIsz+iX9buDv/QlKQUUcTnShmO9zDcSjOC+cR+5r6GwByLvQDyzWJoipsy5DRZPs+ic23T7jXUxCqaAfZgWyZjfnbKmzEfiGq3GMSIjcXw5PSHrfzkYCucPHohtUb79sXw/QhkjbVBBMHEGJT0cy1XhvIzAb4+vOfgGRV2CPMVcB88r3peF1w67JfVHOgXcG+ujhHuGImbRdDGvDe4D9qWC5w/3hkqsvxzrLsN1UIJ1uBmVCpJ+wlq+iYRzSSScSDg/tHQ1WrZxRLKNI2NIV5M2xOtTZAjXotAQr08qV8Aa3sx5s2d9JIuqK9JBA6FxOP7sy8pJDthPVYuYxdWbRo2SmYj2xiAvo0AKKBIxI2IWTVPOrr6T4DVFawk4IpqsgSIcgnVkoTDDZd3nyOcIX7vxpSExFkNTqpRwJGKmUbYcT9rlZb4oLz4fRAGHEiaMiKN9ib4P3zPdFUMrAUcMAIyQS5CXcnVF9IDTE/qv+VnJAUq+IX1D+uOzAchbDChbH6azmLkv1kHR8pnvXVrToPi5N9J6YR2OAwIJkygq7oP1ULSEETKfOY8w06O5hJMRs3Llm0g4l0TCiYTzQ0tXo2UbRyTbODKGdDVpQ7w+RYZwLQoN8fqkcqVrUhBO2IDXrN9llMbomI2c5nzjG7L9mWdyW+uGrZbXlZa6omzWiTICjIql68C0KD2UbSwUYERcOolk67/2CSWcAyUbitfHl7CPkyrhaw8t4EjCDuR3UKQeFKuDkm1cV75awg7kJf1C0UbS7YO0CEa6Plnx+oQCzgHnxIdRrxZvImEbLeBEwomEc4VroYVroYVroaWr0bKNQ0tXo4VroWUbh5auRss2Dl+4FhlDupq0IV6fIkO4FoWGeH1ShnAtCurOnMRiUoqYxakTjzpKFlx6qexasMC1ENYiZkvm5d26yaSTT3bFz340bNLEEK8PpZoPjQzx+mj5emgB1yvhGLSATQmHRNLVaAHHSZj44v3YJAwoXY2WbyLhXLSAEwknEs4VroUWroUWroWWrkbLNg4tXY0WroWWbRxauhot2zh84VpkDOlq0oZ4fYoM4VoUGuL1SRnCtSjInUM4EjFnUOLEAotvvNG1SPZbLLuWxitWyNYZM+TFyy93DYVYBJ0jXp8mhnh9GhvCtWhkiNfHkG8i4Vy0gBMJJxJOJFyXRMINoWUbh5auRss2jki2cWQM6WrShnh9igzhWhQa4vVJGcK1KMiVsBNxqnaQD7ai5py0bOX83GmnyXMdO7rXT3foIJPbtJFRuL7KsU2zONqniSFen8aGcC0aGeL1MeSbSDgXLeBEwomEEwnXJZFwQ2jZxqGlq9GyjcMXrkXGkK4mbYjXp8gQrkWhIV6flCFci4JcAfsiZqOtCmyPwzSylTMnUxiJ7+paPCONxdDRsJWu0VV9NDHE69PYEK5FI0O8PoZ8EwnnogWcSDiRcCLhuiQSbggt2zi0dDVatnFEso0jY0hXkzbE61NkCNei0BCvTypXuINSQWtYtoTlM8cWZncYLd86IgZssEWikZ2yMJ15muYhYNLEEK9PY0O4Fo0M8foY8k0knCvgx8Fj4IkDAtF+3BJ+DDwcPicSTiRcH4mEEwnnhy9ci4whXU3aEK9PkSFci0JDvD6pugJmf9JHcRO8CTfmn0MW1+JG/yfcXDm0oRZvDk1ru9mY6QcYwrVoYojXp7EhXItGhnh9DPkmEq4LBXw99vcKfPeb8Mz3H6eEea3die3/Guv+PZ75PpFwIuE4EgknEs4PX7gWGUO6mrQhXp8iQ7gWhYZ4fVJ1I2DeGDt/4QuS+e//lhSuy//F82n/8z/uRpojXQ3z1AcFmw9NDPH6NDaEa9HIEK+PId/9lTDF2g3pXYHrA+yhBfxplPBD+Kz15z8vB+I66Iznv+L9xynhB7FMe1xfX8b6T8d192e8p4Qp0z/zc0CZagEnEk4knEi4IbR0NVq2cWjparRwLbRs49DS1WjZxuEL1yJjSFeTNsTrU2QI16LQEK9PqlbCnEmHUQlvuP+Da+uI//f/pANukD+FNDh4Q450NcxTHxRsPjQxxOvT2BCuRSNDvD6GfPdHwhTt40g7H3I6CzyB1581Cf8Fnx2P7/Yl3KPa4ZlS/jglTOl2xDV2MK658774RXkI71ksfT84E1LmH0K+1gJOJJxIOJFwQ2jparRs49DS1WjhWmjZxqGlq9GyjcMXrkXGkK4mbYjXp8gQrkWhIV6fVG0U3B03rR9CJE1wPTYFl0MW9/HmivSBgKMt8YbKmySjFQ7cwGLqqL6Y4xvzBt3tgGB0Jo7IxHpEwvGOfdEOAhx6sQdu6o+DR8BjoFuTYLAKDu+YI18wkBLAfnUFlFBPihA8BrqHcqOo+Plj+C7dQT+85rjPkXz5ui/XgZv+Y+Bx0B0M8ITbP1yWnz8CHgVPAC4XSbY3uBmS+F8cq4MgkT9wfVimV6Nc+fYHlPSjgPv/BHgY/KNRsO+9sM89wCN4/XfwKOB7fsdIvN0Bl/kr+FuUp0kgWkqYMn0Eef4BeBx5XP+G13/lupvUCpjpTPsz+Av4O/MfkCvg+iTM/I+Enz8Qws94bVCwkXx5nfwd+R4ArNbg9XR/+J5R8D/A7VjuSnyXu7n/yP83pF2JfWJpDCPkW5B+H9L/2jSIkBMJJxJOJKyFa6Glq9GyjUNLV6OFa6FlG4eWrkbLNg5fuBYZQ7qatCFenyJDuBaFhnh9UoGEOV7wdbjxHY/o9/O4rsiReH0KohTeMBm1XIUb5Sm4ETP9OHA2BHQzlmGUTBHz5nwB0jogz3WQzY8gpZbI1xLvWZfoS7gY/AHrOw/r5zYZCR3OyBt5r8dyfRoH4yxrCVNMF2CZ9sh7Bbb1NeQ/HssexeJMvL4V2/0F0tvi8yOR1gVpV+I9Ze0mYGgUFB//Gmlcx+H47R3NZfH6dqT1w2eU8R/w+jwsexw+Owh5mO8U5LkO6ZQsZXwr9vNkpLHUgByLvNwu81DQvoQpYO4rP/8ZPj8Xr5mf+8hi3pvw+eVIb43Pj0BaJ6T9gn8QsCyPBeXM79WO+4zPjwFfDY/VE/icIqaAz8WxoSx/jfVdhPwnIT95CJ9RwBTuZViG2zk03H5H5L8R62fjq3wkzIiXzz/FNloh7VDuM2C1Ba8hNrKK/qz9Fu+/ie21YD5si/l47TTD+y7IfxfWw4j3RLz/OvJR0NdgX5rj/f9gmzyuvN64/BVI/1si4RwBJxLebwnPgYQHQcI9IOEHEgk3hJauRgvXQss2Di1djZZtHL5wLTKGdDVpQ7w+RYZwLQoN8fqkAgn3wA3rPNwMi3Cj/G9cV4SvecNkpPIj3HC/gveNcK0WhDBi5g3yRtxoORkAI17eLJlOkRSGEXUz5NES7g9+g3VSAmnkYRE418mbPdPuwmfFhoQpnBZYH/ejKITb+SL2l8tyHzN45jq5H0w7BGk34QbPaJRy/Alu/oxe+fmBYd7GWJ4yvpsCxbZ/gzzZfftc8H2/hDz8Xr+jHJHnQnxXbp/H6v8BbpfLUJZawoyAm+Mz7k+036xz1/vNdO7XFwH/mFyHbTH6/eEXgoib35vHlDQGFPI1yNO9SRD1nohjE6Vz/QcA/smhhB8FF2M9Xw63we/G7TE/9/sWbKdrHhJ+GFyEbfKcRevhOeB6eHxuwnYo4D8hHyXNY3cw9oH7wf2hWNPIdy7WweqPE8JrhnXDjIbPwT6m8PnnvOvwMCz7Y+zfXxMJ5wj4P0/CF0HCXSHhvomE60VLV6NlG4eWrkYL10LLNg4tXY2WbRy+cC0yhnQ1aUO8PkWGcC0KDfH6pAIJsxsSI96v4QYYiZZFgixC/CM4CjfBLyCNz5dCKCy2ptwoC95oXXcT5GNE83mkMS+jHka6VyEvxzTWxdFdccNlVHY1Pr8TN1gKgjdj3qgvwWtGd5aEKRpug/kYXf4ceaMIntFTM+wXo8oL8BnFQC7CfjAafgjbomwpP0qRsr3KkzLF2gN5WFR9GV5fjc9+h3VdHIqC2/wx0lhU/Sfk6Yjt8hhQZr9BPqYxemW9ry/hR5Cf+0VZcz2MhLmP/JMT7Tcj+p8i7WtYP88B9/v/8PpO/lkJjz9lSSEzyqWk+T34p4QRLiV8QnhsmPcwfM666iuwTyzq/yP2I1oP/xjxuF8eypTbOhfr/Afy1Sdhvv8DtsNzy/Vwe1diPZeBaD2UKK+lX2F70R+xS/D5bU2CRl5c17FYjlEwr6/jwrS2+K4srmY+Cpnr5x+JX2F7tyKNUbLfSEvLN5FwLlrAiYQTCScSJhlDupq0IV6fIkO4FoWGeH1StQ2zODPOD74U1AkzUqF8OWPOb3EDZDTCG+y3WfwZFjXyps2bJ+vtWCfI4sxIwqzPY2TFukPO2uNmCfIkzFmCnsAyv0Gen2Cd/4d1seiY66OA+J7Fp3ES5g2aRbJ/YfQGKCvun5MklmXavVgvo0uuj42nWCR8G9IoTEZjJ2D5byKd4v3K54KotA3WzTpiQkFTuP+Hz7sgPdq3b1HU/G6A62UaJf63LwUtpCld3TArkjC3y6Lz+5kGvhkKl8f8B9hvpt2NvNxvbo9Fzr/EvkSRJvOzzpj1whQs8zBSvxfvGe1GEmZ0yioB1g/zOLOO+Aa853oofMr/fGzvnP8JWibzeLLagJFufRLmeb6uUSBXrocy5R83Vk1E62FpyB+RjxKmRCnhn+H175DGdXBd3D6lSun6EmY9MflqeG3xOvp9KF8KNmmYlUg4kXAi4YbxhWuRMaSrSRvi9SkyhGtRaIjXJ1Ur4d64abHYmULgzY83SA7YcQ1u5AV4z5vpL/B5X+RjPXCUtxCf3YY8bKhDCTMy5I2YUvan6POjYIrhfNx0XTEsYFTHxk2MCp3ocBPuWY+EeYOmMClb1pkygqSAKYffQlpsoEXxsT6X62PEzEZTVyMfo3wWc/L78HNuOyrCZp3r/chDuVKsTDs4zBft2zdCCbMhGKPtSML/+FJ86+hIwizSZn1s1PDqJ+F+U1a/wX6zgRYFyz8F/I78Y8I/Fdxn7u9leN2NYgWMhnn83bJYPxtaUcI8/jxGlHLUIpqlDqxj5jqi785jT1yxNJ4ZpTYk4fvw/nJsK1oP953d2LgeV8yOZ5aMMBJm0XJUgsL6/jY43/xzx/P9HezLX2MkzBbTZ+Jz9wcDee/lnz4l4ETCiYQ/koRLywZJ7z495C8PPSAnJRKuHy1djRauhZZtHFq6Gi3bOHzhWmQM6WrShnh9igzhWhQa4vVJ1S9hjpjFCCaKhFkX2L1p0AKWjbAoIBetIM+joYSZxq5NjIKtLkpsFc2BHxg5URi8ud+I7UaRWj4SZp5TsRyjUUqYcqIQKAJXn4w01sNSoJGEWY/L1syuDpnLYz0sir4JaeQG8FtwHaND5sHvqy328Ua8vwFE++ZLmFF0JOG/cruhdGMl/LmggVck4Uu9/b4defhd2PKZf0iiSPjqMHp3JRHYj6gFNYu0mYcSvQPLsqUzJRwJk1Fw1EWJkfC1yENhU4r8nMXULJImLFKOBuOoT8KMhK9uFES4XE9bpLEomq2byS8B2whErZwpW34/Spv1wicj/7eRn9cWW05bEv4LOCuUMK+te/A+kisbZv0Fyz1syDeRcC5awJ8FCX8fEu7eo6sMKO4r1YmE60FLV6NlG4eWrkYL10LLNg4tXY2WbRy+cC0yhnQ1aUO8PkWGcC0KDfH6pOqXMOuK/4GbXhTRsC6RxZFsKX10mHYMnh/mTfWAWgm7AT4oXUPCnPv2mlAI3Nb3ICK2lI4iu3wlfFqMhFmca0mY0nwQN3fWlX4Bvx1KkVL+G9L+DG7F63vBr7Hv0b59F8v9Hmnf+3xQJ+xLmHXMFyNvFI1ei3wPYpsULhuBWRLm8nESpki1hM/Gtvh9WBfMfXZ1sNhXFlEzjcXbPA+MgtntiJ9zG+2VhHksf4/1soUyl2FxMKXMemKms+j6buRvqGEW39+FfGwPEK2HEmc9MZdny2Y2tmJ1BYXKVs48PmwJTUHfwnz4POoPbEmYn7FFNf90sATgCizzO6SRS7COb+Ezdlv6uyHgRMKJhP/LeiQSNtCyjUNLV6OFa6FlG4eWrkbLNg5fuBYZQ7qatCFenyJDuBaFhnh9UvVLmMNYsl6YjbFY7MgbPIXjWvZ+LqgP5md9mtY2zGpIwqwPfhA3VrakpcQpILbm5bq4bd58KeH66oR9CbMPbT4Spjh7Ie37eM16VFfc+bmgbvlQPLOulg2xKGK3b/h9Mfp1+/a5QMrct0jC7H/Mom8eFxZV85gwL1tfU9Afh4RZZ8t67x99IWjVHB1/yonHn/vPz3hcooZZloQJuzB9G3mj+mZG0GyoFXUPY1VDQ5Ewi6v/Dnh+uLy1HnYlYjclXj/Hfj5oI8DjxtIUnmOK+wIcN5aesO5YS5jLXo19ZVE0l3Wtq/87GFGLy7P64xwsz9G0tIATCScS/i/rkUjYQMs2Di1djRauhZZtHFq6Gi3bOHzhWmQM6WrShnh9igzhWhQa4vVJ1UqYdb0cL5otX9namHVzlDAH8mDx889wk2ZxIqXDmyGjYhZFsk8o+wlTupQvu5OwuxP7DVsSJpTCz3AjbY68XB8FyOLtb3whaDFMsTCPljDrQylfRrPsx+tkiDRGh4wM2ff2j9inEqSxIdZJeM+838N+sX8v+wkz/ad4z/2n2AjrYNmH9y5slwN3/Ayfu337XCBn1hF//fNBv+EfhpKNRsyilCltCpENldhFSQ/YwfpoFn8zEj0H+dmCuif28VfYFpflH4F7QglzAA9um3nZ4OyxxsEgHaw/Zkto7i+3xeN0CZZ/OJQtpct+1lzubCxH6foS5p8a1hOzdTWXpeSiATF4Xm9ulNtFicNUUuiMfM/EOv/WJOgn/CCeL8a2+X25jmg9bNzF4mgOwnEDnvl5FNFSnlE3NAr5u1j+HqyH8mVR9RlfCIatjEbMYhcmXkusR6bk2Y+YpS4U8ndwrFgsrQWcSDiR8H9Zj0TCBlq2cWjparRwLbRs49DS1WjZxuEL1yJjSFeTNsTrU2QI16LQEK9PqlbClC2j4WhELA5jmf0M6Yx2mc46O8J8ruVzQe2IWbyJs0EWb9R8HydhNs6iIB4FD+BmzRGzWGRKHsd7NlDi6Fhawkxzo2E1CupkByLfIMoGMM11DwrTKEkKlwKkNDnUZDRiVh/mxU39L7jx3wce+mIwIhZHyuLwlOwrzFGyHsBnD+OZ3ZZINOIVxZodOxqwPpjdkx4Ot+ULmLB4mvvxd0Bx848Dh6XkKFis3yX8ztHoWBQxI+JosA6m8Q8I8/FPBmEDrq787k1qR8xiVyWKlmLmez1sJdModdYfswqAXcPuBYxwWZLBP06+hKOBOVgXTCHzj1Y0Yhb7CzP9HqzrdvB7wEiWkzBQpu0gV0qXDb44QcPNyMs/bSw+p4iZzmg5Gk0rErA/djTrg9ll6V5+jvdsKc3uStGY0lrAiYQTCf+X9UgkbKBlG4eWrkYL10LLNg4tXY2WbRy+cC0yhnQ1aUO8PkWGcC0KDfH6pGpFWy+haAmla05tqKWrOaBWwj4snq6T1iRXvnVobIwTbdHIGC/a50u1Y0Lz2Ro7usR7rceO9seQpmj/WRM4UMqRmD/K2NH8w8PhLPkcN3Y00XMJ67GjKWT++eJzNFwl5coolkXjnSFjdnNjAz9KmEXtLNpnNyT+matvPmG2gqZM/RbR0Xst30TCuWgBJxJOJJxImGQM6WrShnh9igzhWhQa4vVJGcK1KDCkq9HS1RyQK2CTJoZ4fRobwrVoZIjXR4nXknB9Ezj4ErbQAv64JPzPnMAhHwlbEziwcdXpkC+LnaPZuNiNiUXgHA2LbQduxf4zaq5PwslUhomEffZLwpdf/rNftmvT8o9twG233/xuIuFEwomEDeFaNDHE69PYEK5FI0O8PoZ8EwnnogWcj4QpUw728mMcM7YToHTZd5yvv8UehOkAAIAASURBVP/FL8qdjYNuTFrAiYQTCdfHfkn4yit/Ia+++oosXfqq3HnXbS5DIuFEwomE86CJIV6fxoZwLRoZ4vUx5JtIOBct4HwkHImYLZ1Z5BzNmsTXnFWJotXyTSScSLgh9kvCN910vSxYMM+RSNhAyzYOLV2NFq6Flm0cWroaLds4fOFaZAzpatKGeH2KDOFaFBri9UkZwrUoMKSr8YVrcYAhXIsmhnh9GhvCtWhkiNfHkG8i4Vy0gPOVsI+eSziaT9gikXAi4Tj2S8I///nP5Cc/+ZHjtttuTiSs0bKNQ0tXo4VroWUbh5auRss2Dl+4FhlDupq0IV6fIkO4FoWGeH1ShnAtCgzpapoa4vU5wBCuRRNDvD6NDeFaNDLE62PIN5FwLlrAiYQTCX8qJHzFFT+Vb3/nW45bb7spkbBGyzYOLV2NFq6Flm0cWroaLds4fOFaZAzpatKGeH2KDOFaFBri9UkZwrUoMKSraWqI1+cAQ7gWTQzx+jQ2hGvRyBCvjyHfRMK5aAEnEk4k/KmQ8DVX/0ruu/+PjtvvuCWRsEbLNg4tXY0WroWWbRxauhot2zh84VpkDOlq0oZ4fYoM4VoUGuL1SRnCtSgwpKtpaojX5wBDuBZNDPH6NDaEa9HIEK+PId9EwrloAScSTiT8qZDwTb+5XqqrRzju+N2tiYQ1WrZxaOlqtHAttGzj0NLVaNnG4QvXImNIN588PmlDzBZFhph9Cg0xW6QMMWsKDDH7NDXEbHGAIWafJoaYLRobYvZpZIg5hAN6aJx0sZyGo3NZcOhMTVa82D+f/jH0M/DFy3maI/rE0FtB4eaA494zhh4GnMTDohvOs0VXgydicPLF9RTxWERBIuFEwvsh4dtvv0VefW2x4867bk8krNGyjUNLV6OFa6FlG4eWrkbLNg5fphYZQ6r55PFJG8K1KDLE61NoCNciZUhXU2CI1wd5Srkuvm5qyDfiAEO8Pk0M4Vo0NsTrY8g3kXAuWsCJhBMJfzokfMct8vrSJY5cCQ+EhLtDwvcnEm4ILV2NFq6Flm0cWroaLds4fJlaZAyp5pPHJ20I16LIEK9PoSFci5QhXU1Brngp3TLsbxn2ZQiOYQWuDT47GTc1BEwOMMTr08QQrkVjQ7w+hnw/ExLGMeyH49sPx7wfznEfnBvO/5xIOBct30TCuWj5/ntI+AlIuA8kPCKRcCxauhot2zi0dDVauBZatnFo6Wq0bOPwZWqRMaSaTx6ftCFciyJDvD6FhnAtUoZ0NQVexIt1U77lONdVJ50kFbhuKF4yBMcoep8jYKKlq2liCNeisSFeH0O+nwUJU7ylxx8v5a1bydAWLaQEx7ovroW+ON6UcY6ASdNc+SYSTiT86Zbw7ZDw60sciYQNtGzj0NLVaOFaaNnGoaWr0bKNw5epRcaQaj55fNKGcC2KDPH6FBrCtUgZ0tUUBAJmpDvsqKMcQ/BdGAVnhYsbfhm2W3nssU7UOQIO89RLE0O4Fo0N8foY8v3USxjHrz+Od39cI3xmREz5luA3N+iYY5yMKdxEwomE/yMk/BoETBIJG2jZxqGlq9HCtdCyjUNLV6NlG0ck0jgyhlTzyeOTNoRrUWSI16fQEK5FypCuglIdguM44sQTnXxz6n9DiTJ9OCK1RMKfgIT5Guei5JCDpW9B02zraM4JzeLpgfhj1AfHPZFwIuH/WAnPnQcJlw6UXr27y5//AgmflEi4XrR0NVq4Flq2cWjparRs44hEGkfGkGo+eXzShnAtigzx+hQawrVI5Uq3joAzQdFzBa6hMu5/gdH4KpQoJVyOc1vKZXUeL18sTQzhWjQ2xOtjyPezIuGBhx/m5oeu00WJn+Ga6I/fBKesTCScK99Ewrlo+f7LJfx9SLj7E9J/QB8ZWd2ghF9xJBI20LKNQ0tXo4VroWUbh5auRss2jkikcWQMqeaTxydtCNeiyBCvT6EhXItUrngd+IzSLcc5zxY7FxgCJhQoPhuKY80i6ZzP/Xz10cQQrkVjQ7w+hnw/CxJmkTRFnCPhJkFEPAC/v974PJFwrnwTCeei5ZtIOJdEwg2hZRuHlq5GyzaOSKRxZAyp5pPHJ20I16LIEK9PoSFci1S8gFn3y0ZYsfL1oHyH8lhyeePzRMIfg4T5HueiGL+PvjiedQbr4Oc49v1wvdeJhpvmyjeRcCLhRML5kUi4IbRs49DS1WjZxhGJNI6MIdV88vikDeFaFBni9Sk0hGuRypUwi6Czxc9Ma2oI1YMCrjzmGBcx688SCdtoAe+PhEvw++Fz38JU0D2pSRgN43yW4b5Tp264aa58EwknEv70S/i1VxyJhA20bOPQ0tVo4Vpo2cahpavRso0jEmkcGUOq+eTxSRvCtSgyxOtTaAjXIpUbBbMVdFbABQ1EwficEXBeEbOWrqaJIVyLxoZ4fQz5fmYkjHMyEL/nAV8+UIZ3aCX90kW10TCOcU69cNNc+SYSTiScSDg/Egk3hJZtHFq6Gi3bOCKRxpExpJpPHp+0IVyLIkO8PoWGcC1SdSXsBuDgd+VnBWH/4KaGUENcYyycr9jGWD5aupomhnAtGhvi9THk+1mS8CD85suOPUpm3fFrGXj4IUHDLEbFOMauTrip11Wpaa58EwknEv7US/hVCJgkEjbQso1DS1ejhWuhZRuHlq5GyzYOX6YWGUOq+eTxSRvCtSgyxOtTaAjXIuUVQ2O9bAntuhgVeCNkNTWESvBZtsuS/sxCS1fTxBCuRWNDvD6GfD9LEi47/jgZc14XWfiX30LIh7loeFib5tKXUTHOSSLhXPkmEs5FyzeRcC6JhBtCyzYOLV2Nlm0ckUjjyBhSzSePT9oQrkWRIV6fQkO4FqnaYmgWQbM/cLYYOqKpIdSmQRTMout86o0TCX88EuYgHSNOayevPHqnvNr9Xik95ggZ2vxYmfyDC6T/V76cSDhEyzeRcC5avomEc0kk3BBatnFo6Wq0bOOIRBpHxpBqPnl80oZwLYoM8foUGsK1SNVGwcOixlUFnoDxWdmBGfeaRc7lhxwE+QaS5jCVeUfBREtX08QQrkVjQ7w+hnw/KxIegHMx6XsXyorBf5Wlfe9z9cIv3XONzLr9V1J86EGuhXQi4Vz5JhLORcv30yXhV19xJBI20LKNQ0tXo4VroWUbh5auRss2Dl+mFhlDqvnk8UkbwrUoMsTrU2gI1yIV1gVj36patKhtYBUy9Cv/KxPP6YTnL0vlkYfJ7Bsvk1GtmkPWRTKU54DraGoI10JLV9PEEK5FY0O8PoZ8PxMSxjEcdPihMuu2X8vqyidk+aC/yjO//IEsG/CgzH/gNzIQ56fkyMPr9hVumivfRMKJhBMJ50ci4YbQso1DS1ejZRtHJNI4MoZU88njkzaEa1FkiNen0BCuRSqMhIuCiRnqFEXj9YgTjpGFf7hOqls2k/Gnt5c3+9wvL99/k1QefYQMifI3NYRroaWraWII16KxIV4fQ771SrhxroD/HSXMCRxGnn6aLCt+SNaP7StrR3aVFaV/g5Afk0UP3SqDjz1KhrRMuiglEk4knEg4H7R0NVq4Flq2cWjparRs4/BlapExpJpPHp+0IVyLIkO8PoWGcC1SQX0w+wZno+JMOhAz0ke1OUmWdvuDzLruUpl3+69kTcWjsmLAX2Rsp/Yy5MsHfiolzDxl+G4VuM6G4bqvOOJwKT/0EBnyv19232cgtvHvJuG+EM+QE46VOfdcJxsnDZb1Y3rL2lHdZG11N1ld9bi8/PfbpazZsdIP5yQpjs6VbyLhXLR8P2USXuxIJGygZRuHlq5GC9dCyzYOLV2Nlm0ckUjjyBhSzSePT9oQrkWRIV6fQkO4FqlAwqzf5esh/3ugjOvSHlI62NUFTzy7k6wseUjWDH1YVoP1I7s7Eb943WVScfhh/zQJl2L5odhHSnP40UfLiOOOlarjj3fwNdOGHXaoDMU+M68pY8oX+8v8U775DZn3h3tkSdfHwKMy79675dlfXC7jvnqGG3ikFMeYMtYC/ldImAJmMfS0yy6CcHvIlmcqIOFekHB3WQfWVD0hix/5nYw84xTpk1aTODTNlW8i4UTCiYTzI5FwQ2jZxqGlq9GyjcOXqUXGkGo+eXzShnAtigzx+hQawrVIhS2jQwlXHnW4vHzfb2Tqt891r5//+fedfDeM6iEbEH1tGN1L1o3oKq88dLuMQGT2SUu4tKCplB/0FUTkreXZKy6TJU88KqtGDpMNUyfLJvzuNj0zVTZOmyyrqobJK4/+Q6b/7FIZ17mTjGx2glTimi7H92Kx+VBEucOPOkomnncupPu4W277SzNlx9yZsv3Fp2XL9AmyccooWVNTLosf/rNM/vr5MuzoI2UQvl9Jk7oy1gL+JCXcj43gjj5Cpvz42/Lm4Idl24yRsnHiAFlXEwiYIl5ThfPx+N0yonN76VNUmEg4lSvfRMK5aPl+qiS8BAImiYQNtGzj0NLVaOFaaNnGoaWr0bKNw5epRcaQaj55fNKGcC2KDPH6FBrCtUiFEsa22Thr+LFHybIef3QiHtX6JFnw+2tlbeXjsqGmp2wa31+2PDkYr3vJm/0elAlndwlG1mpqCNdCS1fTxBMw3lOe1Se3lJnXXgXxVsq2WTNl1ysLZM/ri2XvG6/K3mWvhbwqu5G28+X5sm3OC07Oq0cNd8J+4YZrZfrlP5UXrrtWljz+iKyfPB755snu1xbJtucn4jsNlo1jimVjDRngWDe8N77f32XO7dfL6I6nuG5bA7E//0wJ94NoinHNVbY9WZ6//jJZXgoBz6yWHbNGy/qxvSHgbrWR8PDHZf79v5HSE45JZlEK0fJNJJyLlu+nS8JLFjtyJVwCCXeDhO9LJNwQWroaLVwLLds4tHQ1WrZxUDj1kTGkmk8en7QhXIsiQ7w+hYZwLVJhPTC+X3W7tlLdqrks7/+grBjwZ3nyW+fI0ifukfWItBgJb5rQX3a+UCObJxXLOoh5wd3XysgWzaQU0VeOcC20dDVNoui3wBU7T/nWN2Vp/96yddYMJ1kn3DctXq37HlKmqHctXiDb582WbS+9gOdZeD9f9ix9xeXZ88YS2Tn3Odk0bpCsH4kIn1TVPq8b0UtWl3eT15/4kzxz6Q9k+InN3HFlVKwF/LFKGMdhQLpIhhx7tEz49oWIyu+U1cO7OgHvnDteNuNP0Hqci7XV3WRdyJsDH5IJ3/laUB/sCziRcA6JhP+dJfw9SPhxSLg3JDw8kXAsWroaLds4tHQ1WrgWWrZxaOlqtGzjONAQr0/GkGo+eXzShnAtigzx+hQawrVIha2jse2qFifJhLM6ykrc1Nciunrtkd/JqsF/c/XATsKIhHe9NEF2zR4LIQ+Q1UMeljm3/EKqW54YNOYqiB/Yo46E8ZqiZcMvN9wll+N7wHrf6pYtEbleI+smjnWRL6WaK96Pzp6lL8uOOU/LxnEDA/kqKOd1I3rKikGPyYIHfi/jzj5TynDdleA7fNwS7o9jUgyJcjjKMed+Vebec728yVbQo3vL9pkjZdf8SbLzpfGyYVxfF/1GrBmBKPjBm2XISSfkRsGJhHNIJPwZkfDixYsciYQNtGzj0NLVaOFaaNnGoaWr0bKNw5epRcaQaj55fNKGcC2KDPH6FBrCtUgFEuZrthJ+6gfflFVl/4B0cZOHiCna9SO7OQlvHN9Pds2dIHvmT5GdL452UubnC39/vYw//VREr4fGDt5BwXKIy8qjjpSqE0+UmvbtZGyXzjLm1A5S3boVIvBWMqZjR0Sdl8jrfRH9vjgD0ewrtdFvtuiZhFLms89+p0HErwciZrF0NiJ29MJ7UAWq+8j6MaWyomKwPI39qzj2GBmIY1bcpDYq/rAS7o/jMuigr8iwFs1kyo++LQsfukOWFf8Zcu0qG/FHZ8eLNbIbAt69YDL2c2xQFF3TA3IOGma9gbxjv3muHQUnEs4hkfBnQMI33nitlJUNdtzxu98mEtZo2cahpavRwrXQso1DS1ejZRtHJNI4MoZU88njkzaEa1FkiNen0BCuRSqUcCoYsGP8mZ1lWa8/QTzdXD2we2ajLNzwXSRMCS+YAiYHIh7Xz8n6zT73yewbL5fR7Vo5GbO7D1tcl+NcVx59NCR7sky7+PvyarfHEeGOk03PPiVbZkyXzc89I5umT3Nsfv4Z2Tb7BUS/C+vW+b75uuxdvtTjdU/MSrD5pkURMUW8dLHsnD8T0X0Zvmc/J2Mn4EjCeL9pfJnsXDhbNj79pMy7714Zc8bpkPGxMgTfbxDOWwmOXzFkRQZAfrES5ufIW8KSg0MPlhFtW8rz114qSx6/R5aX/l3W8g/PuD6ydfow2TlnHAQ8GQKe4tj50jjXKGvjxGLZ8vRQWYXjPut3V8ngo490kzfkCDiRcA6JhD8DEv71r38u1157teO222+uI+HBkHDPXt3kwT8nEm4QLV2NFq6Flm0cWroaLds4DjTE65MxpJpPHp+0IVyLIkO8PoWGcC1StRLm+2GIhmf8+scuwt3EG/7YPrKhmhLuKZsnlcjueRNDCYP5FHENBNUPkWM3WVP+sCzr+SeZf9e18vRPLpanf/wjmfXbmxHZ9pJ1k8Yhun3e1dPuWbrESXbXkkWyc9HcoL43km4kV8h238pl8tbq5fL2+tXyzub18u62zY53Nm+Qt5C2b/Wbsm/FG3WLmU3Rhu8hb7fOVcvlrbWrwErZt4rrgNiXLZHdr8yVbTMmQcZD8L0HyoYxJY6N40tl+8zJrvh6zxuvyI6FL8mGp6bIsrKBMvdP98pUfM+x55wtoxDJj2jTWoYh0h9y5BEyCNdWCc5pCc77QPapPuQgKT/hWBl5aluZ/N3z5aU7r5Kl+MOzuvJxRLY9ZeOkYtn6bKWT7a75E2X3wskhUwIWTHL1wjtm1cj6cf1l8aN3yfAObaQvzhtnUsoRcCLhHBIJ/3tLuFv3x6Vf/95SNbKuhO/3Jfyzn/5Y2rdv6/jtrb9JJKzRso1DS1ejhWuhZRuHlq5GyzaOSKRxZAyp5pPHJ20I16LIEK9PoSFci5Qn4VQwctbIlifKy/fdjCi4l2ybXuEiYLJ9RpWLzLISjiLiWaGIR3VH1NjVLbf5uSmIamfI9vlzINuFsieKSCHb3a8tlh0L5sjacdWyduzIsN43iHgp1X0Q77vbtsj7+/bKB++8Ix+8927Iex54/87b8t6e3YGQVy2DYN+ojZIJX0Owbp2Q7TtbNsp7+/a45T549x3H+2+/Je/u3C771qxAvmVO1nteW+SEvOvlOY7dS+a5aLk2qg4adu1+9WUn5K2zZ8rmGc8imn9K1k+dJKvHjpIlPbvJs1dfKU/++Icy9ZKfyFOX/UTm3H6VvPrYXbKs3/2yYvDfZB3+3GyZNgTir3LFzqzz3TXPly+j4JDw/a55E2TzU0PltR5/lJrzvir9cU1RwImEEwn/x0j4yit/Iffd90fH7XfckkhYo2Ubh5auRgvXQss2Di1djZZtHJFI48gYUs0nj0/aEK5FkSFen0JDuBapuhImnBlp8oVnyxu97kNUWOyiXRZDOwEvfDIXSGLX7DGyeWKxbBzdS7Y8PVz2vL4okKAjEOIeCHjn4vmy8alJsqqqXFaNrJAtL0x3kbGLUPGje3fXDnmfknz/fZEPPpAGH8hDIb//DmS6a6cT7dsb1rjo+e2Na+UdRM5OvO9yne+Z6+S2Pnj33ayQ3+Y6sOxb61a7aNlBSePPgYucnfCXBVF4KP09hAInS19xRerb5s6SrXNmBsx+XjY/M0Y2IIJlEb9r2cw/LaN7utGvNk0uwTEeXxv1GlDALKZe2udBmfjdC2TAQV8J5hBOJJyDlm8i4Vy0fD81Er7m6l/La68tceiGWYmEEwnnkE8en7QhXIsiQ7w+hYZwLVK5Emb6sCOPkOeu+IGsKntYtkwtk12I0lzk66TLCDgS8BRXRL1zFhtq9QMDED3ODiPRqJg46MfLrkKra4bLiopBsnLEENn8/NOu8ZWLfClfRqcfhPKNyJqy4TQu6yLkdwkj6PcCmUdC18v6z+FrJ2Q/2nYRM6PuIHIOoue35f239jph848Dpez+ZDgRB985el2bhmOw9GXZuXCmbBxfDAl3B12z3YzY6pnF0LXS9YuhJ7soeQsiYI4bPfn735CBhx5SR8CJhBMJ/8dI+NJLf3T397/3nYk//MFFk2+97eb3EwknEq5XsPnk8UkbwrUoMsTrU2gI1yJlSDgVTG04ovkJMvf2K2VtZVfZCgE4ES/0iqLnsyh6ND4bIpvG9pGNNT1ly7TKIApmY6pQQEH0O1lWjRgqy4eUyMpKCPjZqe6zdzZvhNDeqo1SPzW87/bZSfmtffL25g2ydyWLs4PialdkHeKn7UaUvP2lp13Xo3UjuzrY0pkNrRjpZoufyfxJLjre/uIo1xjrjf5/lik//j83hCVnVPIFnEg4kfB/jIT9x+133LI3kXAi4XoFm08en7QhXIsiQ7w+hYZwLVK5Ao7gKFo17VvLq4/cLetH9pCt07yImBHw3ImydWqpK4LeUN1NNo5FNLdgRrYRFOtNWfe7ZkwVot9SCHigK4beMnM6BL1U3tu720WZdeQWRaf7mxY9PmxaQ+tvII3f473du2Qvovo4AUdpuxbPlfVj+gYR8JjesnV6RdAYa95EJ2KKl+8p302TSmQd/ty80f9BefLS78qgIw5zAuakDomEc+WbSDiRcCJhLds4tHQ1WrgWWrZxaOlqtGzjoETrI2NINZ88PmlDuBZFhnh9Cg3hWqRy5evD+mEOT/n64/e4QTu2Thsiu+aMc1Hw7nmTZNuzwwIJj+oumyeXyu5X57sImMXPW2c9J6tHDnPyXTF0kKypGS7b5892da2MHnOE1oDo/t1hETaLqBkRR8LN5VXZuWiOrK7sKmuGPyFbn6mQHS9Uy3aw7fnhshURMVtJbxjLvsm9ZM2IJ+S1HvfKpIsuDCLggkDAiYQTCWsSCScSTiScMaSaTx6ftCFciyJDvD6FhnAtUrnirQPyDPkKRHxWZ3n9sbtlXVU3yLYEIh7rGmqxOJrdmDaO7i3bZox33Xh2v/aybHp2mqwcPlSWQ74shl4/eazsevVleWf7Vle/yuJcU675pEWPjzvNT/+Qafxub29cV9tgK4qIw65Su5YskFWjymX6L34oL9zwM3mj7/2ytopF0j0DanoEEzNUd5NVQx928wSPOrOjlBz0lWwEnEg4kbAWcCLhRMKJhEnGkGo+eXzShnAtigzx+hQawrVIGeI1YEQ8/qxO8spfbpW1iOA2Tx7ohq9k8fTmiQNco6xdL89y/Wi3zZkpa0ZXyaqqCsh3nCuS3rNiqby3e6eLFhuU4T8rzX/+2NLed1F+NhqOGmZBwDsWz5elg4ulqn1b12940EFflsqTm8ncu692wl03ko20ukLKT8iy/g/KCzddIcPbnSz9cV1oAScSTiSsSSScSDiRcMaQaj55fNKGcAk+K8U+lGJ/y/CdyvgMSrFOE+YP4eQMfDblnMoVbg646QUi/rKM7XSKLP7Lb93MSuw7vOOFUa4IlV2ZgqJodtFZ7PoGEzZEYhef998Oi58/zCMUqGv9zNbLDr/PsIKff9htfQwPtvJ2Eg77K7NufNvcF+W1AX1lRNs2MgBS69e4saN/0wOk4oRjZN6918uq8kdkTeVj8lr3P7jBPEqPOtxNZajl+4lIGOeYaPkmEs5FCziRcCLhXOFaaOFaaOFaaOlqtGzj0NLVaOFaaNnGoaWr0bKN40BDvD4ZQ6r55PFJ15UvhToUx3UIjsmwY46RESefLCPbtJFRHTrIqPbtpQrvRzRvLsNPPFGGN2tWywknSOVxx0nlscfKSOSpOProQNw4HqVcd+F+SpikCiD0A2X0qW1l4b03yJqhj7jGWJze0En4tfm1fYPdUJOvOwFzQI2gy5A34EYk0zpdgULYT9iDkSXX8d6uHa7O9d3tW+SdrZvcyFlvb1rvin8D1rvW1vycUTe7EmUjbysS9tP89x8lDd+J/ZKjSHj366+40bVevP1WqWh+ohNw/1DAWRFDlhUnHivz/nCdLHzwJhl7XhcZePBB0hd5OauSlu9HlXAvnNM+uJ5749rqiWugJ95H9CA4191BT1yPPXGt8LWWbyLhRMKJhBMJ58o2Di1djZZtHJRofWQMqeaTxyftRb7Yt4qjjpLxX/uak+yw44+XEbiuKNUJZ54pT15woUy98EJ5klxALgg4/wKZgmUmIs+oVq2cpCuxLKU86tRTpRznkeNEu+i4MA8RF4QSDuGMSdUnN5f5d10tq0qDyR42jusPCS8I+wWHEnZ9hZe6AS7eWrPSCdMNPbljG2QKtm91g2m8vRkiXb/KDVG5b6U3GEb0HA6MEQyOEYwd7Yp6ly5xUxZyBC6OXuXAaw4Ksnd5OEoWtkmR58jzE4DCp4D3rV4RtILGvqwaXS1jzz0H1/zBbkxpClhLmHA86fLjj5YhxxzhpjKMBPxxSJjS7Y2bfG9cV71w/vriNzGsc2cp79hR+uB1T6RFRALuxWsD185AXG+UcSTd7rheumNdDrzuinUnEk4knEhYC9dCC9dCC9dCS1ejZRuHlq5GC9dCyzYOLV2Nlm0ckUjjyBhSzSePTzoQMCPWSkazgOKlSGsQ+U4651wn3Wnf+KY89a3/U3yr9vU3v+XyTKWUv3a+TDjjqzKqdRupwroYUTNaHgYpu6Jq3AByxOtTUFfCbtpBLFPV7DiZeeUl8mbfByDhklDC0ShZ3vCR2bRoAgbKFGSlujTIk23ApAnmB969ZJEbiWrHgpdk66znZdP0qbLhyfGybkJNdgjMdRNGy1aOwsXxqLEuCpzSb7AuWkt1P9PYRckNfxl2UWIEvGb8GBnVuZOU4CYdyTdHwpzUAbLk+NIDkK8fXkfzCn9UCffGueuL9fbDb2UQrqNBOOeUMUXcB+kuEsbrOnXCWM7BqBnXYk/kd8XRBOvrjXX1O/po6Yv7RR/cD7ojD+mGfJGQtXwTCScSbohEwomE8+NAQ7w+GUOq+eTxwY+IETCjXkqSEWxVy5aQ7zlBxPv1b+D56y7aDSLe87PP0eup+NxJGiKOCIR8oUw591zIuLWMwA2ZRdXDQAWuD0bGsVFxQa6EnYiRf9jhh8nkC86RN0sHyObnnpLNM54B090z+wNz0oZtc15wYyybsyNp4YYS5khaLrLlJA8vz3PCXTduFEQL2Y6pcg2/1owaLqurK103qNXVAWtGj5AtMzgSVyBhjh3NoSxZ5J2VpiXTj4DrmgTR711V2zVpK77zU5ddKgNxXLWAIwlHMyoRvnbSpYA/ooSdfHEdleDeUN6uXSBc3OQjAZOeyNfDICthhZMwJY11u2iY8DXWOQDXaF9sqzuu325I1/JNJJxIuCE+tIRvu/2WdxIJJxKuV7D55FH5h+JcUI6Mghn9OrlCwJPOPkdG4abqiqYRzVKe5YceJkMPPsTVGbtpA486ykl2fJcuMhn5GQVHwmbRdSTjyWef7YqqWXfsImNE2kOxfCl+xPlK2IHPOWXhqDatZezpXWRMx9Nk9KkdHJwvePI3LpTpl18mL939O1la3NdNWbjz5fmuv2y22DoUsJsU4TVEu4vnQ97PIcqdkI1w2cfYydYTrsOlVQSvR1XKhinjgwkhsK4gEn5D3tuzq3boSl/CH8fjg/fDQTredNtjBMzGaFuw/+MvvMCMgjmlIcU7ENdwFP0yIs4K+ENKuDfOR19cQyX8veO89sNrvo/qgvvgdX9sk1DEWsD5SFjDyNcVTXNbuBf1xj2ia6Et4kTCiYTjaFDC9//h7v+yHkkkbKBlG4eWrkYL10LLNg4tXY2WbRyRSOPI2FJtMI+Hi4JxA2Vxcc0pp7i63cnnnucmvaeYXcMqriftdVMqrG3tTIkyqnVz+eI4ci5f1gVTtjVt2kDkZ0PI58u0r39dpkLME7/6VRkBqTMqHo6IpgLXgasrTuUpYYKbMaNidmNyETa2yfXwT8Iw/CkYju1XQfL8DhPOPUfeGNjftZyOBOwmPEDEu33eLFk3cXQg3dGQ7ihfuBRthJ3GYumdi+cJpyWMpjLkxAt16oSz8gxff8Q0NiRj4zO2hOYAJZwTefMLz8rWl16QF357kwzC+dISHoBjNgjnhiKOBPyRJEzB4vj3x7bKWrZ04uX7qE64d1FaBuA3NwznvwTnpTc+y4mEm9ZtJe1IhQ21QJ0I2INF1CSScU9cA91x7T2BtETCuQJOJGxTK+HHQglX5hcJ15Xw7FDCXRMJ54OWrkYL10LLNg4tXY2WbRyUX31kcqWaVx4vL1tCM9JlBDwRwhzfubNUIlJ13ZGYpyhXvCapUKDIy+WG4piykRdFy3ph1hG7Yuuvf8NF2BQkP3MixjVVp3i6wBCvD27eDrweguUo4WFYxzBKGFDIfK5EGqPjlZVD3YAeFDDluwXScvIdU1U3yt0PWBe8Y/7soFHWm4GAOT3he3v3fHxRr35gva4hVtgdaSf+WKyuGSErEZ1vwx+KNRPHSsWJzVzkmxUwhDcQ15IfAX8kCeO498MxH4hzS9GyGDoqlqaIiw+mfNvKiA6nykAcfyfgMDLONshCGhti9cE11ge/q75YTz/81n1YB2zRB/RGflcnXBCIuC/2pSueEwnnCjiRsE1dCfdKJFwvWroaLds4tHQ1WrgWWrZxaOlqtGzjoJjqI2OLtcE8IYyCWQfMRliUIiPYIfiedeQbUWiI1yelipQLgyiZ62OEOuKEZq7Img23GBU/ed55MqZDB6Sf4KLXYezSxP3lsgWGeH0iCYciHopjrkXM16MQiS36+0OIeOc4WbLYeP2UcW5saSfTqFiZzz46LZJv+JoRMIfDZGvpYNzqpS4CDgSc56xM/vs809gY6+1N64JiaPYFhnhXVA6RN4eUyFrs06bnn5YpP/y+lOC4ZyWMY1ScqhsBfygJYz19cR30x3U5pEULV/TM4mhXJ4zn/riWypFegz9bI/FHbgB+mxSwqxPGM+uJ++F32B+/aQd+/5Qtn/vjfJF+TAvf98P5c/C1974vXvfCNeWiYewT64T7JBJOJLyfJBJOJJwflFJ9ZHLFmleeENbrjmzd2jXKGopj7Yqdi4zRsEihIV6flJJwRGGtjFkEPeaUDk7AjIinnn++jO/USapYpMw6Z1xb2aLpAkO+Eb6EQRnWz4jayZwCBnz/7M+vkM3PT4eAg4ZXrPdl0bNrXKVFmwdshMXW0TsXzg0F/Jrr1sT+w5wbuM4Uhp8ALOZ20xgu41SNL8vGZ6bIm+WDZFlpMWRcJptmPCNLBw2QIUcdGUgYgmRDLTdYhxLw/ki4L445R9EqxTEdgOubMvaj4iFIrzn9dBl7zjkyEuezmAJGnr641vvjtzcA19YA/N4H4Lw46Ya49xRsKN9IwC7NxxNyb6yb4qWAnYS5HVw73XANJBLOFXAiYZtEwomE84NSrI9MrljzyhPmcw2yEP1yYA2OjpUjXp9CQ7w+KUPAPshTWpR29bgjEXlPOutsmXbh12XaBRfKpDPPciKmhJ2I8cPOEa+PljC+D6NeJ/LDg7rh0R1OQcRb7eTrGmIhEmbLZ7aodkXRbIDFVs+kZkTQ8nlUKGc+471Lh3iZj8tsmz0D61joJLhvxdJgYJB9e2tnZooevjzrS/PT80hzEl75hiv+Zh33KvwxWFY6QJaVFcsyTtmIfV8zYYxUtmzhBOyKov/3yx9ewlwO557iHYxrhNFvNKVhX5zPEvz+RnXpImPPPVfG4Y9VdSjg/vg99ccz5VuMcxHhyzdCyzcrZT5H8g0F3AfrdH2FQwGTHriOSzt0COqFCxIJawEnErZJJJxIOD8ONMTrk7Hl2mCeTDAkZTkbNEFcfC7D92M98OC01wDLp9AQr0/KEG8MlGwFzu24jh1da2rWFU/ocnpQNI19Kcd5ZcOrHPlG+BLGe4qd9c5sqe3qg3GNTjj7LNkyY3psVyRKjN2Ytr0003VtYpekjdMmuRbSG6ZOkI1PTXLCpnh3LpqLZRa5Bl2u7nf1ctdH9302wPKjX0+Y9aZ9SLISxvfY+coCF/06CYcsrxgsa8bXyNRLfiwDcY4HND0A1/ZBH0rCHLxjAK6RMkS5xbg2+uF8UL6UMNMrW7eW0WedJeMvuMBJeET7U2QQ64kPC6NeAz8KjvCj4DpQwsDVBWOdvfEbZf2vL2AnYV7P7dtLd1zriYRzBZxI2CaRcIQWroWWrkbLNg4tXY0WroWWbRxauhot2zgikcaRyZVrXnkygYQp4Iqw724lIlEWTQ89/AhbxoWGeH1SubI1KQhFmgomaag+qUXYtelrMva001wxMout+Vmd/D6egBkFu6Jo1gkfETbKwjU67vTTZe34MbJz8YKw8VTYT9iD3ZbYTYlyZUtjx2vBrEx8zXR+7lo/hwNxcEQsFj1zCMx/6gMSfv+tvW4f3OQM+GPA+mAXBUcgGl4xfIgs6dXNFUlTvry2iwtzG2XFShjL9MVxH8Djj+uDxdBMo5gZFfO3XYM/TOPx52n8BRfK2HPOleHt2skg5GVLaEa8FK4fAUdpfgScLZrm8xFh9Ivfe1/8pt0z6IPfbS/sh+uShH1yXZQ0SO+OPEmdcCLh/YESvuj735Ou3R6Tvv32Q8J1+wnPlkGDS6RHz67ywIOJhBtES1ejhWuhZRuHlq5GyzYOX6YWmVy55pUnUzcSpoTZTWnUKR2k5rSOkHEbKcc5LPuyJ+NCQ7w+KUO4FgWeTPGeEmUxMgXM7kvVLVu694yK2e0pZxniCThqkMUiaMqbzxTxCIj5ye/8n7zy+COIbie6qNgN7MEuPSFbZj4rWxHp7pg/x0XGrp7Xybpu9OwEvCocCctNi/hBHTlmaSjNf97PNEqfw25yMBD+Odjy4rOIfEsh3zASdiIOouEVVRVSc0YX1yCL8Pp33ZMakjCOa3+c64H43ZVgGUo3KpouxrkY3qaNjD37bJkA+ZIxeF1+8smupTQF7EtYiziKhJ2A+Rrb6Efhgj74/fXG+t2IWbiWsl2UgBu+sqnXT9iCebCs7qaUSDiRcBw5Eq5SEo7rJ5xI2EDLNg4tXY0WroWWbRxauhot2zh8mVpkcuWaV54w3xAcvygS5vNwXEOjO3WWMYh0RkPGVa1aBwNqZA7Mla4mZQjXoiA3smXxNBtVUbw1bds6CTvYTzlt1w9rAfPZjcgVNs5i2nCso/rkljL6lPZuMI+aDqe4vtA17du5Llnjv3qGTLv4Ipl92y2ybGA/J2sOUeki56gYm42vli91AszW/f4LcP2D168OWka//rJsYKOsoWyURQkX1xZLQ8YrqsplWflgGXZS86B1NG64A3Hd9U/V00+YAuZ5xHGkfF30i3QKmIN8jOrUyY0pPvFCCvgCGX3mWTKkeXPXDSkr4Agl36yEQ/H2xfp64by6CRwK1GxKBxiDdfBz5HcTOGgBE6wnkXAi4f2hIQk/8MC9d/2X9dDF0YmEEwnnkE+eENYDc5YkN2Qli6TxXN2unYyGhMeccYZ7HtXhVJfOQTvqjYhThnAtCnKFynR2T2L0zdG0KFI20OIzR+Xy64fdIB3Y9+EULvNwGXJUMEgH5Z1NPzzoL+yeDSrx2XCInI3COJrX+DO/KkueeNSNsOVHwW+tfjNo/eyLMYpWP2yaTm8gjdvnBBFslMWicidhiNZFwE7Cxdli6eXDymTd1Iny3PXXumubjbSKccwG4VjmjJjF1ziuA3AzLcY5oKhd9BsKuATXSE3nzjKBA61AwCyGrjn9DCnDHyaOlFWM3yixImEHxYt9YBcldlXKTtwAeeY1Yhbyski6BMLvgX3META+Z31wUhydSHh/aEjCscXRiYQNtGzj0NLVaOFaaNnGoaWr0bKN40BDvD6ZXLHmlSfEFUlTWIyEw2Jp1g2zSHoMbrRkLGWM6LgaEWp2mMnCj1nCBOtwA3xwfyIgVlc/jP2kfDmJA/NE0s0KGDAqdvXJELEvZydlvj48V8LDcH35VLc4SRb++X7XEKu2Qdfr8vaGNbVjQWtJ6vf5pO0nnMvYTdbASShYjx0OUxkURxfXRsNe3fDKqgpZM360jPvaeUGdcJNg6Er+ZgbgOPbHMe8HiVG6A3FMKWJXJE35egIe3aWLK3qmgMedc65UnXqqlOEYO+GGAs7CtMMD8bJrErsocUYlN3Z0KF2Nlm8dCRcEAh7cqrWU4s8hG2FpCbO7Ul+c+0TCiYT3h0TCEVq4Flq6Gi3bOLR0NVq4Flq2cWjparRs4/BlapHJFWteeTyykzeExdLssjTipBZSA/GOPeOrWcbgZjyq/SmumNf1Jy78mCVcEMyUFDWscnW7lCdusByakn8ASDQaVh2QP6pHZjTsS5gRM1tN5wiYhPIlHF2LLapZJO0aY0V1w76EfaHqxyeYxmLwfWtXhvvDovJX3SQTK0aU10bCfgMt8OawUtn8wnRZPqJChrdp7SZsoIj5XIwbJ39/jH4pYuIXTVPAA3COq089TSYyAmYDrDPPlHJEo2wBPRDHdeDhQeRbBxxHDtLBuYMpXzdKFtYVoQVcr4RxPfTkb+DkVlLesRMk3B6RsCFhXDO98Pu1xo9OJJxIOI5EwhFauBZauhot2zi0dDVauBZatnFo6Wq0bOOg7OojkyvVvPIoWCydbaAVFkuPROTLuuGsiE9HVIz3NbgxVx53vJuSsE7xdMoQrkVBrnyz4HOuNxKxk3EoWFdEfUQg5ug9JRv1C2bE7CTMPxRcLlyHK6JmpM98FC7TQ/i+AtcQJTzypOay4IE/yY6Fc3MaZnHeYdbJ1vtwEWseLaYbEK6VFhRFs1U09yeor2YL7vVTJwTdlJSAnYSHDkQkPEq2zZ0li7s/LkOOPSaoC24cTmcYStmJF2m+hNkdqbJFCxl/7nmQ8PmuWoK/e0qWUMC+hF0UjOPIsaQ5o5KW735LmMvz+mrd2gm4HH8IS9u0ySmO5qhZFLA1UEci4UTC9ZFIOEIL10JLV6NlG4eWrkYL10LLNg4tXY2WbRy+TC0yuULNK49POphPeAiOkS9iN6EDhOvke3oo4RA22hp+YvOgK1NRKOKUIVyLAkO+Hix2Zj1w1NhKE0nZyTXqlkQJM4IPJewmdGBaVETN78R8SsKUbyTh0e3b1Y2CPQm7mZH27rZlyccHHNN5n7yzY0d+It6fB9b9PrYd9A8Ox6l2IkY0vGSBbHpumqysKod0S0IBs3HWAHkDrBheBgm/KJtmTHd9h0sOzNTOK0zx+kQShtwG4diMPfMsGX/OuTKyQ4dg9iVcjxRtJOBIwpGAOYkDR9DiMJZavvslYa4D6xp0UgsIuKNUdO4i5bjeinEe9UAd7LrUB+fVKopOJJxIuD4SCUdo4Vpo6Wq0bOPQ0tVo4Vpo2cahpavRso3Dl6lFxpBqPnl88CMirt8wpeYVTVc2O9GrHz49JHhd07ETRH1iEBEXfnwSZh62fC6nMA0JO8JGWJFwmeZmbjo+mBDCNdqK8oSRsFkvzG2EjGrdSpaXDQ6mJXSy80S8/HV5Cz9QNzhHVFcbCtJJ8u23Ze+aNWBtbRcmI1+dNJ1eT5obpAPReG1x9GtuAgf2c+Y0hjsWvSRrJ46W5YyKhwQyfoNF1EMHybop493AHqvHVsvwtmGxdD0SLsaxrz7tNBl9xlelHOd3AN73wzkpwW/EioSzkzhQnlj+I0k4EnDzk2Qo9qG8c2fQRcran+Ii4zqto/GaMyhZraITCScSbohEwhFauBZauhot2zi0dDVauBZatnFo6Wq0bOPwZWqRMaSaTx6fdCBhwhbQnFGJxdF1uy11ckXTdTj9DCdo5s2ZirA+CgzxKkqRj9Fwjnw9Igm7OmBGvL6EQznXkTCX8wUcUnlkIOfKo46UCeecLW+WDZRts2e6Fsi1In7VRaLv7twmH7z3Xh1Juv67O3fJnuUrZM+KlfLu7t25Y0hrue4n3KZrmLXyzWwUHEl4D/fvDUbFC2XLrOdl5cgKVxRNCRPWG+94eZ5sX/CSvHTfvfjNHFJXwn4xNORWdsSRUtWuvQw65FAnXzdyFq4j9h32o2ASRcBZAX8UCXsCLj/1VFcETQkP7dhZBrVoKT0gDb+fMBtkUczsnqTlm0g4kXBDJBKO0MK10NLVaNnGoaWr0cK10LKNQ0tXo2UbRyTSODKGVPPJ45OulTDfs1h6RMuWtRExnqvwfnRHRsSnZ4ukIxnX8IaJc8lGVTnCtSjIlW4OuMmWYn/qi4Z94UZExdGRnDlgB6kTCR8B4R59lFQ1O15qWreQcae1k+rmJ0jlEUEd8uhTTpEZV/1KVlcPl60vPu+mPowiY0aj7+/bE0g2ilLx+p3t2yHF5bIb7Fu3vm5/Yv/xEdK4TvZV3rf6TTdgB/cnK+GwERmL0jmS1tqJY1w3pTfKStwEDxueniy7WIc8bYqM7Hha0DI6FHDUQtp1VcJrN+9wJhwli3JGXg7cwSJqF/2GMmZatgg6EvCHlXAk4BObS3mH06SiYyDgClDWvoMbzKN7QTBoh+uShGvDn85QyzeRcCLhhkgknEg4P3yZWmQMqeaTxyftSZhkgtmV6hRLU8QtQhGzsVYkYkoZ70e1bReMrpUypKspMKSrwc2WeeuLhv3Il/KtI+AoLZRxVsKg6sTjZeJZneSFX/5Q5t50ubx042Uy7dvnyYhjjw6KpnFdjsAyHODjqR9eLG8MHODGkN61eL6TMSdteP+tfVlJukgY0S8j4d3L3pQ9K1fJe3v31UbDWYvmRrj7CyNibvvd7Vtk35rlspdDWJIV5A3sA4fiDOYZZhcmjpzFqHhldYXsxP7veHmBvNz1MSlF9B9JmAN0lOCa9UXsuigRvsfNmsJ1o2gdFtT/FlPASK8TAX9YCXMdvE5xfZWfGgjYSbhTF0TBHaW4WbNsFEwoYNYDc+IGRsGJhBMJfxgSCScSzg/enOojY0g1nzw+aSVhgnQWTbuBMyIRQ0xVJ7dyfYbHdomi4bChVsdOMuzoY/KLhgsM6Woo4YJgVCy/pTTJjo7FxlmhfGPxI2EsU33SiTL9R9+Subf8XBbeeZUsuvtqWXjXVTL7mktcNBzVD7vGWtguR9wa1bqVTDz3HFkCeXGSB9YZU4C+iFknzKJoSpjsW7tO3mfd8CfxoIwheEbGbLHNbXMmJw6pybmG+SeBYmZUvH3BHFkzdiRkPNQN2ekG+Zg+TUZ26uiiYUqY3ZQG4vfBPsFRV6WshJsEkXAxrgXWCQ9gHpyTPkjjZA45At5fCWN7HK7SCfg0CLhTIOBAwmwR3VZ64hqOhq6kjDmVYY8vB8XQFHAi4UTCH4ZEwomE8yMSaRwZQ6r55PFJGxIOoYgrITP2HXZCxjMneRhDEXsSZjRczWiY20sZ4vUpMKSroYSBqxs+OBycIxSwkzBhwysvCjbxJDzi+OPkmR9+U+bd9itZdM81AZAwoZTHd+7g+gpTwFGL6Sy4VqtbtJBJXzvPjUW9+dmnnOg4oYKTIoTIhlmRhBkVs4jabCkdivtjTYvEjEiZYmZL7rfWrHDF1YyAWRy9dtJYV7ROMb9wx20yCNczI1+OCT0Q35e4YugDwtGyfBFTzoyQKU183htpJEfA+yNhrg/bLmU/4NM6QsCdAgk7EbNfcDvphesvErBrCY3fsR8BJxLORQs4kbBNIuFEwvlBqdVHxpBqPnl80rnyzZIJI2JGkhCw68J03PFS3aatjO7cJdtimiJm3TCLsRtsKV1gSFcTStiJuDDoshSJ2BG+joqkI+nq4umoOHr4ccdKTeuWruh50d3XyMJQvhEL7rhSnv/pd6Tq+GPryjeCUgYc5rK6ZQuZfOEFsqK8THa8PF/e27MraDjFIukoGn7jTdm7ajVkuLe2/tgoXv7EwDbfR3TsIuJlnHt4kWx96QU3ScXupUtk9aQJMgTnlMNXsih6EL4j63zdpA04/lrCEZF8P7KEsY2+XzlIyjhRCLshOQGHEoaAy9q2DeYOTgUzJ1HAnMqwJ65H9g32BZxIOJHwh+FjlHBxKOE/JRJuCC1djRauhZZtHFq6Gi3bOHyZWmQMqeaTxydtyNcHeYbgu7PVdBQRMzqubt/eDWkYNdBifTE/a7BIusCQrsaTcCTi7HCVoYSjvsGWhHWdcFWzE+TJb54t82/7pYuAKWHHXVfJIsDXc67/qYxsdnyugD0JZ2WMfRhz2qky+9ZbXB/cd3Zsg/T2QXqrIOBlTsJOxIiO33/rLbu1tBbzR03z34P3ERE7CbPBFmBXpt2vv+LqjDc9P12G4thQwuwDPAjfiSJmvW9/nPPs2NGfgIQ5aQMncChr00YqshFwiBNwu6AhViqYQYl9g52AcS1bAk4knEj4w1Ar4UcTCTeIlq5GyzYOLV2NFq6Flm0cWroaLds4IpHGkTGkmk8en7QhXk0mjIgpYcKuS24wj1OzDbXGdO4sI1u2dPW4OeL1KTCkq1ESzomI91fCzZvJs5d8Wxb87sqgHjiEAnbvkT7zlxdL1QnH1ZGvK5rGNitwfTi4/UjG+Hwk/phMu+i7sm7COHlr4waw0bWQDkS8LKwfXusG8sgR8SeM67scSZj9iskbQWvqjc8+BQkfF0gY3yuSMGH9b3YGJUvC+OxDSRjL9cKNfwDuH0PbtZdhEO6wsP6X8q3AnziKuQ9+Z1FLaIq4F34HkYBdP2EDLd9EwomEGyJXwsMSCceipavRso1DS1ejhWuhZRuHlq5GyzaOSKRxZAyp5pPHJ21INwZGxCOaN/dEfKIbPSuoH+4iNR06yFAep8J6iqQLDOlqDAlnRUwBhhLOKX7WRdLha0r4+Z9+VxbceWW2PphRMN/Pv/1XMvuan8jY09oGgo8EjGtmKM5BGfa5FNsuw34NxfGqwPfLyviwQ90sTJMvOB8iHgvhLc3WCwfF0suclDmIB0X8wXuqxbQfwX7MaSwmd6NshRKOBh5hg611k8e74mg2zmKjrKg42nVDwvs4CbORFhtnuYZZWr71SZjrw7U4CH/cyk/pIMMQ9Q7r1DkrYQ5NSQH3xm+HAnbdlnDcOXkDi6Cz8woX5Ao4kXAi4Q9DIuFEwvkRiTSOjCHVfPL4pHNla4IfLZ8pYtdYK2w17foQuxbTp7sGWyOan4Ro+MBc+UYUGNLVGAKO4PzCTsRHBn2FfQFHEo6Gq8xKuNkJ8szFF8pLN1zmuiXNueFnMuuaS2TmLy6Wp793vtS0auGKmKPol43BKN3BkMrgxo3rQCGX4xy6CDmUMeuKOfnD6pqRsuu1V7NR8O5l0fObsmfVKnl76zYXoeY02NIi/bBp4Ws39zBuKJx8gnXA2UFHEAlzLOlZ99wpgw45OGgZfWhtFOwkjPexEsY1MLRFSyfinP7BMRLmRA79kH9I69ZScWrHQL6RhAH7BbN1NFtJR/MJ90jZAk4knEg4kXAi4fzQ0tVo2cbhy9QiY0g1nzw+aUO4FvjRRiJ2rabDaJh9iDm70pjOXYIJHjo0MHhHgSFdjSHfLPh8CI4ho9Y4CbspEDn7kmuUBY49RmratJRRJ7eQkSedWEszSPqYo3OGsKRcSyGDrHwbNaoDP4tE7CJiPA/H72Lqd74tG5+eJruWhhFxVsbBa7aa3rt6jRtj2nVhsqT6UR+MgvftRRS8zNUBszW0Gw87bCn9Wkk/GdbiJBcFl+AayxZFH55HJIybfwXrctu0dX2F++A9pWtJmNMX9sH1NfCYY6S8XXupPC0ofs5KGK+Htu8gA09o5gbqcAIGPbDOPri+OFlDVASdSDgXLd9EwvuHk/BF35MnukLCfRuQ8FVX/epHv/zF5e/fcMM1ctvtN7sMkYQHDiqW7j26yv0PJBJuEC1djRauhZZtHFq6Gi3bOHyZWmQMqeaTxydtCNeiKJQwSQcijoqmXf3waacFjbQg41Ht2svQQw61i6ULDOlqtHgV7LrE/sNawlFRdHZAD/Yl5h8FCJmRLqGUq1u1klGQSRWH6IymOdQS5n7ESNiJGPtRjmsikjAZ2fxEmXfvPRDfXEj3jaCB1rJQxmFjragL0741a12L6uwwmJ5Ec4qZ9yONUy6+vWWji353LHxJNs981sl416uL5I3SgbXTGh4Q1gdTwBE4DuwvHCthHPcynPPKU0+VYTjHpRBof1zPfXBNUMgOvsZ1VYx7wNDWbWQY8lZCvJUdo+g3qP8d0qat9Mf2eiJ/JOCeuK764njyWcs3kXAi4U9Kwn0g4RH1Sfj0zqfeO2PGs7Jz53a56+7bEwlrtGzj0NLVaOFaaNnGoaWr0bKNw5epRcaQaj55fNKGcC2KPAkTpHEKRBZNuxG1wmJp1g2zWNqJ+OBD3PCTn5iEw4ZZkYyzEg6nOSQc1COabYmRcU379jKGfxg4SUGHDlLTtq2TtS9iFkkP4X43CYujDQkzfQiOn4uGI7DsuC6dZeMzTyL6ZItkRsRhNOxJOIqQObqW60/sj0f9EYkme+DAHBunP4nIfIrrorRu6qTsIB0cLatOfXAo4KivcFzraPYT5lzCw07pIMPZGh6CrcB5Lm/TVoa2ag1audflnHcax5birYR0KzuGEgblSGff4D74HfQsCOt/QwH3x3njs2uYFYMWcCLhRMIfhv2ScGdIeNCgEhk1aqTc8btbEwlrtGzj0NLVaOFaaNnGoaWr0bKNw5epRcaQaj55fNKGcC2KlIRJOqgjHs7oCNHwqFNYLB2KuHMX957F1pzyMFs8XWBIV2OIt46EcROihLMzJ4XFzn6dsIuGKVaKOCyepoDHQgRjOfwmgYjHntoRIm4XzLzkiXgoz2NUJK0F/P/Zu++4qK/sf/z//r67AWaG9Bh7jb1GTTOant2UTduUTTfNmGJJ3cSYXtREY1dQUFCkir33rgiogDQ7TXqxm/M7577f75k7Z85bx93P7qa8eTxej4HhDQiM8+Tce+692rA0NWoRwNQ9Tbcp+P9w//ifoHbfbqjdmw612dm+YWkFsVkV09sYWtZ0rqHBQFSraP3elu7T8bVezp9XG3XQFpZ0ctKxJanqFCVaI7xrxD/VPDABTOcIz8Dfvd98MIbWDPttW8lCzVi0Y1YcVriEcDwm4cY+aqg5ng7zoHjR7Wu8roIVcC+j+o1s0hQm4+OGNutQ21bi71uvgFVjFr6P4+sg7CD8P0V44MCX4N5774Zhw99xEObh2NqFo8vDwZXCsbULR5eHY2sXHVMp4QKqwVyjxyOAK8UtIEzxmKcvIcI0PE1zwov6GvPDqlkL0UvBapPmienYw6Aw5vBa9+PH0cdbu2jRTlgKXap2aejZrIQDTk3C12noeWHPGxXCCmANYbqlilgNTZsIqyFp+toXQJjeNwd/xhbAam4YsV//9JNQsW0jlG9cAyWrlkL1Xtokg4anzaVL2hKm+gPaNpdCZXspsYai6wv3Q/n2jXBkYaI64vD4pnWw9IG/wAz82akq2BqKJoQxattKAjjU2MqS46sjTJ3R0fRzoj+wFLwWwoQvwawhTHPAdCRhtx4Q3bqNar6i6tfaMYvWDNN8MDVg0VywNSztIOwgzPH9FSD8Itxzz10wdJiDcEA4tnbh6PJwcKVwbO3C0eXh2NrFgtQu4QKqwVyjxyOAK8UtAGwF3x97lTFHnIiPw1Rq1MInYy/EiDItZaKDHghIqp5pi0taU0yoUmU7K8ylbq23achZBV+njuhY/HnQhh1qL+nG5v7RFsI052t1RNPwOFbFantLE2HCleaAF9JyKkKYzkju0QsW0L+T/mjodSMsxKR07OjbuhIfM7Q8SQ1Jc3y1xCAYVjVModOYaMlSxdaNUJOxA4oWpUDx8kVQvSfTBzHh643RsEXHIQZ0TV/iC22fSUPRNP9L+B6ePw+OLU2F0nWrIKlnD+9ZwjQUHY3/VgUw/kxn4O/CAvhiCFOoS3o2dch3764qYZXeFKyMqfLFt+Pw50vrgQnfaVdcCZPx92hVv3RLb0/Dr63mhEON6tdBWA4H2EH4v4wwzQkPHz4EXn75RacxSwrH1i4cXR4OrhSOrV04ujwcW7tcLsCrJ1xANZhr9HgEcKW4BXxZCNcUxI5210q6oT0sQNjocAe1hAkhphCAqfgEnYqVlLoWn8zjGl2vgKVqmWAlQOkYQwLXurX2jfbuH00Im9WvNfyszw37IYzvX9C9p6qEaUg6ud0NXmxpGHp+p86Icg+FMg1rx9HXxPfRnO/FEJ6N76dOae+QNH7ssv79FMK0TWTR4hQ4Oj8eipcthOrMDLNzmiDWMS6EE0ePGrtrUVWrRDVv9ZeL3EdLk2goujpjJxxdmASHUxDhJfMR4ZWQ0LWLqoBpKHomfl8SvgEI09ywFQ1h2j+aOqXpRKW5tPVkt+4Q192X2I6dIALfRw1ak/GPK1onrHbMMqvfKfh1KZNc/tWvg7AcDrCD8H8b4Zt7j/jhh2/hu+++hvfeH+IgzMOxtQtHl4eDK4VjaxeOLg/H1i6XC/DqCRdQDeYaPR4BXCnuQHT9gk8MCuKrtOVLLRHFtu0gpXNnRLcnpCLKKgQx3eJ9tA91Uvv2Bpw0zGnN514oBCyFDnGgr2Xebw1Hq+Ysuo8QxusUtAh+Yps2CtgY/Heq7meEgapddU1zWsbUBavhTljNGmuGqftZLVUS8PWGGrTw5+MdksaPW3LzTVCxZQPUY0VaunqpQviIBXFGOkKsVcRaZUxnEdM6Yj7MHGzOnzmtdsgqW78Sv14CHE42EV6/CpKxSlWVMCJKlTC9rtDFf78KR5jAxu+LtrEkcKkpix/gQGuFvR3RVvD6KXhLS5T8dsvCn/MU+lz4+CB8af9oQpnj6yAcGA6wg/B/GeFbb+07Iio6EpKS4+H9D4Y6CPNwbO3C0eXh4Erh2NqFo8vDsbWLjqmUcAHVYK7R4xHAleIW4NWDTwwWxGqfZ0QtjkClzmOKQtnEuYVxq/ahplu6DhOHjy0KAWpVu2IshJsYQ9LeytgckvYbjm5sdkjjdQphfMzQMLfVdEXQrn/2WXO5UjMDYXNu2LtemMPLEKaNPfQh6YU9uquu5Ib8LKhK2wZFC5LgCFalR1LioWjpAt8csULY6pim+eGDcLLsuBpW9qt6dWz529p9VEnX5WYpeAlgC+GyjWtg4YD+EInft9WYRbdegC2ECV78Xrzd0QQ1vU23+LEz8PdKtxbIAWuEKSa8hLAVwpc27KAhaKqE1bC0GY6vg3BgOMAOwv9lhPshwqmpybB9xxb48MPhDsI8HFu7cHR5OLhSOLZ24ejycGztomMqJVxANZhr9HgEcKW4BXj1uEyEMbPx83pBtapbK/R2MCGUrdctfK0whL330dsIsMKe7iOETYhpvnfr4MGwoFcviKF/55+N5UeE8JZBg2DTyy9DMv4fMtYWt1Qf523O4vCy0JC0jvD8Dh2gYMZ0dfYwpQghPJIcZwQhLl6+GKr37TWrYF+jVh1t6HH4sLHXNIf2Yjl/Hs7W1UIVPi8cRfQP49ei0Jxw2QZE+I4BPoTNcIQJ4Fn4844I15Yp0S2F4MX3T8XPEYmP8QjMNLxusoWxFmq+moaP8whCG29VZRzmj6+DcGA4vg7CgfnfINzv5hErVi6FvPwc+PAjB+GAcGztwtHl4eBK4djahaPLw7G1i46plHAB1WCu0eMRwJXiFuDV4/IhrCDGr20hqo5AtKpderuJBjS9bd2HjwnakpIQtRqsqIpV19D1VkyEVZOW9raFsBqips+tIbzk9tuhcM4cSEEg1VA0PtFTlRsT5lIV8PyuXWHH8OEK4sRLRRgR0xFOatUSdgx5G6rTd0B93j4oW7PMGJJOiYOjCOPR+QlQum411Obm+ndKF5pnEdfUGmuH9Re96hXuo6auU8dLoXjlYjUXrCphmhNetgBK16+GlJv6QmSosUbYFmH8XmmzDnWIQ6hZEWsYq6FoepvehyGA1YEOWvQKmOClEMo0JM0BdhB2EHYQ9o+D8MXCsbULR5eHY2sXC1K7hAuoBnONHo8ArhS3AK8elz/CFOqAJmBp+ZIFrxdfvKVGLNV4hW/TLTV2zcavpTqk8Za6omm9Ln0MDTUT0FYsgK01wApr83MTwmpImaDGzzsHf+Y03Jw9YSKkduoKc6+8BoOf9+prIf4a/DxXXwfJHTrCwYQEhbV3H2lCGJ+AL7hMifInY6nSvGuMeeH4683mrC0b1JaRNYjxsQWJcDTFqoaxQl08H6qz9vkqYbyto9cPHYazDQ1GpzSvdi8QaspqOFRgDkUbVTB1RxctXwgla1fCvI4djMasCyBMw9FqDhix8GvKMmMhbIVXwCoIqGrEEsIBdhB2EP7NILzSQdg+HFu7cHR5OLhSOLZ24ejycGztQoheKOECqsFco8cjgCvFLcCrxxWIsDU0TVUx3dI6YWrcInBp3piQpo+14FUfE8bWEIcZa4O9S5noc2Ji8WMJXZrnpSMU53czN9wgmGkO2ESYwI7BjyXMk9q1Q1gbIZSNIb4RYn0dAn4tXt+4Kax5/AkoWb8etr/7rjr44ZIQxtC8MA1tWw1aC7CyLlqyABrys40uacSREKZKWFXEiHL59i1Ql5fvXwkfPmKsGb7EFxrCLt++CY7g51UApxgIU2VcjM8f6vxgDWA/hBFgOsyBKmHvnLAQB+FAfB2E/wAI9+9/q4PwhcKxtQtHl4eDK4VjaxeOLg/H1i6E1IUSLqAazDV6PAK4UtwCvHpcgQAHxLpOvz6M7S1NCRU28NATYmzgYa0rpoo57tprYEHnGyCxpVkRNzYas6gSVqci0XUY1cl81TUQfx1ecx1ifH1TtXQqLyoKDiYlwfJ77rm0xizK//f/BcwLJyF6O98bCjUZu6AhLxsqtq6Ho6mJRoNW8jx8nYakV0Ht/lyzGjY7pI+XX7wxi9+HOV1VqXbHOpwSbwxHU9U9Px5KVi+FY0sXqKML7RCOxJ9LYq9eMAMfc2rfaAFgB2EHYR4HYQdhB+FwAdVgrtHjEcCV4hbg1eMS0JUSJqDLEyrAqyckcCvL2MvDYVGPTrC4Z2dIbNHcizCFEKZKmIalCWGqmOm+uXjf4ltuhX1jxsCaxx5Ta5dpxyv1cYT31UEsUbIQ/pP/vDAd7LC4Tx84vmENNBQYJxgdW5TiRdhq0KrNyfEtVTpkNmWdDxxuvlBoWVNtbjYcxc9vzQXTLS1TKl27HI6kJkFs8+a2CNMwNAFM1bCDsIOwFA7wHwrhO+4ghJddAOFxiPBnDsIXC0eXh4MrhWNrF44uD8fWLjqmUsIFVIO5Ro9HAFeKW4BXj0sAV0qYgC5PqACvnhAZ4aU39YLlt/SCxT06q+ML5zU2EFY7YGHm4M+U4FVANzI25KBu6PmdOwce4oCPGaqcL7ZZh46wtWmH3iWdHzkN6rL3QH0urRk2G7QISMyxxalQm51jVMGYBkTYb/tKqerl950/D2dqqtQypCOpxtpgL8JYeZesWQ45UyfCbPyebRGmpiz8uUfg78dB2EFYCgf494HwQ4jwGER40r+DcKSDMMfWLhxdHg6uFI6tXTi6PBxbu+iYSgkXUA3mGj0eAVwpbgFePS4BXClhAro8oQK8ekICEZ5z1ZWw5oH7YOXtfWH5TT1hYZcOkNBUW6aEmUs4ErLWfSa4PAQwNVp5zxTm6PIgwnQ7B3+efvtIN20K6/7+OFTu2Kzmhqt2bYNjtGbYXK5ElXFtjnXAA+2adQx+uaQ9pM/D+VMn8eP3q0YvNQ9sdUbT11iQAMUrFsPmwW9AFP587BCmuWA6RUl1RYc4CDsIB4YD/MdEOM9BWAzH1i4cXR4OrhSOrV04ujwcW7tYkNolXEA1mGv0eARwpbgFePW4BHClhAno8oQK8OoJCUR47jVXw/onH4dVA26GFbfeCMv6dofk1i39hqUDosN7nbFfNFXKVAF7Ab4EhGn3LR1h+nwLundT8DbkZUFdTiYUL1tgbtwxz0SYKuFCtVHHqdKywKVJF3hRBzaUFUFl2lY4orapNLuiVeap+2idcOpttwSsEeaVcAS+3zrEgePrIOwgzAF2EHYQdhCmhAuoBnONHo8ArhS3AK8elwCulDABXZ5QAV49ITLCG54ihG9RCKth6e6dvNWw2g/awtaMmhc2Q93W1Amt8DU38rhUhGlNsRruNhGmJLZqCbveG2Y0aOVnQfnmtaopy0K4JjvLaMw6eBBOV1b5DnHQh56tF7/7aIesk+rcYnVYg2rGsmJ0R9P+0TTkHde2jXeXLBFhDA1Fx7ZpAxH4u+T4Ogg7CHOA/5AI5zoIy+HY2oWjy8PBlcKxtQtHl4djaxcLUruEC6gGc40ejwCuFLcArx6XAK6UMAFdnlABXj0hgQjPwd/PuscehpVmJUxZ2qc7JDY3G62uN4ajVUc1fg4CU4FrhcN7qQibHdIcYcJ+Ud/eULpmBYKZDXXZGepQB7VMCZGsytit9pI2NumoCfokJbrubE2V2qby6KJkL7zGcLSJMN5PndFzWgZ2RgcgjL/DuE6d1Dphjq+DsIMwB/j3gPDDf3sIxo77NxBO270TZkZFwvgJ4+DzLxyELxqOLg8HVwrH1i4cXR6OrV10TKWEC6gGc40ejwCuFLcArx6XAK6UMAFdnlABXj0hAsJXXgGr7r4DVvbrgwD38g5JJ7Vq4R2SpopXXU/gXghdHo4uj4kwXTsXf29+CGOS2rSG9E8/hpo9aVCflwVla5erXbPUWuGtm6AuLw8RPgxn6+r9N+nwiqvNA5tv0+Ycp4qOqK7rowuT/RqyrFu6v2jZYphrIfxnmv+9DKZf9mdVGesIq4068PfozAk7CEvhAP+eEJ4ydRIkJDoI24ejy8OxtQtHl4eDK4VjaxeOLg/H1i4WpHYJF1AN5ho9HgFcKW4BXj0uAVwpYQK6PKECvHpCAhGmYweX9OoGK27pZYSGpG/qAfPbt4X4JsbOWepowsvMqvc/gTC+Hos/Cz4vTHPOS269BcqoGs7PhpqMnXAMgaQlRCWrV0Dt/v3QcOAgnKmqMuaEAxqwAvPLmdNw4nAB1O5LD0TYDHVLH8K/8Oc0b6YAjgwLgagrL1eJDDOPMLQQptcpIQ7CDsKB4QA7CDsIOwhTwgVUg7lGj0cAV4pbgFePSwBXSpiALk+oAK+eEAlhDyzu3hGW39zThzC+vrBrB5hHCONjRR3c8J9EmIak8fNb64UJY0JYVcNt20DGyBFQk5mmjjgsWblEbaZRtHi+mhemarhqTzqcO3kisBLWq2Hz5TydHUwIZ+8x1gdb88FaY9YhvM2aMBZiGl9vnCN8eThEX3OVStRVl0OEDjHd4r89Eh8TdhA7CAfi6yD8h0I420FYCsfWLhxdHg6uFI6tXTi6PBxbu+iYSgkXUA3mGj0eAVwpbgFePS4BXClhAro8oQK8ekIYwngfDUcv6d3VrISNOWF6fcmNXSGhWVPjHGH6Pi77DyP8J//1whbCqhq+7Va1Vrg+dx9U7dyC1XCiqogr09MUxLSD1oljR3w7Zl0gdHYwIVyXsxeOLiaE2Zww5mDiHNjx0fvq8T0dv+8o/BlFX3OlNzOvuFzdbyFMndFR+O909o52EObhADsIOwg7CFPCBVSDuUaPRwBXiluAV49LAFdKmIAuT6gAr54QAWH8uS/r28PblGUhvKxPdy/CdI26/j+IML2tL1VS1TDlWqqG20LGFyOhZm+asZ/00lRVDdNa3qrMdHXWMG2ucba+LrASZi80J3zicCFW1fvw4xepfaL9EMa3DybEwroXnoMofCz5I2xUwzOvvhIiXGHeoWh1ihL+W6eFysuUHIQD8XUQdhB2EObY2oWjy8PBlcKxtQtHl4djaxcdUynhAqrBXKPHI4ArxS3Aq8clgCslTECXJ1SAV0+IP8Kz8WPm0clFCK41FG0hvBxhTrmhjdo9S3VH08f/JxG2quErjAYtfUiaquHFN/WFEkS3PjcLqtK2YiWcpBq0qAqmqpg23ag/dMCohvmLBjO9/+TRg9CQnwNVu7aqTmu/ZUqIOyG84uEHYSb+/gjhmQphAtiAOIogvvJyNQytH2XoIOwgzMMBdhB2EHYQpoQLqAZzjR6PAK4UtwCvHpcArpQwAV2eUAFePSEMYfz6ye3awrKbzPlgC2K6vbknLOnZ2VcN489VnRH8H0SYEoNfIw4fCxbAVmjf6s2vDlTD0VQNUxVL1TB1S9N+0rSG+PiWDXDuREPAELQetVFHeQk0HMyDWvw86ghDrTuamr4OJcXB4rvvgpn4c6eOaGNO2DccrRCmnbRCDIRVhzT+/KeGOHPCDsJ/bITfe2/oyTdeH1j14ovPxjoIc3R5OLZ24ejycHClcGztwtHl4djaRcdUSriAajDX6PEI4EpxC/DqcQngSgkT0OUJFeDVE+KPMM31LujeFZbfTPha8SG8rG83SG7TyjhfGB8zamMO+liOrV04ujwCwnQ/QUxD4LQ0Soc4tUd3OBQXoxCu3r0dji1K9u4nTZt4FC1bCKcrjvtv3GHFesH3naurVfPCtOxJHdSAmHsRphObFiTBwgH9YQb+3KkxK9IVBlFXWwiblTANSbtdRjWM/167piwHYQdhnt8zwuvWrYaTJxtg0KDXwEGYo8vDsbULR5eHgyuFY2sXji4Px9YuFqR2CRdQDeYaPR4BXCluAV49LgFcKWECujyhArx6QgIRXti9s4GwUAnTUiVj96ymxu5Z1xmHOQQNMUeXhwOsQUwVN53cZJ01rOaK8f/Q2scfg/It6xXEpWusgx2Ms4YJ5Zr9+9TpSLwC1nP+9ElEmA5/yIEqxNw7JI0QH0WAi5YvgoX9b4cZYcaWlRFY8UZd5WvOijIzgxq08Joo/H/ibFvpICyFA/x7R3jRolQ4dOgADHrjVQfhAHR5OLZ24ejycHClcGztwtHl4djaRcdUSriAajDX6PEI4EpxC/DqcQngSgkT0OUJFeDVE+KP8BxEZEmfnghvb18VbCGs0lPNFye19G3cobatxN+Vd46Yw8sRtl635pP1eWWOr5ZoCn08AqVOccLH2lz82imdOkHO+LFQuzcds9vcRcuohCnUoKWGpK0XXgnTXWfPwOnSY3DiYB7U7d9rNGiZjVm0W1bpupWwiCrhMHPfaBqSvsJapmQMR1NmXGkcYzgXn0OcbSsdhKVwgH/vCA9/bwi88cZr8Pzzz2gI5zoIi+HY2oWjy8PBlcKxtQtHl4djaxcdUynhAqrBXKPHI4ArxS3Aq8clgCslTECXJ1SAV0+IhnAodUZfCStuvxlW3NbHtzzJWwmboeVKvbpAYgvfNpbW/tGEI3U0+21jaYbuo8Tg11EVLf7+qKql0MfF4vceQ9dYWEsIm1FVMf5O1PA0fv1Ft94CRUsWqGr4+KY1qkHLQlgNSddU+8PLEKZTlM7V18LJQwWqQaty5xazGjYQpuMNF911pzEcTQjTkHSYNSRNAFvzwleo9cHzunZ1tq3U4iD8x0X4lVdfhgcf/Cs8+4+nHIQD0OXh2NqFo8vDwZXCsbULR5eHY2sXC1K7hAuoBnONHo8ArhS3AK8elwCulDABXZ5QAV49IYEIL7uJKmD7Slh1St/cExZ17QgJtJ80nTXcSDvQAR8jqkrF35+ax6UQtgSmFbxmHl5rxTvPS9fh71VBzipjHWE/iPHj4ps3h/XPPgPlm9dD7T6shpfMV8PRxuEOyVCbt19tynGhF2P7ykPQUJhrLHsyD3MwEF4Ly/56P8zE349CmIakL7OWKhlVsDEvjAhfjgh36eIgrMVB+I+L8EcfvQdDhrwNL77wDwfhAHR5OLZ24ejycHClcGztwtHl4djaxYLULuECqsFco8cjgCvFLcCrxyWAKyVMQJcnVIBXTwhD+OqrYGlvc8tKjrDaQcvXNU3zw4u6IcQtaH448CxhBbNwXzw+Xine+zSMvRtzEMb4e1MVtQ3CKvh+BT1+bErnzpA99keo2bPLOGGJquHkeapbumzDGv8dtHhVTKEGrRMNxprhAqyGaW6YDm5A0KnLevUzT0EU/p4thPUhaR1hGoaOxu+L5oY5vg7CDsIc4N87wj+M+hZ+Hj8WBg58wUE4AF0ejq1dOLo8HFwpHFu7cHR5OLZ20TGVEi6gGsw1ejwCuFLcArx6XAK4UsIEdHlCBXj1hPgjHNfoOnVikt9GHX6VsH+oIl7co5NxwpIGLVXE+q0FcnzTplg9N/eFGrys60yE9c05qCqmE5XsEI6iYWv8Wcy5xhiWXnzbrVC2dqWqho9pc8PFK5cYG3fo8Oq35utqudLxYjU3rLbEXLMMSteugKq0bbDjw/fUY9eLMP67Znjcakjah/CVCl9qyqIuaY6vg7CDMAf4945w9KyZsGbtKnjj9YEOwgHo8nBs7cLR5eHgSuHY2oWjy8OxtYuOqZRwAdVgrtHjEcCV4hbg1eMSwJUSJqDLEyrAqyfEhzBt1BHfvKmxW1YQlbB1H0FM64eTWjbzr3B58H0Eb2KLFio6xvH4OFfXXOs7NUkFH09z6GeP6HGAFcJ0S8PS+FihYenEtm1hz7dfqeVKpauXGp3Sal54AZyylirxStgE2Mr5Uyfh5LGD0FC4H2r27oaq9O1Qm5UJ+VERENuksR/CkW4XQ/gKdZ6wtUyJ4+sg7CDMAf69Izw/NQny8nPgzTf1JUoBCO9AhCMQ4bGI8AgH4YuFo8vDwZXCsbULR5eHY2sXC1K7hAuoBnONHo8ArhS3AK8elwCulDABXZ5QAV49IRrC+DkTW7X0bdRBCKtbhrB1sIP3dcxNPWBpry6Q3LoFgipDHI+Pdwlg6216vz4krQ9NUzXMAbYQVtUwfi+qGsbPsfzee9TccE3mLuOEJTUvnAL1BwrglzNn/IekpZw/B+fqauDEkUKoR4jr87OhoWA/VsQrYW7LlhdA+EpzONqlAFbd0SEyxA7Cgfg6CP/WER6NCE9EhONEhAe/+bqDcAC6PBxbu3B0eTi4Uji2duHo8nBs7aJjKiVcQDWYa/R4BHCluAV49bgEcKWECejyhArw6glhCLduhQiblbC3GtbA9VbDGsgqPVSW3mhCfD2D+HpfFew3HK3f16yZURFrEKsmriAQpmrYmhue37UrHMX/+HQ0obF5R5yaH67asxur3FP+4LIq2LqPmrTOYOV8grqlC3NVjiPsCZ07qYYs33A0r4Rpww63GpKOxu/ZOcDBQZiHA/yHQXiwhvB+B2E5HFu7cHR5OLhSOLZ24ejycGztomMqJVxANZhr9HgEcKW4BXj1uARwpYQJ6PKECvDqCdEQxq+d3LYNLLMqXW8l7Bt69qt++X0K4p6qIk5q0dxYvqQjbFbBHGK/+5qZc8smwsFWwlGIYgz+Dubg9Ynt2kHm11+oeVyFMHU4p8YbW1iePBkIsA6x9jqdM2zMD+crhKszdsLmt9+EKNqe0qqEXYTwFf4Ie9xqSDqmVSuYjrccYAdhB2GePwLCb1kIr3AQtg/H1i4cXR4OrhSOrV04ujwcW7vomEoJF1AN5ho9HgFcKW4BXj0uAVwpYQK6PKECvHpCdIRdkNS2tTEcHWRjljfeirinGppe0qMzJDZr6mvMYgjbhiCmZi36OB1hRIkDzBGm74eGpOfhx69+9BE1JF28bIHagpJCTVZ+m3ZY4Nq9/EI7aZ2CU8VHVaNWQ342HFmQDHPbtFYAE8QR+HOjnbMkhGNbt3YQNuMg/DtH+OGH4KexF0H4rYshPDNCtVF//rmD8EXD0eXh4Erh2NqFo8vDsbWLjqmUcAHVYK7R4xHAleIW4NXjEsCVEiagyxMqwKsnxH84OgErWF9jFuHLG7PoluErILy8b3dY2Km9WkOs1g7j4y9ohM1qWK0bxscTrTGmbTFptyxbhOl9CNccvJaGpFNv7AVl61ZB2doV6iAH1Zy1fBGcrasNhFevgvl9XoiPqAMeKnZsgRWPPwozwj2+IWl83RqSthCeHhYKUfjvcIajHYR5OMC/J4QnT5kI8Ql2CL/hIByALg/H1i4cXR4OrhSOrV04ujwcW7tYkNolXEA1mGv0eARwpbgFePW4BHClhAno8oQK8OoJsVmipBA2IeaNWbwC9psbNhCmoellvbuCsauWuTxJG3qm8OFodR8CrNLE16RFENPmHRdF2OqSxo9L6d4NSlYth8rtG831wvjEsCQVTh0vhV/OnfND9qI5f97omC46DHV5WXBgXizMa3+Dd26YquGZV11uNmaZCOPPcib+W5xK2EGYhwP8R0H47bcGOQgHoMvDsbULR5eHgyuFY2sXji4Px9YuOqZSwgVUg7lGj0cAV4pbgFePSwBXSpiALk+oAK+eEH+EAzfrsCpiHWELYhNddWvMB6tbE+HlN3U3NvNoYuwxHTD/azMnbEVHOBa/34shHIUIx+BjghBO7tQRCmfPVOcDW/PCdEvLjmiu17bytbsPb2mzDzp3uAqfL7YMGwLR+O/i1bDVmEXd0TOvpLflM4UdhAPxdRD+nSP8toNwILo8HFu7cHR5OLhSOLZ24ejycGztomMqJVxANZhr9HgEcKW4BXj1uARwpYQJ6PKECvDqCWEIX3UlLNXXCeu3etWrd0fTrQmvjrBatkTVcDPjxKVgG7O8CDcyGrQUwvhzuSjCCOJs/PlSc1Z8q1aw7d23oHLHJvOcYQNhWm5EJybpuPrlQveppUu1qmO6ZM0KWNDvNrV/tKqGQ6ny9V+iFHUtVvCtW0EEPjb4UiUH4UB8HYQdhB2EObZ24ejycHClcGztwtHl4djaRcdUSriAajDX6PEI4EpxC/DqcQngSgkT0OUJFeDVE8IQvvIKWKbPA3sRNsG1wpcoafB6Q9Vw324w/4Y2aukR7ZbFAbYQ9r6tI4yPa2teeA7+fKOFDTs4wup7wMfXXPx6S+4YAOWb10HFtg1qXphOV6Lzgs/WVsMv5y9xSNrML2fPqqVLdXnZUBATBXPbtoHpCCZtzjHjysu9m3VMD8VK+Bp8/DbF/7/Nm8F0t/+JSg7Cgfg6CP+REN7vICyGY2sXji4PB1cKx9YuHF0ejq1ddEylhAuoBnONHo8ArhS3AK8elwCulDABXZ5QAV49IRrCmFj8PhZ262ScJ3wpjVnUUe0HMt0a5w/TkHQ8DUnjY5nPAQeE3m+G4PYijD//iyJMlfJlRnMWVcPzu3dXCNdlZ6gu6ZLVS1UlfKayTG1PecGq9wL3qUatosNQlbYdNg8eBFH4OJxGy5U8bnWKUoTL2LYy6tqrIbpxI5jdvClEXd/Ir0nLQTgQXwfh3zfC77z9ponwCgdh23Bs7cLR5eHgSuHY2oWjy8OxtYsFqV3CBVSDuUaPRwBXiluAV49LAFdKmIAuT6gAr54Qf4Rj3C5Iadca8ezpa8q61CVKLLRuOKFpE6M5CyvcAHjtEG7ia86iow6lrSsDEKZNO7wId1PLlGhpUeWurYjmVjUnfLqs2GjOsnC90Iv0frNRiw56KF65FJJ69YTp+LObHnIZzMRqmDqjqRKm4WhCeFazJhB7Q1uIxO/BGpZ2EA7E10H4d47wOw7CgejycGztwtHl4eBK4djahaPLw7G1i46plHAB1WCu0eMRwJXiFuDV4xLAlRImoMsTKsCrJ8Qf4dlYxdGpSMv60iEOZjVMwep3aZ9ueH83tVe0fyXM4PXODxtvL+vdDVE1DmrQq2E+J6zuM4eiFcLaemE6yOFfRfjEgf0K4oaCbHw9DxEuUsPKfi961au/bXMf7UF9tqZKnbZUMGcWzGnTRkE844rLFcAR+LOPbdVSVcHRTfD/Z7OmEINvR+DjiCB2EA7E10H4d4xwnoOwg7AFqV3CBVSDuUaPRwBXiluAV49LAFdKmIAuT6gAr54Qf4TpY+Kut05SMqHF2yXUYNWyuQqdmmRAbKJr0x1tDUsvQ7yTWvp20FLQsjlhL8r/FwjjY3AOfpxCeAshnAsnsAJWOUgIFxsI69D+Czl/5jScKjkKlWnbYf2rA9VOWrSXNM0PR+G/Yf0rL0HqgH4wp11biKa5YayIZ+P3SY1aU0L8IQ4A2EE4IA7CDsKXEgfhi4VjaxeOLg/H1i46plLCBVSDuUaPRwBXiluAV49LAFdKmIAuT6gAr54QhjDeF3fN1caGHaoKNo4rTO14gzE83Ph6BLM5LOnV5eIIm1EIt2rhRZg+D0eYN2bx4ei59FgIBmHEy4twj+4GwhbAJsJnKo/71grzqvdS7sPQDlwNB/Ph6JIFkNC1q6qAaX6YEN6MTzqZY76F9a8PhPjuXY0mLYR4Fv78pof7QxwAsINwQByEf9sIv/vuYAfhAHR5OLZ24ejycHClcGztwtHl4djaRcdUSriAajDX6PEI4EpxC/DqcQngSgkT0OUJFeDVE8KHo12qiWpZH0LYqITpQIfkNq3UULKClCDGylatJ/ZDWK+AfbeEcHLrlj6EGxtD0hethOnr/bsIb17nXwkfKvB1R1uw6sBe4n3q/OHyUqjZsxu2ffAeROFjmxCmjTrWDXwRcqZPVNk58p+Q2KcXzGqO/+eb4f/pFs0gAh+XU/HnTRgHAOwgHBAHYQfhS4mD8MXCsbULR5eHY2sXHVMp4QKqwVyjxyOAK8UtwKvHJYArJUxAlydUgFdPiH8VPAer4MQ2rWFB5/bGkDNWw1QVU/WrEDVDVWpqh3aq+/lijVnL+nSHlDYmwvg4sxAOaMrSGrP0dcL/NsJaJXzycAGcP3UioKL9d0InM508ckA1ac1p28ZYroSPuZVPPg450yZC/uxIyI2aBunffgEp/W6G2S2aquHp6ObN8LYpTMfHFoHrIOwg/HtFODcQ4SwHYSkcW7twdHk4uFI4tnbh6PJwbO1iQWqXcAHVYK7R4xHAleIW4NXjEsCVEiagyxMqwKsnxAdwLP4853fpDAlq7reZuYe0gXBCs6aqu1kP3bekZ5cAdPUlSl6EqRKmj7MQ5vhKCOO16ihDzCUjfK3ZmGXNCZvV8MkjhcaOWfqLBWqw9+n3/0LV8Dk4W10Jlbu2wZK/3g+R+DuOxMfDkgfuh5wp46EgZoZKfvR0yPjhK5jf/1ZVCVPDVjT+DOd27gwR+P0FQGyCK4UD7CDsIPwbQnipg7BdOLZ24ejycHClcGztwtHl4djaRcdUSriAajDX6PEI4EpxC/DqcQngSgkT0OUJFeDVE2IgTMcAJmIVRwDPa0pINoPlVOHe1lshSuDqlbCqhvGxmUynLhHWHGJWCfsNR+Pj/qIIs5OUgm7M0ivh7oTwBh/CGNp2ks4K9kLKQP1X7zt/+jTUF+RC9qTx6v8srRleeOcAyJ78sxdhBfGsCMgc9Q2k4vtmt2oOUdQ53aoFxHbsCBH4/2Iy/k4chOU4CDsIX0ochC8Wjq1dOLo8HFu76JhKCRdQDeYaPR4BXCluAV49LgFcKWECujyhArx68El6Nl5H87wJLVsogOObN4XUbl1g3d/+Aitv7wtLe8sIU1Q1TE1aYmOWhTBrzEJgLzYnrM8HX9I6YY6wuURJhTqjy0uMjTrsqtx/8T5asnQGq+HiNSsgrkMHVQ3Pv+1myJo0zgQ40kAYk0cQj/4WFtxzhx/EcfjvVRVxqAkxg9dB2EH4d47wdET4JwfhYMLR5eHgSuHY2oWjy8OxtYuOqZRwAdVgrtHjEcCV4hbg1eMSwJUSJqDLEyrAyzIHf85J7W9Q+FIW3dQbMr/4FDI+fR9W33WbasCyQ1hVw21aqbXAAQjbLFGiDTsuhrA+Hxz0tpWEMF+ipBA2h6IPFcC5E/Vqsw0vpv+HoZ20qvemw9qXX4Io/Hcn9e4FWRN+UvAaAEeq12mO2Avx3QNgFv5sZjZpZMwR4x9C0/DxqiAW8HUQdhD+9SI8ChGegAjPdRC2DUeXh2NrF44uDwdXCsfWLhxdHo6tXXRMpYQLqAZzjR6PAK4UtwCvHpcArpQwAV2e0EB0vcH3q3ngbt3UMHR8syawEOEggAtmToX9P4+GtfffodYMJ7Zq6euOZlHVcPdOvj2jrVhLlBDoJHWkoYGwtE7Y+7aF8HW+E5SCPkXJQhgfX3Pw68zv1dOvMYvmgwlKjuf/SaggPncOTleWw5ElC1Q1nNCjG+wb/6NCV+FLCBPA0dNh77jRsBeftHbhE1XK7bcixM1gZuNGWBU3hij8eU7Dx9sU/P1wfB2EHYR/8wgvR4RzHITlcGztwtHl4eBK4djahaPLw7G1iwWpXcIFVIO5Ro9HAFeKW4BXj0sAV0qYgC5PqICvmRj8tyS0bg3xLQyAF/TsBumffAiFM6bCgdkzIA//Q216+lFYecdtsOK++2Bhn76Q2r0HzO/SBdH2oUzVcErbVrC8j1kNeythozL22zGL0Gbw6nPC0lB0HD5eZl92WQDAEsI0vE6VcFyzprD60b9B5Y7N3vngU6VFvqHoX4xqmOCkoWTjQIfz3uFl763+unQfg1hVw5m7Ye2Lz0NCzx6BCOPtPqyO47p0hjntb4AlDz0AGwe/AQl9boSopo0VxFQVz2x8vTE0HSZDzAF2EHYQ/s0jPMNEeKSD8MXD0eXh4Erh2NqFo8vDsbWLBaldwgVUg7lGj0cAV4pbgFePSwBXSpiALk9oIL4UWg9M5+4m3dAOAW4K87t2gl3vD4GCyClwMGamSiFWw+kfDYPNzz4Fh1MXQdGajXB0xVqEJA7WPfU0otwHkrHim4ePY2qkoj2ieVOWGo5Ww9nG3tE6wlL0oWiqgL0IY4XLAQ5A+E9/gtn48yOEE/H72jf6e6jdl24gfCgfzlZXqM5oCu39TEPTtPXkmaoKtXb4/MkTRtMWDVdf6MVCWLiPUD9VcgyK8HmGOqVpOFpvzKLsGz8G5nbsANPwdxCBj6torH7ndOqI+F4PM66/zoQYX0eIp+FjXIKYA+wg7CD8v0b4x58uBeGcLPjgQwHhnx2EgwpHl4eDK4VjaxeOLg/H1i4WpHYJF1AN5ho9HgFcKW4BXj0uAVwpYQK6PKGBANP9NA9Mc6bUjJXUrg1sfOEfWPmOh4NYAVsI0+u5E8fCttdfhtJNW6Hu8FGoyT8I5ZlZULJhKxxZsgIyvx8FS/vfAcnt26sjC5fTntPWEiUvwl2NAxzwMWYsbbI/xIHeZ52c5F2ehL+/2cJ8cADCCHUMXjsXPz6laxcoXrEEGgpyfE1ZpcfU6Uc0LE0oE84NBfvV/s8NhQbUJ48dUmcG/3LGxFgHl1W93vuokqaK+uxZVQmfLi+Dmuy9kBsVAQWxUZiZvu5oTF7UNNiGRUA0fq/Wjlm0acdU/L1Mv/IKiGx0rQExVsYz8Oc27arAipgD7CDsIPyrQHjyBJgXLyGcrSG83EHYNhxbu3B0eTi4Uji2duHo8nBs7aJjKiVcQDWYa/R4BHCluAV49bgEcKWECejyhAYiPBv/DfFYjdIwdEKr5rDsrgGQM3a0GoK2AD5gJn/6JEgb/i6UbdsJpyur4WxdPWJ8DKqy86BiTw4c35EOR5atgvQvvoalt98OK27tY+KrdUebCKsKFx9nxjyyb17YCzC9zZYmURUcQ/9uYT6YI0zzwbH4mKEKf0HvG+H4JnM+WGGL0OZlQV3OHqjB6rg6YyeUb1kHJWuWQ8nqZXjtWqhK34Hvy4C6/Gw4iVifa6hXqBrV8xkWq6I+hRV0A1bUlfgxh9TJSrQrV31+jtpFq2L7JjiUMs8LsRqaxmTjHzwrnnwCZlxztbFtJf7bVQhlVxhEXne1qoZn4nPETPxZTcXH8CT8OTgIOwj/9hBO9CHcv7+D8AXDsbULR5eHgyuFY2sXji4Px9YuFqR2CRdQDeYaPR4BXCluAV49LgFcKWECujyhdsPQbRHgFrCk362QNepbKJwV6YVXR5juL4iKhPLdmdBQXAbnTp2GsydOQN2RIqgkiPfmQDliXLo9DQ6lLoLtg16HVf36mgib3dF0+ENzc5iZgG1kbl1pQqwjTMuXqBLWd8qioehZAsABCCM41JRFf2BseP5ZqNq1DU4gvnU5mVC1ezsUr1wMR5Lj4FB8LBycFwMH586CA3OiMVHq9YPxMXAoIRaO4JPG8Y1roDZnrzr68MThArW+mKpkgvbksYNqhywDXANdqqTr9++D2mxEPisTKnZtgfKtG/D1dKhC8I8sTIIC/DrG3DBWwwjxnrE/wPz+/dQ+0l6EFcR/NiG+BmYQxM2aQHTr1jAVH4MWxBxgB2EHYQdh/zgIXywcW7twdHk4tnaxILVLuIBqMNfo8QjgSnEL8OpxCeBKCRPQ5Qn1H4ambuiUzp0goXULWNi7J2R+MQIKo6ZjFTxTVcJehOl1875DCXFQnpYJ1XkH4NzJU2rYVUGMFXHlvlyo3LNfVcXl6XvhUFIKrHvwXmM/aX3vaGudMCFsQkxVL0dYVcKEtYUw/e7+9KeLIkxVcAz+jmhpUnLHjpA7bRLUZWeqyreE8E2Jh4Nxs6AQASxEAAvx+6I/MFTodbrPeh/e0rWHEudA0YpFCnCqnmsRV0KWPmctfu5arJpr9mJVnbkLjm9dD8eWzIeD+DEHEPLCebPVbfGqpUbljVWxF2KzGqZlShk/fA0JN/aCaR43g/gymBbuUUPTFsRRLZrDVHycEcQcYAdhB+HfBsL9HIQvGI6tXTi6PBxcKRxbu3B0eTi2drEgtUu4gGow1+jxCOBKcQvw6nEJ4EoJE9DlCdWqYPzcVCVSBZzSuSPsHPo2FERONsE1QwDFaG8TwvifqnxXBlTlFCh8rfnPsw0NUHvwMEK8Hyr3GhCXbNgC219/BVb2o2FpA2GaJ17QqZ2v61mH2Jwf9nZMa93R1vrgiyFMG3TQjl+qKxo/dtmdd6hKlqpgVQkjmFVp26B4+SL8g2IOHEIgD1IFHDPTAJjw9eJsJsbYYKMQ0TxA12OVrJJg3noTCwfwthDRpiFnvhypECvsY/h1aZibID66OMUHMVXE0dNh9zefK4inul3+EOPvbNoVl0Pk9dchxI0UxDObN4Mp+BjiADsIOwj/JhDu1+9mB+ELhWNrF44uDwdXCsfWLhxdHo6tXXRMpYQLqAZzjR6PAK4UtwCvHpcArpQwAV2eUK0Z6+qrsAJupRqx1j7+COROHuffiGWTQ3ExULZ5G1Rm5cKpymo4f+asH8Q1BYe8EJfv3ouAzYG199/p3TuasvRGY0haNWfhY8iKDrEK/ZFgNmfNxcdJLP08aOmRALBaN4wAx+LvlwBWw+zt28O+Ud8ZXdFm85U1J1y/fy/UYTVbg5Vr2fqVcAxBPJKaoKrkw8nzVOWrYKWKGUE1INaQNsO7na2Gq8D7jF2yCOiiFYu9EB9ZlGyAbX6cgvi7L2Fu186qQUuvhqkhK+Kaq2FG40beijgSnxMm48/FQTgQXwdhB2ErDsIXC8fWLhxdHo6tXXRMpYQLqAZzjR6PAK4UtwCvHpcArpQwAV2eUHMYGn8GyR1uUAgvHdAPsn78HqvcyABwpRyaQ4gsh4rMLKg7dFTNCyuETYjP1NUjxAcNiLEaLl67ATY+/rA6/MFCmE5bWtyto7dL2qqGAyA2EbYqYTuEqTqm7Tapy3suAUyfp1lTWPnQg1C+ca25JKlSzeXqe0dbu2dRk5ZCeb8xvGwNMVPDFlXRhDPND+sgXwjhi0VBTBVxVgZU4R8Bh+bHQ74O8awISMOKeF73rj6IEeFJ1KiFPwOjGr4eZjRtjNVwU4jA54VJeJ2DsByOr4NwYP4nCN96a98RKSmJsGXLJgdhKRxbu3B0eTi4Uji2duHo8nBs7WJBapdwAdVgrtHjEcCV4hbg1eMSwJUSJqDLE2oMQye0agWJbVrBght7QMYXn0IhPukfjDXnf7VY8PrdFxuF1WKCas6qzi30DUmbCHshzjsAFVgNl+3YDVmjR8Hqu/r5OqVvMoalF3XpAInNtE5pK42Mgx2oMYturWVKEsKzEKhY/DlS0xbhSxVwHP4fWDqgPxxdkAQN+VlwqvSY6l6m5UZ0fKFapqR2ziKIzb2k1X2EsnVfrmrEqscnDKuL2gA50QB5HjVyRTFgfXtCq2qYwMZraBhaDVHPjVZvq/vxbZojJuypWetQSpwX4jwKVsRpX400KmL83VkIUzVMS5UIYAviGS2awzT8fzQJ3+cgHBiOr4NwYP5nCEdETIO5c2Ph/feHOgjzcGztwtHl4eBK4djahaPLw7G1iwWpXcIFVIO5Ro9HAFeKW4BXj0sAV0qYgK4QGqqd362rmgfeOuhVyI+YDAcI4GARxlBH8fHtu9TSpNNVNXCe8NUgPn/mDJypqVXNWxWZ2XBk0VJY/9D95lnDvm0sCWLa4pL2ko5vTNtY+kPsfd1EmM8JE8B0mANVv2rIGq+lvaiX3N4PDs2bg5XtXtW5fO5kg7F+9+wZOF1W5K2AeUXsXcJk3VewX0GsQkPYtKyJOp730nKjjVC0NFU1Xxnzw8Z88AGaF6bXMYfnJ6ih55J1K6F0w2ooWbscji1fqCpfuv4w3pbj56nL3QflOzapj1FNWuYcca6C+DOY2wUhxscKdUJTM1bCTX0gtnMHNRxNm3jMaNYUotq0hin4s5gYajRqcXwdhAPDAXYQ/i8jfPPNvUd89dXnMGLEJzD8vSEOwjwcW7twdHk4uFI4tnbh6PJwbO2iYyolXEA1mGv0eARwpbgFePW4BHClhAWCy0PD0PO7doUk2kjjnjsh5+cxahiaGrAOxAY2YUmNWeo+rOiKV61UQ9L1R4rgPA1Jm1WwCmJMEJ+qrIKq/QVQsmkb7Bg8CFbdbi5X8u4p3R1WIMTLenWBhZ1vgKTmTQ2MrzOHpln07mgLYLWJB76PNv5IatcO1v79cShZvlgNL580h6GNbSiNjTRoZyw6vMGLrh6smuuz06Fu706oy9wOdbu3QG3aRqjdZSZtE963GbMVajE1uzZDzc5NeLsJqvG2ctt6qNqxEWrSt0PNnl1Qm5WBfwjsQ2Tx82Lolt6utTqqaegbAaZNQugPhmJEmqplQlgFK+vc6GlqaDqhb2+Yjv8HCOHk/rfBZnzOiuvVXW3iEUkQt2gGszt28ELM8XUQDgwH2EH4v45wrxFvvvk6PPbYIzBs+DsOwjwcW7twdHk4uFI4tnbh6PJwbO2iYyolXEA1mGv0eARwpbgFePW4BHClhAWiq4eGoalbOLFta1hwY0/Y8/VIKIyOMCtcQtisehW25m2M3X0z4HACdUmnK2TVUiVrONqqiAni06fhRFkFVGI1XDAzGtb+5U5jSFo/WYkgxtBe0wrjTjdAYjMLY4Yw/Y4J4f/3/4whaBNgqpoXdO8Ou//5IRzHirMhP1vtinXmeImqfvUdrX45fcoYkrYqYdq4I3cvNBC8W1dATdJUKJs4Akp/HA4lP7wLJd+/A8V4W6xu3zFuv8e3Rw2FktF4zdgPoWT8J1AyaSSUTv0SyqLGQEXidKhcngDVW1ZCbcY2qN+Dn3vPDoQdQ69npUM9AkyVdT3+WwlhWltMc8RHFqeoYWkDYRqaJogjIGPMd7Dk0YchtkN7WPb3x2DPzz/ChrcHQUzH9hBJEDcliJtDVOvWMBkffxxfB+HAcIAdhP/bCPftNeKpp56AXr16wNBhbzsI83Bs7cLR5eHgSuHY2oWjy8OxtYuOqZRwAdVgrtHjEcCV4hbg1eMSwJUSFgivN/h+2rgiuVMnTAfY8vpAKIiYbAxB64kJNjPgUNxsKN20RQ1Jn61vQOx8+OohoBuOlahrt7/xijqT2LuNJT9pyZwrpn2nF3RsB4lNm/gNR1sI0wEONAdsAbywd2/ImTAWqnZtNbamRIBpHvj8mdMkr98hC6oSpo01FMAIIOG4EsGM+g6qp30O5eM/gvKx78HxUYjtl69B8ecD4djIl+HYZy/BsRFm6HUVup+C13z+Chz7AoMfU/TlG1D0FlrOrAAAgABJREFUzWAoIrBHDYHi0UPVbRG9Pu4jhHo0VKRGQ/X6RVC7bQ3UpW+B+qw0hJnmh3fAweQ477yyr1lrBmRPnQh7x/+kbvNmRcK+iWNhyWN/g+g2rSCyyfVGmjWBCPwDZhI+djjADsIOwhzf/ynCfRHhd94ZDM888xRWwu86CPNwbO3C0eXh4Erh2NqFo8vDsbWLjqmUcAHVYK7R4xHAleIW4NXjEsCVEibga4bWzSa2baOqYOqGzhk32hhW/jcQVg1aC+dDRcY+OFFShlXvmQCAjeoYIT5xEuoOHoajS5bDxr8/Ys4NM4StfaYtjPsgxj06Q2q71qoqjrv2GmPHLATYGoYmoBf27An7J/4MNRm7vNUt7QntPaZQr4KxUj+N1TEh3ZCLlej21VAT8yNUT/0MqiZ8CKVY2eZ9/CoUfvYGvj4UKhDj8h+HQum3b0LR569iXjFjwWziLOSoGbru6MiBKgR1ESH9zZtQOmYYVEz6BCoR/ir6AyD2R6hdGouV81Yo3bhaNW55AY6hOWJq2vJFVckIceaPP0DynQNgZotmiHAjoypGiKfh/82J+Lt3EA7E10E4MP81hOcjwrkawklJCbBp0wb44MNhDsI8HFu7cHR5OLhSOLZ24ejycGztomMqJVxANZhr9HgEcKW4BXj1uARwpYQF4kuxtqZM7tTRGIb+5nNvNzQNQVu5lMYsNU9M1XB8LJRt2wG1hYfg3Cl5SNq6j6rlyj3ZkD9jJqx74B7fLlp+COsQ4+sI8bIbu8KizjdAAkF8tbF3tKqC8Xua37kz7P3ua6hO3+EP8KmTvgMXtJzD+2mZEg0/161NhZqZ30L1hI+hevyHcPzH4bBv6Euw9aUnVNLffh6OfTcEq+L3ofLn96HiJ6yOfxwGpVTNfjsYq97XEdVXofgLA+UiQtZbGb9svE3ofoHXfPU6lODHlI56F/GlYWyEfcxwNeRd9vNHUB2Hf0QkTYGahIlQkxIB1Wmb/ZYtGY1aDOHZBDTeRkfALlrO1Lc3zGjW2KiGmzaBma1bwRT8OU0I9Z8f5vg6CDsI/88QfuCBez+ZOmUirF272kFYCsfWLhxdHg6uFI6tXTi6PBxbu+iYSgkXUA3mGj0eAVwpbgFePS4BXClhgQCrKhi/XzUM3bkjbBr4AuRPn+itgv9VhNUcMn2OOdFwbNliqMmjeeGTgQCbjVpWtzRt5FG6eTuk//MjWH3nrRq6RoOWNT/sdx81bvXuqipimiOegz97qoITW7WCbYMHQcW2jWpOVQF87BACfEI84YjODj5dXqqWH9XvXAc1VH1O+EgBTCn+7l1Y+8gDsOSuO2AxZvlf7oVtL/0dK+PXoPiHIXD023ch95+vw56hL8Lut5+D9Heeg7x/vqrmiwnm42OMirnkG6yiv38LysdQJT0c8z4cR8AJ3vzPBkHGsBdh1zvPw+53X4A0zJ73B0L5tC+hZt4EBXF17E9Qu2kZVOzYBIXzYsxKmMIrYaMaptdzZk6DLR8Nh9iuHY1KWA1LN0WIW8MkfCzqEHN8HYQdhP9nCI8bNy706aef+Pi+e+4YMXz4u2cCEf5RfaCD8EXC0eXh4Erh2NqFo8vDsbWLBaldwgVUg7lGj0cAV4pbgFePSwBXSlggwN5mrBvawpLbb4OccaO83dAKYYWpeWshzJqwDsyKVMcaFkROVa97r6fPM5v2kp4DFekZ6kSlX7Tds7wQI8BUBdNyJdrAowKr4aIVq2HLi8/Cytt6++D1q4TN1/tYEPdQQ9MJ1zdS1XA8PsaX9rtNdUGrJiysgk8ePaBOOvKe/6sjTF3R9cYa4YY926Bm9mioorlfxLXoyzeh9Lt34MgXg2H1Q/fDogEDYGH//rDwjgGw+O67YMUD98HGpx+BbQOfgu2vPQ3bX3/Gm52DnoVdg5+DjCEvQhlWtpXjsGoe9x5Wzh9AFYYq6JLRwyBvxBuwG+Hd8eazsB2z463nYNsb/8A8A2l4fxlCXTVtJNQkTkKMxxvV8O5tUBgfo4aiFcKzzcSYQ9F0a92H2TflZ1j+zN8hum1riGzcCCIQ4gisiCPweWWi2zc/zPF1EHYQ/r9H+EFE+AdEeDwiPMceYf3lvfeHnHAQdhC+ILDBXKPHI4ArxS3Aq8clgCslLBBhqwpO7dENMkZ+YnZDm1VsrHHrjbBEia7f98PXsObRh2DHsLchd/LPai/lgzEEsBnE+9iiVKg7cBDO0cYd2jIlbxVcVwdVOflqP2njcId9cDh1gbmTVk9vxetXDdPrhLAJMXVO05A0NWklt20De776Amr3pBkAW0uR8Gv6AUxBgM+fPGEMQ+/PhNrFs6Bq8qdQjtVrxiN3w+L2LWHDXX3gwMcDYdfrT8NKhHjpPXfBEsrd5u29d8PS+++BNU88BNteIYyf8QtBfOSbdwx8xxupQJCPfPsOZGDlbOGbNnQg7PvsXcj+YhhsH/y8QpgqYpofLv/5IwVwNaZq1g9QnbbFh7BasqRDrIFs3peL12T8+D0kDegHM5rTLloWxI1h6tVXeeeHOb4Owg7CDsIOwoHY2oWjy8OxtYuOqZRwAdVgrtHjEcCV4hbg1eMSwJUSJlfBCW1aw6qH/orV7M/mkLOFsDkErSdGG4LGqjcbn9SX3n4bJLZqCfO7dIJNLz2rquKDCmIDbdUpPS8Gjm/dBg1Hi4wdtPRKGF8/g5UwIUz7SavDHfbmwPFdGZA3bboxP0xNWqwxS0UBTPPFPdTcsNpdCx9zC3p0h7I1K4xhaOqELjlqdkIzgDHUoEXvJ6zr0zaa88AfQdn378LOu26BZa1bQEKjq2DjPX3h4CevwP4PXoGMt5+DXYP+ATup2sVse/lJVQ1veOpvsBMr2F2DsZp9g6phqoyfhh2DnoG9772sMK0kgBFjQpmA3Y7v2/n287BvxDtQEvUjlM4aCzlfDYftWA1TFVz42ZtQ+OHLkPf2s1Ax9UuonjtONWrVpG2GQtq8Q1W9wpxwjDEU7Ruangn7o6fDjs8/gTn4RxfhqxBu1ljND0++3BiW5vg6CDsI/zoRnjEdxiHCn410EL5oOLo8HFwpHFu7cHR5OLZ20TGVEi6gGsw1ejwCuFLcArx6XAK4UsI0hPHt2KtpSRI1Y/WAPd9+gaiaW1NeKDG+5E+fBBuee1p1VM+jChSf1Od37Qy7PhgKhTOm+iFMH3skJREqdmOleeCwuWTJBzF1R6vds0yEVejc4U1bIXPEp8aWlnTAA0fYBJhC3dILO7VTBz+seehBqNyxRc0D0xCzGoa2hp6tW3qVdsg6XoxQ5xtV8MJoqMYquHrCh3AcEU67px9s7NkVkq67GhKuvwp2PXkPHEKIj301GIq+fRtK8JrS0cOgZNQwKP5hKBR/P0S9TvPDmVThIsjeoWmsdLM/egWK6drvh0LGkJcQYAQbbwt++BjKY8dDxbxJcHDcSKyIX4LdQ16AwpGDIP/9F2HVLT1g30uPqGq4es5PUBWNCO/eAgeT5iqEjfgjHDg/bCR72kRYNfAFiGrXxkDYWraEzy8T8XHB8XUQdhBmCP9CZgmOBRVC+CFEeMyPP8CkfwfhSAfhQGztwtHl4eBK4djahaPLw7G1CweVJ1xANZhr9HgEcKW4BXj1uARwpYRpw9D470vq0AGSO3ZQkObhE7OFrG84eqZtYxYd6Zc95js1jE34xjWm/ZhpS8gmsKjvjZA16hvVYa0+j5W5dCjBMnWOcE3+QThdXas261BD0njbUFwKVVl5ZiVspDwzC4pWrkbEBsLK2/poc8IWwr45YTUv3LMzpOIfFtljvle7UVlVMH0NHV8FMOJ/trbKuzFHw94dUE1V8PiPFMI0HL338b9A+l/vh419boREhHjeNZdDcovrYfVtPWDHY3dC1muPwTGEkpYqVY7/0BuqdA99+ZYahrYQ3kZVMaGL96n7EeidbyO0oz+BirhJUBk/BQ789BmkDXsZ0oe+AAWfvApZbz2F31MnWI9/gOS/9Qx+XkJ4LCL8PSK8FQ4vSDQ27hAQ1hu1dIRz8XeXOXYUJPS7BSKbN/UOSdNGHlOvuRom4OODA+wg7CD8CT4vfobP+182a3aSzBIcCyoXQzjFQdhB+HePsMusghHghX17qxOS1MH0MQaw3iasCyCcR1XwP56ExNYtFb6xV1wOMR43xF13jbpv3dNPIOwTfKCbt4fiY6Bk3Tooz9gL1fsL4OTxCmPpEjVnNZxQOOtD0hV7s9U64yMLF8OmJx+DlbR+2IuwNk9sVcO9u8Kym/tA0aIU1ZClquATxr7Q/sPQ59UypZPHDhpLl/L2Qd2mpVA9bSRUIaJVEz5SS44OD38J9jz6MGQ8/BBsHdAfUps1hbmX4/d5Vbgaok5t2QS23XEzHPnwZaik5in6WJrzpTXFY4ZDGjVYEcCvGQh7Q3PFg56D7JFDoXzuRKhOng7Hpn4Hu4e/AulYAWcPfQ6/j26Q3LY5rO7RBb/2LXB0xOtQOekT1SVdNWuU2mmL9pmm84atOWE/hM25YD+EzXni/VHTYeunH8Lszh0RYLMabt4MZuEfMJPx/8n4sECIOcAOwn8MhD/F58OR6MG36NzMxx+H5V9+WURmCY4FFQdhB+HgwkHlCRdQDeYaPR4BXCluAV49LgFcKWFmFYxfO6FtGzUUvf2dNyF/xlQTXw1hVQnbNGbNilSbeSzs2wvm4ZP3nCuvgNn4ZDkrJARmu8MgrtG1kNqV1ud+CYXR0/FjI31BLGjtcPHatVC6ZYeqfE+UHkcQTxlzw7X1CLExLK2atAjhPdlwPC0TCqJnGYc8qE08WHOWiTFtbbnmngFQtnq52hmLmq0IeD+AVRVsLkfCSllVwdnpUBM/Caom/hOqJ2K1OWWEWpZURo1TD90HGX97GDIfeQR23XsvbOrdCzZ06wzru1O6wObePWD3/f3VHLLVdEU5/uN7iPDz3uYsBbGWXe+8DGWzxqpO58p5kyHrs3chY9hLUPDxK5DapS3MbXQ1rOrRFbbfezfseuBOKP1+CFRNHQk1CZOgOm682qe6ZN0KyI8z95KO0Zqy9Ndt7ts3aRws+Ot9MKNlM0S4kcKY9peOQIwn4OPKQTgQ4D8SwoTv52jF9x06QOyzz8KmSZPgWEYG1JeXHySzBMeCioOwg3Bw4aDyhAuoBnONHo8ArhS3AK8elwCulDBzY45rsVpt1wYW3XITYkoHNBCyM9Xwce7kcZCLT87W/LABsFYd4+sFM6dB2kfDIblDO5h73bXqnN5Zl11mBCGmqjgBn8zXPvY3yJsywbvkyeioJohnQAFWYhmffwZHFi+HyswsOFlWripi1SldW6cq4qp9uQrhSgpCXIZoZ40aBWvu7W/uK80rYeP1dX+5C0pXLlG4nqkoMzqiNYAVwvh16PQk73nBWWlQE/29qmCrJv0TamLG4O0nUD56GOQ8+zfY/Zd7IfPRR7AqfhTSH3wAtt16E2zp0xO23NgDNmN23nELlH33jrcSpi5oWnqUZg1Hm/CqYWkL4Xdfgoq5E6B2/gy8nQiZH7wGB78YrIag5zW9DpZ1ao8A3wM777sL9r/+JJSP+xBq5o6DmqRpBsLb18HxLeugYN4sH7BmpRuwREm/z7x/f3QEbB/5CczqeIMxJE3d0jQs3aqlWA1zgB2Ef58Ij8Dn0S/QmlGdO8O8V1+FHTNnQtn+/XCyxjgNDf8fHSCzBMeCioOwg3Bw4aDyhAuoBnONHo8ArhS3AK8elwCulDBjLji5Y0dI6dIJtg8ZjKBONbBFdGmnrCW33wJL+t2iIA5oyjIRzps6AVY//ICCNvbycAWvF2HM7LBQbzWcNfpbBa9fkxYmf9oEWP/k47DinruhMHY2VGTugRNlxw2IafeshhNQf7QIqvfnq2HpShqaRoiL16yHnW+9CatuvymgMcvK2nsHwCH8d9LBB2fravA5w1wXbL1YJyVZ+0PT0YQ5GaoSrkaAqyd/ArXzJkD19M+h6ucPoWjE67D7vgFYET8Iex57zAvxdvw5KYixEt454GYo/fothTABXIRVK23cQc1Y+rpho1uahqapEn4JyqJ/gpr5kVARhwi//xoc+WowbHygH1bB18D6m3pDGn7NXX+5E0q+edtcJzwFMxmqZo9WBz1U7t4OhfGz4VIas3SIM8eONoakzQYtlRZNYUbbNjARH6MOwoHh+P4uEMbnvM/wufjrFi1g3E03wfwhQyAjPh6qjhyB0/X1cN5a2me8HCCzBMeCioOwg3Bw4aDyhAuoBnONHo8ArhS3AK8elwCuEFqSNLfRdVgFt0Nsb4X9P4+Bg/hEXDgrErLGfAeLbu4L8QgrAZ0zfkwgwCbCVD2ndu+i5oL9qmCtGqYh6sRWLWDj88+oHbgkhNc9/ggs6N4Z9o8eAaXLErEizoSGohLVKU0QE8inq2ugJu8AVGVRVZyjjkY8ungZbH76cVh5641+88FWCOjMj4dD7b50Yz44oCHrLJyuLIMTh/K9CJ9AsOt3roeamd9A9ZRPoTZ+ogHx1M/U3HDeq49D2j0E8UMKYV9F3BchpkoYESYoaXtLvJ52zdr5JnVGG0uUKFtfewrjmxemdcFZI4eohiwD4Vfh0BeDYN19N0Nyq+aw/f77YPffHoJ9zz+Cn/MDqKG9o2nHLNpIZNYodaBDNX6PdMaw3JgVuERJr4b3z5wG2z//xKiEG1MlbCA8vUljzPUwGf8/6dUwB9hB+LeP8Ah8nhqJz9Hftm4NU++5B5aOGAHZS5ZAbXExnKGlhOz/jvlygMwSHAsqwSC830HYQTgAVJ5wAdVgrtHjEcCV4hbg1eMKBFeK6ohu316dkrRj6DtQOGOaGhrOnTgWVj30F0ho3UJ1Oqd0ag+ZX30GVB3zxqwDURGQ8dk/Ibl9O4T2yoAq2EqMKwzmIdLUKZ3z82jvumFrfjl/2kRY/9QTsLBHZ8gd9TGU0PGAK5PVzlp1h4/B2foTasjYWxUfK/ZWxeW790BhTCysf/h+rUPah/DKm3rC5qcegWqsEs9bTVn0Yg5J09zz6bIiYz7YQpiq4dxMqFsxT60Trpn1A9QlT4NarDprZo+B42Peh5xnH4b0B+71QfzYo7D7r3+Bbbf0UZVwCVaxVDmXI8LZH76i1gYTvlT1bn31aVhH64ifeww2D3zSaNZ64x+Q/t5rqjOaEM5AhGk4et8bT8D62/rArgf+ChmPPQhFn78JlVNGGPtG0/KkyK+gZtlcqM/dq84b9i1TYgjPFhCm3zcmC3/+2z77GObd3Acim9PyJF8lPB0fAyrNmsIEfPw5CP/+EP4Mnwu+xOf479Gu6Mcfh3VjxsCBTZug/vhxOEvby8r4Wi8HyCzBsaDiIOwgHFw4qDwWpHqCuUaPRwBXiluAV48rENyA4HVzrrlabU+50IIRn7gLZkyFHcPeUTCrpUb4JJzcvi3sHPY2FM6cGoBw3qSfgU5Zomtj3K4AfL1D0qEhqlOasN790XD8XNP8mrzysDqmpVELe3aB/J9GQAkCU5oyHcqWxkFl+m6oLTzoW0tsVsWnKqtURzUNTZdt3QH7vv0G1tzZj1XCRqPWhgfvVccWnquvC2zKOn8OTldQJUwI057SZujM3v0ZUL95OdTEjIba5KlQlxoJdSkRqjImiPNffxLS/3onZP7tQTVHTF3TaffeDTvuuAWOffoaVI4zNuI48Plg2KUqYWMYmuBdct/dsOjuO2H5g/fDppf+riBOG/IyHJ89zpgTRoSPfvculPwwBHJeeQLSH7kPjo54AyrGfwzVWPnSKUrUmEWVcF3mNmgoyIXa/XvhUGoC5NHvJoZXwr5q2EI4d1YkZI4bBateeg5iu3cJANhA2IB4GlbGU/D/3gSXsXaYA+wg/BtDGJ+TRuJz5NfoyI9dukDCK6/A9ogIKN67F05UVcG506cDRo1sXg6QWYJjQeVXi3BMq1Ywq2nTQHR5OLhSOLhSOLhSOLo8HFu7cHR5OLhSOLZ24ejycGztwkHl0TG1Esw1ejwCuFLcArx6XAK6LN4quHNH2D7kLYUvzdXSnO3CPr0gDp94Y664HOZcdSUktm0FW157CQoiJ/saswhifJ26oud36QhzEVjVES0AbGUOfr745k1h1V/vg9wpP5vNWUZjVn7EJNj88vOwsFdXKBg/EkoSJ0Fp0hQonT8NjlNFvDsDagoOqm5pa1MPWkt8qqIaqnLyoGJPFhStWgPbX30JVt7a2wewjvDOLXC2pgrRZcuTaE64oQ5OHirwNmZZJyypJq0crIhXJSl86+ZHGsHXa+Yglj99ACVfvAl5r/0dMh+5FwEegOmPFfIdqhKm+WAK7Yal1gKbzVibX/w7LEaAF9C+03fcAcsfuh82v/Qk7Bj8PBSO/hTKEOK9Hw9SpybROuPyH9+DMsRYbXM5+ROomTtWzQnTTll0eENDXhY0FOZCXe4+OLpsIeSrZUpCE5Z2H+2Wlfbdl5By9wCYRRt1NKUds8ytK63GLA3h6c3w/S1awESPUQ1zgB2EfyMI4//9L/B5+Fs0ZnL//rDogw9gb3IyVB89Cqfr6oxmq0t7OUBmCY4FlV8twiueeQYSevWCOe3awezmzQPxdRAOLhxdHo6tXTioPBxUSjDX6PEI4EpxC/DqcQWi6xe8JhZxndesCSzo3Quyx45Wm23snzQOViKQNA9MAFvd0wktW6gqNT/COE3JSkH0NEj7+H1Iwmo69sorbIeiVf78Z1+DVrfOkDP2B1DD2wrhSPzck2HroFdh0Y3doHDiFybCk02II+D4umVQkbFHLVcyDn44Y1TEJ09B/ZEiddADbfpxZP5C2PDIA75tLRHglfj6lmceg+q0bXD6eKmaAw6ohhH0k0cKfQDrKciBeqw0axMmQV3ydC/EtQmTVcc0HbpQPmaY2lGr7DvKO0bwvjJElM4cVpXwoGdh2ytPI7Z/hzV/fwgW3nkHLMAnQcrCu+6E1XgfDVOnD38ViiJ+UJXwsR+GYuX7IVROMELd2pWTPoaqGV9DVcSXULd5mTpmsYH+WECE6/OyoWzTWiiYS8uUTHAVutrrNAQdNd08zvBGmNmiqTpFyUDXDL1uvm0gTHPDRmhumDbw4AA7CP+6ER6Jz2Nf4XP9aPzje/YTT8C6UaOgYP16qCstvdB8bzAvB8gswbGg8qtFuCo3F/Lj4mDL++9D6p13QlynTiBWxxxcKRxcKRxcKRxdHo6tXTi6PBxcKRxbu3B0eTi2duGg8nBQKcFco8cjgCvFLcCrxyXAq4WATcTHKOG58YV/qO0mC7AqSh/xEaRQVXvt1QrfWfiER5mHj6G1TzxqHGmoKmBzKHraBFjz2MOqKzqGvu7FEA6hIelr8eu2gZ1D34bCGVO8lTBta0n3LerTAw5M/gpKLICT8TYZbxdGQfnmdVjx7lMVsRqaphOYaC0xvk73qWHp7WmQ/dNPsObu/t4h6dX9b4a9n/9THd5wqviw+hgdYGNe+AycKj3mXSesV8LG7lk7oYY2xEia6kM4fqJCuGLcB3D8p+GqAYtet5qxsj4YCOl0BOFbzyuAt7z8pDrQgQ52IHQXDOivKmFCOBVvF993txqW3oHXZ385XO2elTn8ZSgePQwqfjYApk1DKJUTP1ZzwfV7dhgAH8gzEC7Yb3ZI00EOZuVLt1YlrO6jIejRkNjvFnVwgzrG0GzC8ovVmGXNCas0gYhmzVSnNAfYQfhXiDA+73yBz6nfYiH3c+/ekDwY/xiMjobSrCzvkPO/ga/1coDMEhwLKr9ahNUWeg0NcKKkBI6uWQPpo0fDiqefhoSePY3qGP8jOAgHEY4uD8fWLhxUHg4qJZhr9HgEcKW4BXj1uALh9auC8eeX2L6d2mKSDlwgCPdP+AmW3TUAq+OmqmvaAlh1NuPPkZYgEbp6ZzR9jBq6xopJ7IpmCNMtdUnThh6Lb+4DuRN/8nZHF0ZNg93/fB8W39QLDkz52kCY8PVmKpQtmg3lO3dg1ZsDdQePGOcRnzMOfDCOPixU64eLV6+HbQNf8A5Lr7v/TihelIxVYpZahkTg+r0Qwr+cxwrbOLpQb87yDkmbW1gSvAbCEVAb+yNWpx/B4S/fgsx3n4eMd1+Ag1jxUvVL5wmnvf28bw74pSdg+V/vg0WE7x0DDHy1EMILzGp4y2tPwY7Bz8G2Qf9Q21rSoQ6F+HlL8POWjX0PymmIm841jv4B6rN2GwCbqUeIqzJ3KYR5Y5aVXDpL+MNhMLvDDQbAZgIQNuOPsAHxVPxjajw+nhyEf50If47PWV/j8/ootGLmgw/Cyi+/hP1Ll0JNUZG0xOjffTlAZgmOBZVfLcLebw+fIIwmlEqoxL9ecmNiYNPQoZCKfz2r6rhly4tjzMGVwsGVwtHl4djahaPLw8GVwrG1C0eXh2NrFw4qDwf1V4rwbPx3xLdprQ5ZWI6VVy4+6KlJaufwdyG5Y3uIpZ8ZPkHpCNNmGzRMTeuBVUc0hdYRfz1SdU6rypmu5fAKCFPFTEuZ5nfuCFk/fufbuAMr8cwvP0Wcb8RK+EvfnLCFsEIZIV6eAOW7d6t54FMVlWozDwtia1MPGpY+GJ8A6x+k3bR6wYaH74cKrKIJU0KWTkmy/m/p/8/oVCWqlE8cNCtgL8LGcHQ1Vp6UWuqSxtDrtAFHxrvPwY43nlKnJNFmHHtpa0s6rEF1Qz8DW195ElY/8gAssoafLXzNoWirEqYsuucuWPfMo7CVuqjfoI7pp2HroKcR5WdhF6KeNuQFyBsxCMonfAzV8yZAfU4G4ptrVsJ5qhKuSNsKhfMCEbYatXKmT4KVL/wDotu0+tcQbtZEQTzB43YQdv2KEMbnkC/x+fM7qnqxWEt67TXYPn06HEtPh4aKimC6nP/VlwNkluBYUPn1I6y90F8vZ/GvmIbiYji6apWqjlfS3DFVx23bGtUxB9hB+MLh2NqFg8rDQf2VIkxV8KLbboXUXj1g7/dfqV2xsn76Qc0Nx+ETrF8VTCGE8d++AsHOmzre2xmdHzkZNr/6EiTiE3lMuOfCQ9EWwv8/e+cBXkW19X2f97v3vu/12r02ei8XFASUIgJiL9gbomAXBKyggiigSO8ltABJSCUJvffee00CyUAILbTQ+13f+u85czLZmZNMjiGJZP2fZz3nZM7UPZP922vttfcgJM37VCHpyhVp7detaQ9C0vCE+Tx29O5GsxjCGfqELQBbxl7osWUL6MRWvPTBoKvnzpsQtoEYGdOpK9fS5o4/0aJnGtGGtl9Q2sa1JlCt9wjryVkwlaDl8YYzQDiezm5ZTWljupljhmNHqLA05m0+0PMb2vRVc1rXiiGMVxS2fJ/Wf2maNR541SfvqncM26GrGxrVylRY+jla8amZLb0aBhB7jUHPnnEq3iU8dRydjd+mwtDKGMRndu+iw8sWevuEM0DY0x+8c+RQmvbicxRUrjTDt5hDOLoYBao+YTuEPZ8YM1wKmdLFaPj95rhhgXBmAOclhH/n+qk718/92OsNfvVVmv/77xQ3cyadOnAgPdHq+sDXkgFmOXDMlf2lIOyV5R2fPEknd+2i3RERqu942rPP0oRq1Sgcfcd271gHrpPpwHUyHbq66bD1ZTp0ddOB62Q6bH2ZDl3ddNj6Mh2ouulALYAQDuVtI/k+xjA4MUVlfMBglZW8/JPmKgM6givVDF4wjOEa9u+7ae5zT6n3AlsQjh8+SL3sIaqki1C0HcK8v8gH7qeYMqVo/ovPsyeeniW9a2BvmtWgDiUO6UqHYzyesDIbhPnv1GkhdGzVMhWWPp96zHzzkgfC6u1Lh4+qFz4cmDWPVrdoRkns+Z3ZuZVhagL1woF9pjds7xf2/F+pVxkeOZihP1h5wgrCv1Mae6CngnurJC1kKR8d0J7iO35hgpgBua5VuplTUjajpe+/QTOeSU/CysoTBoiRsKWStDCRx5eAcLrhb3jEhwd3pNNzotTYYOUJe0B8Om47Jc+YrL1JydYfzN93BAyi6Lq1aVzpEjZP2MqKZgAXL0Yj7/k3jS76gAfCdm/Y9h1zSvMzJRDODODrDmGuL7pzXdkH2er16tGUNm1o/bhxdGjbtuvt9TrJALMcOObKchHCoxnC/RnCv1x/CNuEykf1HR85QgeXL6dtQ4fSok8/pdjatSmSzyOMb5IrEOvAdTIdurrpsPVlOnR104HrZDpsfZkOXd102PoyHai66UAtgBAOu/cemlS9mnpb0qqWn6mELAxJmlb7EXOcLzza22wAhgHCfG5znm7MELaAOY6B2UclcUUVK5p9KNoG4fG3evqF2ZOaWuMhihvU15shjeFOsxrUpd0Dfk2HsJWYpTxij/H31Bnj6diaFZS2K54uHj/JjVLzFYiqf5i947S4PXR07QbaM3o0nWBgn0vclQ5WeMMnj5sJWhn+mUxv+NrF83QRb1OyJ2ZtXWuGo4d2ML3h8IFqSksMGUISVkqPb1QoGp6wMkC4JULR79GC11+i6U89SdMt8Noh7Pm0Q3gaQ3jeG01oFW9recMKxvhsZUI4degvdHrpdHNokg3Cp7ixgck6spo7ehs7C+HVH0r3gpUnbIdwURp+5x3qXcKjixbJCF6bZzwK6/G9HHJ7ujesw1cgnIsQ5v/DP7hO68kO1oCqVSmiaVNa2qcP7VmwQM1opfp69Wc6b2SAWQ4cc2XpEO7NEB7y14OwV+jTYi/g0qlTdCY5mYypU2n977/TnLfeopgaNSiiYkUKRWa1Dl+BsDvTgaqbDtSCBmFeHsFlDy94Ss3qKhSdMGoYLW3+nuofjsSUk1jvNicI30WzGzdUL3NQs1uNHcFe2edqO+U935ZNKNoO4Vs8/cLFiqgXPmzt1lklZe0NG0vxQ/vTrMfrUHyvDnQoelg6eO0hae+yUZQ6nT3ilYspbSeD6PARBV/0EV89f55O7tpNx7fspKPrN7K3uMsD03SoIkHryqk0zxuVHMYNnz1NF1KMdAjv2miOzUVWMpKiRnUxPz0vZzjY61va1LZ5OoTZizUh3JQWvmnrD7ZD2OYNeyHMNp295sXN3vBMaWmCV/UR2yE8vAudWb+Yzu2J8wJYDU/iBkdi1HiVAe0FcZgHwp7v27ieCnuoqgfC6eYdkuSB8DC+9wH8OaqYBWKPebzj0QhLly5NQ+9M7xvW4SsQ/vMQ7sb1T0+uf/tzHT4OU0l26EBbo6PpeGIiXUhLoyt441jeeb1OMsAsB465shxB+KsvP3/ik49bpLVp3fJi+/bfqhUKDIRtQn8XMkcvHj9Ox7dupfjQUFrZvj1Ne+YZb7g6FOFqgXBm2PoyHai66UAtYBBGQlZMpUoUU6E8zX7qCZXZvKN3d5r6SA32gkuqccOZQtEwQJiPObPBYwrCSMxKGD6IZjV8XI0zdnphg6NZELb6hblix3uG7XNJxw8bQDMfq03bOrWlQ1FD0wHsTcyyQdn6Pj2Yji6dQye2bFV9xBfTTql+YbwS8cQ280UPZ3bHmQDWs56RTZyYoGbRUl60NZ0ldPWqB8SmR3wO7xdeOk29xCFtGHvDALD67KCyoRGSXt/6A7Nf2GNWn/DKj9+hOS8+rzKjlTecwRNurELVSMia8Rxm0HqGZr30PK38DH3CCEebfcHpn++r1xseHdWNzm7fkMkL3jcl2hOKHuuQmGWGp7cPHUBh1R5U/cCZ+oT5U0GYn5lhfN9MEN/JXi+DWM0hbYWlS5gQRoLW3enDlXT4CoT9hDCXaQ+uK/uWK0cjHnuMprZuTesCAyll/Xo1laQa12t/XvNXBpjlwDFXliMI169fp/O6dav5//Mydfz5hwILYa/gHavhG2dVuPrQihW0Y/hwWvrllzS5fn2KwnshkV2NcLUOXCfToaubDltfpkNXNx24TqbD1pfp0NVNh60v04Gqmw7UAgbhML7WiVWrKFvZ8lOK42d1/iuYH7ocRXHFmykhy7Jb8U7gO9XUloAvwsaA9+Tq1dTQJHi1OYawZ7wwQuDTa9eihGHmUCVAePqjNWjlB69TSujAdNhmZ1PHmrNqbdzAHnCCesGDAjBs6046uWWT8hJ1CKdtWU/bev1BB2ZOpVO7ttOltBOqrxj9wsouX6Irp9O8rzg8t2MDnYoOoLThv3gBfGxge0rs3Io2wgtW8LX6hM23IykQs0eMMcLoG57z0nNqqkrMkgWb9fyzag7plZ++y9ZUjRNewQC2QtDpZgJ4XZsPKK5TKzoe1JvO7tzsHZqEhKwjyxdREnvB5rzRGZOy7KYgrMLR6ZnR9uxoQDjg9ttMCLNhdizMkjWal9uzpBWEef0R/D9rJWjp8BUI5wDCAC+XZZ/SpWkIppH88ENaMWAAJS1ebIab8ybJyh8ZYJYDx1xZthCezBCO90C4Xr1anUNCgmjKlEn040/fF3wI2+UJV18+fZrOHTxIKfPn05b+/WnhRx+Z/ceVK1MYZubKyivWoaubDltfpkNXNx24TqbD1pfp0NVNh60v04Gqmw7UAgThUN4molhRmlCmFE3G6wQH9KFdg/rSlJoPK282sngx51A0DBDm36bWepjiAwaaWdGff6yym32+NcnJbBA2xx7fq17oMOWhqhQ3uK8KcwPCmAJzZt1alDymd+ZQtHcCD20Z/p48mlJnhtOxtSvVzFoYLwwIp67fTIlhEXR43mw6E7fNDC+rvt4EOrNzs0pOm/10Y1ryflNKnjSBjq5cSic2rKG07ZvoDEK9+xjAyYbaFm9hOrVmER0f28M7jeTujp/T+pZNafUnb9Oqjz320Vv8CXubl79j/sa2kpcv5wbGorea0MxnnqRZCDu/+yot//AtNY54FeD7BV7mYA1P8vQF2zKjMVQpsdu3dHJaMJ2NN5OyzuzZSSc2r7O9uAFhZzP0nNETNi0dwrY+YS+EzXB0Bgjz/QKI0f+LrOiMnnAJGsWNeGvMsA5fgXA2EOb/zR5cT/UpWZIGoZ/37bdpcffuFI/s5pQUunjqVG5NqHE9ZYBZDhxzZTmE8KOd27b9kt5++01q1/6bvxaE7fJkV19KS6Mz+/bR3unTaVOPHjS/WTOKrVXLN5B16Oqmw9aX6dDVTQeuk+mw9WU6dHXTYevLdKDqpgO1AEE4jM9/0kMPUXT5sioJCwBe/8O37BVXVnNEZxobbDcF4dt5+yq0s39P2sXAnPFYHYoGvItmP1+0I4RvsfULV6lEW7r8TEkhgQrCGHc8tdp/aO+o7nQk1p6UpUHYvsz7N9u0IDq6eCYd37BRecHHNmyh+NFjaeGrr9LeiPF0ausGOpdo9g+fS4yjo0sX0ILXX+Gy+A9NqVFNDd2azYBc/B7Dsw17uL/+TNv79ODr7k9xwwaxDaS43l1ox9fNafPHr9Gy156iBc81oHlP16c5T9SjWQ0epel1a7DVpLmN6tCi5+vT0iYNadkrT9DSl5/gvxvQ7Ea1aXKtaspm1H+EZjeuR3OefZzmN3mSFr35PC374DVaAWB/+CYtg330Ji3/5C32kN+htQzifQN/oVPrl9MZhvCpnVsodeUS2jspSoWhTQCPNfuEbUOU7IlaGSGsD1FiyBZzgDDbMH4ORhW5n9L7hNn4OcDblax+YR2+AmEHCPP/cE+Alxsvg5A8i2FFnTvTjokTVT8vZrLK4+zmPysDzHLgmCvLMYRbtPiAGjZ8nL5v9/VfF8I2efuP+caf2rOHjMmTaUO3bjTv3XcpRgeyDl3ddNj6Mh26uunAdTIdtr5Mh65uOmx9mQ5U3XSgFhQI32nOEx1TqaJ6YxISsQDhBW+84glFFzOzom93ADDMA+FY9nzXfPUlrWnbSr0JCW9XCr+fy89NUpYOYW+/8AMUW64MLX3vbTUbV/xQE8KT/1OBtnf+Or1fWPeE9WUWgNXfw02veFYEe8WrKHXNOooLGMke90M0o24d2tG7B6Uunk8n16+mNP6/Pb56OSWFBtOSD96jaXUZjg8/RJMZxlNq1aCpdRioj9ejmY0b0pwnGbSNH2OINqTlDN41bz9LGz94kbZ+8irtaP027Wz9Dm1r+RZt/Oh1Wv7WizT/hadpffNXKLFdM9r7UwtK7vIFpXT/mlJ6t6P9vdtTco/vaV+3r2hfly/ZWlHCjx/Thk9eo0UvNqSZ9WvysavT5NoPU2ztGhRTsxo3jrmBgPclv/Y87ej3B+2NjaT9MybT3pgISsKYYAVZD3xtEE7PkE7/9PYJ2xOzbHNFA7QBt2WGsAIxErVUWNoD4ZJmlnTAPWaWtA5fgbDH+P+2lwVerlPHv/QSzfv5Z9oWFUWpu3bR+ePHC1o/b05kgFkOHHNlOYJwfYZw+/bf0aeffkxOiVmDuLXcpctfC8J24QG4wg8CZudKS0igJG6ZIcMaQFYecqVKFIYJQXx5xTpsfZkOXd104DqZDltfpkNXNx22vkwHqm46UAsIhEN5v9HlyqmXMkyq/qB6L3AcV8Iz6tfjZaXMKSfxCsLbHAAM80B4QskSCr6Yb3pCmZIeeN/prj/YEcJmv3B0qRLsGT6u+pvjuRE7+aGqFMPL5j3dwBOStkPWY9awJe/f9mU2ME8bR4emhtGWXzvSjEdrMvDL0uSqVRhyj7G3+T6t/botLWn2Hs157hnaFTCIEtlTVklN7JUnBAXSHoZWYkQIJYYHU9LI/mR0aU172jenNe81ocUvP8ugfUaNn57z/DNsT9OcF56l2fx9Li9f+sZLlPhDc0rp/Akd6taKToztSWkRgyktejidih1pWswIOjUhgE6GD6YT4wdQ6ugetL9XO0r69Qva82tL2t2rA23v353mvvMmBXFZjb3n3xTC0ItigE5/4TnaNWooe7lIwLIg68mIBoQ94ehMQ5TCrMQs5yFKgSWK0oh/360SspwgjLD0CG7UjeZtrXA0ZtAaW6G8GjOsw7dQQ9gD3r4M3sGYahjg7diRtkZE0JEdO+jcsWN0+dy53J5CMj9kgFkOHHNlCsKvvkL9+vemgOHZQbh+nc49e/1B3f74jdr/8J0Xwhs2rqMxY00Id/4LQ9guNf7YBmTLQ57ftKk3ZB0OD9kOZB22vkyHrm46cJ1Mh60v06Grmw5bX6YDVTcdqAUEwkjImvLIIxTNXi+GJu0c1Id29u+lQq+qP5grd7XubQ4AhnkgDOgikQowVu8ZBrzvcNkf7AThW81JOzBeeBr6mxnAeLMSPGHVV/xgJdrR5Vs6NMEzVMm1AcDpdpiXHYgYQknDfqMV779Osx57lI9XnaY/UoOmM5jxRqcZ9WrTVv6/3j9jCh2YO0O9CjCFP/H9wLyZbPw5eyodmBJJe4f8Tks/aEpzm7xIM59+imZgcg3Yk41p1rNP07wmz9Paj96ipJ8/pZRuX9KBP9j482DPtnSk//d0fEwPOhk2kE4ykGHHQ/qpiTcO9mtHB/v/SAeGdqH9UYG0f1oU7Z0UQRu40RRWvhyN5vIaffttCsYhXP6x7LXvQB99mJWE5WSZk7LSE7PgCWdOzDL7g2/3AjgThD3e8Oji6RBW/cLFi6t+YR2+hQ7C/P/Zm+un/iVL0hDmQDhCzZ060bbISEq9scBrlwFmOXDMlWWC8IQsINygQb3OgYEjKSwshH748caGsF12D/lUYiLtnTaNNvXqRQtbtKCJjz5KUXjYypalUABZB66T6dDVTQeuk+mw9WU6dHXTYevLdKDqpgO1wED4HppY5T8UzRX5TPY444YNoC38cOM9wpimMsv+YJgFYa6cM0BYJXP5D2Esw6Qd2C/Au73nb2y/0+QH/6MgrDzkBnVoz6DOdCgmIKNHbAHX3h/sXTY8E4ixDNNgpoQOoORxvWnfmF60N7AHGaO6q5dFGIG9KTl2PMN3GttU2j89hlJmTVYgTlEQ9tjc6QzqSbQncjxt7v47LWrWlOa99irNZZv/5mu07ov3aU+XtrRvyG+UEjKYUsJHUkrYCEoZO4BShnWlAwzZg32/N61fezo4uBMdGN2TzyuA9kcHUTJDfv/MWNrP57GXj4N3/UY+WIVG830YdestNJbLK5jLRkG4Xh0bhE1v2G6+hijBM946oLcnHJ15iNLoYkUyhKIdIcyNgZEP3JfuDfMzMbJYUTVUafDtziHpGxnCPfm6+3C91b9UKRpatSpFvfUWLerShXbExtLR+Hgz1HzjgdcuA8xy4JgryxGEGzGEp06dRGvXraKfOrQvNBC2y+pDVkld+/dzhTGHtg4cSEs//5ymPP44TUCGX7lyFIphT768Yx26uunAdTIdtr5Mh65uOmx9mQ5U3XSgFgQI87oRfA8Qio6pVIEWvf2GSixa3baVmZTFlS6mpHQF4RIWhIsrU0lZ2E6HrS9zgDDGH6vkLLzasP03tLFjO5WoNYGXwaJLl6BZ9R+h3QN+MT3iDElYnrBzpmWYacsGYuvvTMs8cIbxskNTgxiyDOGZkyhxVB8yQoZR8tQohuIkBvIUBWh4xIAy4IypIY3YSEpCn6yySNo3mdefHq32kTJ7Cu2H8XdAHftKnhxByZPCKHliKO2LDaF9McFsIbSXP5Mix5AxYRwlcyPAmBZLm7lCiuTGkwIwl5fpBT9AIXwfxpcuSZMbN6SdwweZ0A01+4AzQFgty+gN4++4MSNpccvPKKRyhUwQxnzRI++7N0Mo2gnCasjSv++iUSXSIYy+4ZHcCB9yh7M3fKNBuDf/v/bjumxgmTI0omZNiv3gA1rWsyfFs4NywjDoPDssf+E+3pzKALMcOObKcgbhRvU7z5s/m3bviaMOhRTCdiF7T2VZnzqlhj0dXLqUdo4aRSu+/ZZmPPccRVerRpEVKlAYZuqyA1mHrm46cJ1Mh60v06Grmw5bX6YDVTcdqAUAwtYEHYAwoLu6TUvP+OAXKaZiOXPeZ6x/mwN8LQOE7zTffKQgXKq42i6cvTL1uw5bX6ZDmC2MK0IkZ02sWF5N2rHys49oYqVy7AkXUd6w8ohLwyOuTfF9OzKIbRN4uIGw/e9MyzxAtsLWk8fQgdkA7mRKGjeIdg/qQgmDu9KeEb0oKWgo7YsOpuRpDFP2UJNnTNTMs2wmvsfyetEM5AiGawgZEaMpMXgI7RnTj3aP7EUJAd0pfuhvFD+kSwZLGNWT9k4Kp8SYcFrT6SeKqFyJAm8zATzqFssLLsIQ5ntWvgzNeft1T5+w5flaALb1EYdpw5NCMWVlf4pmL3ocg1wfoqQm6bjrzuwhjN/vMBO07CHpGxrC/D/Ql+uL/nyNg8uXp3ENGtD0Vq1ozZAhlIRpIw8cMGevQlZz4QCvXQaY5cAxVyYQzi1Z45DPnKHzqanqdXN7IiJoXZcuZmIXtxajPP3IKmytg1cgnBm2vkyHrm4eCKM/eGqd2qo/eFK1qrS56y+0a0g/NQwHY4bNSTqy6A/2WBife3qfcHEzKesuwNtlUpYPCJuTdjxAMeVK09xnn6QFL79AsfxdecJ2EDP4Z9atSQl9f/b0EXvAmykxyw5mmB28GZfBA87w96RRdGjaeDowZwp7rRNoD8Myof/PFN+vIyUM6EQJgzorKJsGQFvmWTakK+0O+IN2j+hBu4f3UJ8J/HfCMAbu4M4Ux/uIH/AzxfXvyNbBYx3Vb1jXYGDHhwTS0tZfUFjZMhTIZTMaAFZe8O1eLxgQjvhPBVrZ7huKHzcqHboebzhDYpY3M9oMRccHjaaVP3xLoVUqZfSClSdcjAKLFsnUH+wTwrzeSD4na8IONVSpTGkaepdzctZfEcLK2+W6ZmDJkhTAdXpEkyY0/8cfaXNQEB1Yu5bOHD5MF0+f/iuM473eMsAsB465shxDeL5AOHtZM3WdO6f6kU8nJVHyrFlm2LplS5r6xBMU/eCDFMktyjBMn6l7xzpwnUyHrS/ToaubDltfpgNVNx2oBQHCfMxY9AezJ4xhN7sG91Ph6Mk1qptJWQw7n5N02AwTa5gQNkPRZlLWHe4zo7OAMN5FjP5fvF942iM1lOdrhaMViD2f0XxchKYT+nWiQ9GePmK7J2wfopTJ6824TAHYE4q2lh/m7Q9PDqSDM8wQ9L6JoQxVBvHAXxSI4/t2MK2fx9R3Xg5ADwaAu5MRPpr2sTcLLzhpQjAZ7D0bkQzJwP6UwN4vQB1vs93Du1MSb7MnMoi2DupLkxs1oOAiD3gBrCDMZTeWn7/gYvCCAeGiFPVQFdo2qI8KQysIWwC2Q9j67oFwAv+9dWAfim1Qn4LgBZfQ5o3mxs4oh1C0LwirkDR756NUv7A5VGk0N+owVMmpX/gvAWH+3+nHdcJAePTlylFg7do0+cMPaXnPnhQ3ZQodT0ig80issl6UULjBa5cBZjlwzJXlCMKNGzcQCPshbz8ywtbcejzCrciE8eNp3S+/0Ly33/Z6yRFI7sJ4ZDcg1mHry3To6qbD1pfpQNVNB2oBgDCGJ0WWKKG8Xox7jQ8YRPHDBtHkmtUpqlRJM6R8exb9wTD+PZIbSaovWHnCSMryzJT1JyHsnTmLgQDIYgIQfJ+A2b08XrDXipmh6TkN69Ae9kDNtyx5AJwhMcvyeG3msOywZxn6g5FBfSh2OO0P6U9Jo3rRzkG9lHe5NzackkKGmZ7tkN9sXjA83994eU9KDB5K+9Dfi3D09ImUGB1GcWNG0Oofv6dNvbpRAnu3iVEhZEzmdabH0r4ZsbR3ajSvF8pgDKTtQ/vT/GbvUli5sjTmjtu98PUa34OgIvCCi1FI8WJqiFIM38sdwwZ4Q9FuErN2jQ6gBZ+0oPGVK9A4NWe0ZaY3PAYTdNzhmS/aDYRhd2JO6WJmn7DyiEvQSN63U0i6QEKYz78v/18O4Od7cKlSNJzr7Uj2due1b08bAwMpecUKOn3wIF0svGFmtzLALAeOuTKBcF4LXvLly2o+a7xg4rRhqOSu7UOG0IqvvqKZzz1HMZ6+5HD+xwhFX7IOYIFw1gYA83pRXH4TSrOxJ4wQNKad3MkPOqauRGZ0tv3BbIBtJKAIAHsg7E3K+rMQ5uXhd99l9jez4bWIFnCdIIzPGAb1/GcakDHiDzpsn1HLa5mBm5XhbU3J4/rS7oGdafFrz9LEimUpiq9xar06tLELe7ljR9DuYPZWxzNMw8ZQYsRYSooKVnM0J0aGeF6WwJ5myFja3LMbzXrhOYriZzeUG5KhDKjoB6vS7Fea0DquF3YFDqf4oEDaMqAPLfniU5r0WF0K4/sTxM+GAu7NN5tmAZjLZ5yVEQ0IoxugQjla2Pw9igsMyATezGYCGGOe1/7akSK58TWO7+E4L4Bt/cF8T/Ws6GwhzI0Gb3IWjO9NIHuQQ+66s8BCuC8/8wO4XhjMjf2AihUpuGFDmv7557SqXz9KmD6dju/Zo7xdzNN8Vb1hS7xdFzLALAeOuTJ3EN5pQvippwDhOQLhXJTyki9eVHNa4yUTeOtTUmwsberZk5Z8+ilN5X8SK3QdXrIkhSJ0LRDO2hjC4QyB2c8+SzGVK5oQtqarZA9t4oNVcgRhBUmPJ4ykrAjMlIUZtv4shNnU/lXI2Q5d/W87jIvQxAplaOX7r9P+oL50JBbhZB+JWTA9HO1ZdjgmgJKD+tDOP9rT3CcfU/3OoQyPED6n4Jv/SSG33arKEBEDzDY2vUF9WvDGq7Skxfu09JMPaTF/YnjSlLq1KbJsWX42S1AYNxSCuUzH8j7GMkzHsI3law/CPePnNgzrqLeXFaNgfvbGchkG8rqBFnw1CAfy78EYF+wB8Hg+x1huTG3p3Z12jx+jeb66J2xCePf4scojj6lfT4WhAWAdwmP4fEbyOTqFonMC4UB+zkIerk5D/313gYFwP0CXy3pwsWI0jO/TmEceocnNmtGyrl1pR2QkHdq0ic6ib/fUKfF2/ZcBZjlwzJUJhAuYrElCMATq3KFDlLp2Le0OD6cNv/1Gi1q0oCmPcYVZtSpFcos7vEQJ5XFkAq9AmMK5oTLryScppmIFFY6eWrsW7ejbk5a+31S9BxjenpukrPThSR4Ic6Ubfs+/zd9zA8Jq5qwHMgLY2yfssMyzfOpDldUrDw9GDckxhA9FD6XEoV1oUZOnKJobFQi5BzP8gv/5T68F2Sz4XzczlPl6kYyGIV24fv4M4bIO4jIAcMfyeurTZoCwkwG6umWCMJfZOD6OyohGGBrlzvdtaavPKF73gtH/G5p5iFJCyBja3K8nTXq6MQUzIMfxtSoIa+FoJGQNvz1zQla2EOZtVIa0JxwdWKYkjeUGi1NyVl5BuL8G3cCHH6aJeCnCzz/TlqAg2r9yJZ1BJvPJk+bYXenbzQ0ZYJYDx1yZfxDeLRDOE9kTvPif5hz/8xxZtYormFDawC3ZRc2bm1CuUiWjpywQ9gxPMr1gC8Lb2COa8+yTFF2uTNZvTrKZetGC1xMurr57M6NzFcJaMpaWmJUOYV6X14/mhsHMOg9T4pAuaiIOV4lZbAcjB1Ncjx9peo0HKfyuOzKA1xeE7TbOwRSAYTfnHoQxPCm4qCcjmsscXjDC19sH9qE98IIVdG2JWd5kLNPQF72lf2+a8twzFFy+jAfAHkNSlicxawzvf9S991CADy84WwjzPfEmZvHnSN5vXkK4Px9rEP+fD0F4GZ5ujRo08Z13aFHHjrR57FhKXraMTqek0AWM20VClYSYr4cMMMuBY64slyC8liE8iiHcjyHcSSB8vWTvTwaUDx6kI6tX0x72lDd260ZLPv6YpjVqpMLX6JeLQJ+yBWUdvjc6hHl/8HYBYCscvbXHbzTj8Xrq74giD5gJXLdlBq/XuJLDZB7ezGh4wgwENVMWAJwbEL4V01felynknDEk7QzjmNIl2Jt9kpLH9TGB6/WGrT5fG4wZ1AfCB7L33IYmVSxLoXxOIf/3fxQMs8G3QECYz20s3z/A14JwZNX/0PrOHSkB/dMAsNfzzTxEKWE8+p170/SXX6SQCuU8IWiPF6w8YWtoEt6YZHrBARp43UJYDVNSAIY3XJxG8fcAeKK3Z8yQzhUIY30A/v77aViJEjScG95BtWvTlPfeoyW//kpbg4Np//LlGaAr/bp5IgPMcuCYKzMh/DJDuBdDeLA7CCcwhDPOmCUQzhdZUGZP+RKgfOiQGp9sxMbSlr59aUWbNjTrhRcotlo1iqpYkSLKlKGwYuwBok/5BodwGO8Pw5AyQLj7bzS97qNqWbbTVcL49wguI8ysZSVmZciMzgUI47dwgN4TZjYhbAOyvswLYdOmVK1IO7p8Y5tj2gJwRoMHvLXjlzSxXCkaz6ADgAsqhDFECV7weG9fcAmaWK827RjanxIZsrAM4WibwQPe3Kc7TX3uaRoPAJcyE7F0U33BvG8MS4IX7C+ERzxwf3p2NBsgPIIbvnqGtD8Qxu+D+f9mKO8voGRJGlWpEoU/8QTN/PRTWtm9O+2MiqKD69bRGW6Mi6ebrzLALAeOuTKB8I0kK3yNPuVTp+hCaqp6+QSyr3eOGEFrO3SgBU2b0pS6dVUIO4pb0hH8zx0Gbzk7IOtA1U0Han5DmI9nAdiC8DaG8NRHaio44x3D2UKYPV71kgVA2ANiNbY4lyGsQt5F/YCwegtTcZVYtS+wZ3r4WQMwZtpK6NORptWoyp636QEXdAiH4MUaVkZ0+bK04P2mnr7gsQ4QNj3juDHDaUO3zjSxQT0KKVeagpTXa3m/Nm/Y0yds94L9gTBeXQgIj7JDmO/HiKJ+QBjA5f+BIdxADihenEaWLUvjqlenia+9Rgu+/57WDxlCe6ZPp2M7d9K5I0fUsCHp0y0wMsAsB465MoHwDS5v9vWZM2pIFPqVU7n1nBgdTVv69KEVbdvSnCZNaCL/w0/glrbKdLUSvuxg1oGqmw7U/IQwW9g9gDAADBCXoqmP1qQtv//qGSNcIvs5o29DUtYdCrpmKBrTVVrvEL4t9yD8L0+GtD05C8C1e8b2ZRqEEZbG+4e3/NSKvd0hGfuE2Q7HDKPEwZ1p9mO11DZhSEZDolUBh3AQe6jji3tmyKpUkVZyBZQwbqSjJ4wQ9Xaue5a2aUkTaj5MwdzICuLtMkBYWTqElRd8b7oXnKsQzs4Txm/8vA8FcIsVo5GlS9MYrjMnPPMMzcZwIXi54eGUsmqVCi2rIUOnT5vZy1dv2Jcg/JVlgFkOHHNlAuHCJt1bPnqUzuzdS4eWLFETiGz64w9a1rIlzUYY2wbmCAZzGMDsC8g6UPMTwhk84VLmZB01qtH6Du1ocnXz7UkYR6xDVzdAWJ8pK+xuz3a5CWHeXzqEAV8NwPZlXgg/4DH2hvm8Ztap4Rk7jNm00iG8P7gvLXvrRYrFO5D5GOh/Rvgbxy2oENaHJyEretmXn1P8mBHp8GXPN56hvGPYQFrPdc6kRg0orHJFBd6gEkXTIawD2GOYnGM4318LwLkDYfQJl6Dh/H8y2IIwrzOUn+1h991Hw9nDHVWmjAJu5FNP0cyPP6blXbrQ1rFjad/ChXQyMZHOpaame7kSWv6ryACzHDjmyrKD8CSGcBxD+BuB8A0sgPnSJZXwhaFRmPv6VFISHVy82ARzjx60onVrr8cczWCOKlfODGUXLUqh6F/VgZrvEL47A4QnPvgfWv5xC5pY9T/Ko3U1RpjXSU/K0qarzE0I3+p5t7AFXOUF20FsW2aHMMDtAfHECmVpfevmdCB8kDcx63AMwtAdaOpD/1HrAcLKijCIUd4MvIIK4fSJOoqoPuFJ9etxA7Er7Rg6QNlWrrBWcKU0udHjFPFgFfZ+S1BQcQ98vRA2M6F1CI/l9UZrXrA/EE7vEzYTszBEaUz5shRYtgyN5P+N0QzccVWqUDQ83M8+o5Vdu9K2ceNo34IFdHL3bhVWVkOFkEAl8y//lWWAWQ4cc2V+QniXQPgGFyoEO5jhMZ/dv5+OrFxJSRMm0Lb+/WnN99/TwqZNadrjj1MMVzYTKlSgyNKlKYJb/PCaQxHOzk8Il/YkZvFnTIVyNKPh4+ozEjB1AWH1qsHixbx9whgvnCEzOpcgjP1EYvpKPdycAboafO3Gy6IZLDNqP0xJw34zvWGPF4yxwDFoRBS5nwHMhk+2yPvvU6FpHb4FBsL/MocpBbHnroYo8T2M4oZUdK2HKbpmdYp8qKrykEMYvsEKukVNCCsQe8yCsAJxuo0plrEvOKcQxssbAvjZAIDHVapIIdUforBHa1HMM0/SrBYf0JL27Whdnz60CyHlpUvp1N69podrB65MinEjyQCzHDjmynIVwgMHCYRvaFnZ2J5Q9sVjx9QwqRPbt1PK7NkUz618hLPhNc977TWaUrt2OpzZK/DCGSFtHcC5DWHeH2Z7UhBWVpqi2UvBNJYYI6zWcwCv17iiRQa1yozGUCc1Rhie8HWAMP8ecc+/0zOkc5CYZf87tlwZWvnBG2rIEmbE2jO4M02tVtkLbq8n7DHM/BVy6y2ZAFxQIGyGpW/PNHc0LBizbpVIN+X5Fvd8WgbPN0OfcHE1Pni0Z1xwdhDGNJbDAVt+DkYVLUqBpUrR2PLlaXz16jTpxRdp3uef05oePWhHSDDtnTeXju3YQWcPHaILx49JSLlwyQCzHDjmyiwI9+3Xi4YFDKYofyEcOMYD4c4C4cImJIuo5C94zdzah9d8LiWFjm/eTPtnzaL4MWMUnFd+9RXNf/NNmla/PsVWrUrRFStSVNmyFFmyJIUXK0ZhVlhbh65uOnR1u8McJxxdrqx3sg6vlS6lkq2yg7BKygL0SnnmjEZmdFEtMzoXIRx+151/GsL4fUrVSrThq48ood/PtPjlp9VY4glFnCEMjxizf6mpKj3wLWgQxluUAuGxF/WA2GN2AHshrJsNvul9wUVohN0L5ns4gp+FkdwwHMUNxEB+DscybIMwd3utWjT15Zdp/hdf0KquXWnrqFGUOG0aHdmwgc7s30/nj3r6b+Hd8vMvSVOFVgaY5cAxV+YKwnEM4W8EwqKciFv/XjifOZMOZ/acT+7cSQcXLaLEiAjaPnAgrevYkZZ+8gnNYe9iMld8Mfz8RHMlGMXeswI0eyFh99+vZsFyC2H1LuG6dSimkjltpWkllXesJurIZspKTGmJ9w2bADb7g/HGI/V7bkOYLew2e3JWFmaHrpMVN/uHp1SpaAJYwdoHhOENI9zr4A3r8M03CMP4/Mb8+y7P6wxzDmHMGR1croyauCOoTGn2hkvQOIC2XDkKfeghmvT00zTngw9oabt2tKFvX9o1fjztmzePjm3frqZ4PM/PrQol83OMDGUZFiTSZIBZDhxzZe4h3EYgLModoT9M9TefO0eXEdY+cUKNaT4L73nLFkrhCnBPWJgJ6E6daBl7IvNef131Pcc++KDyoCdwBRpVujR7q8UpHC8HYC9aQdryhP9tvkt4EmYPY/BGAUhlzPA03oqEUDPGCiNLWiVbWQZPly1TUlZJbc7oXIYwkrMUhDXP1id4PWA1+4Rty9i7VWb9Zv2t+oTTPeCoIh4IF+Fyw/SVN/ueOzrfIYzvXD7pIC6aIRyNfmGMCx5foTyFVa5E4VWrUASy4Gs+TBNqP0qTn3mKZr/3Li1q05pWdPiJNgK0ISG0d/ZsSt20SXm1Kknq+HHVzYIwsni2ohzIALMcOObKXEP4a4GwKA9kec86oOFBn9q9W82dvW/qVEoYN462cmW67qefaNnnn9P8N96gGY0a0UT2bGIqVaLo8uWVN43PCexRTyhbVn2P5WdzcvXqNK1OHZryyCMUg/5qBnkEe9rh7D0rYzjjXcMIPysrZhoStRSgAXmGtDJ8xzKY5Uk7QdoBvBkgzOtEsVeqQtJeCGufytKTseyJWd5PL4S1T3tilu0zki38vnsyhaR1+LqGMO/HsjEwvi7L8EYl2BgA1W5cZkjCUsZ/e79zmQZyGY+5+24ay/cliO8F3jscibdgPVxNjQmOqfsoTXvhWZrbrCktadua1nT+lbYMHEBx4xmyM2fQ4TWrKW3PHjWbHDxaL2g9IeRrAK14taI/JwPMcuCYK3ML4a8zQDhBICzKeykP+vJlunrhgpm1DUhzpQpIn+dK9uy+fXScPZuDCxaQER1NcaNG0dZevWhdhw60olUrWvTeeyrkPb1+fZqMie4Z2LGVK1M0e9UT2KuOKoEZsYoxmIpSxAMPKG85nP9BAF8LuBh/HMXQxjYxbNEM9wkl2dMuhlccoo/1nvRtrP5jFxDGOuHs6UUA/vfdq7KXMabXm838gAec+FTm+V2Zbdn99/InzPrN+vtetb6y+7F/8xhIzvJCmCFqecQ6fF1BmPcxjq93HAM0iMsKrzCEBTNEg7lMQtDnj64FdDEgUQ8NIC7/CYhuPPwwRfM9ia5Zk2LQJYFX7jVoQDNeeonmvf8+LWnThlZ37EibevemXYGBlBgbQykLF9LRzezJJifTucOHVXcHGm1eyKrQ8WXJRBZdbxlglgPHXJl7CLcWCIsKuDz90Ah1Xz1/3uyLTkszvWmuoM9zRY2EMXjUR9evpwPz59Pe2FjlVe8YOJA2/fYbrW3fnlZ88QUtZmDPa9KEZrJ3PYXBMJGf6diKFZXnrAyeNrxrwNsD4cgiRdI9aju87TD2ZR4Q271ohKgzGPqq1afnu2boV1bGx3Oy0Nuxns1L9xjeHRzCxwaIFYzZghjGGQzLeZ0g3n8w7wvvDQ5BZABwRbY7ugP4+kMBWXQRlCplgpYbKpHo32fYxjBopzBYZwKsTdlz5XJeyeW9/vffaeugQRTH9yFp4kRK4UZUKt+fNL5PZ9Eni1CxBVgkQqFvlu+vGuojnqwo/2WAWQ4cc2WuIfyVQFh0gwhjoP975YoX1vCqEfpG8pjXswawDx5UY6MB7eMbN9LhZctUtrcRE0O7g4NpV0AAbevThzZ17arC4qu/+oqWf/opLW7WjOa//jrNeeEFmtm4MU2rW5em4L2uVarQRIYRLLZSJdMY7MoQKmcD3OFhe41Bn8EYbNFZGTcKLIuxm74eGhCWwaNHo8IyhPFhfF6wGJxztWpqyNm0hg1p1nPP0dxXX1VjxPHmruWtW9NqwLRLF9rMnuqOoUPVcLXECRNo34wZdHDJEjq6YQOlxcebXiuXK8oXk8JcOHZMJT0p79WCK8LEfH/EgxX9RWSAWQ4cc2VuIfyVQFhUWKWgDQ8boXAGhBfcp09ngDfGTSuAs+eG8DhgA88bID+7dy+d3rNHgejkjh10YutWFTo/xh7f0TVrKHXlSjqyYgUdXrqUDi1eTAcXLlSe+oG5cyllzhwF//0zZ9J+hlry9OmUPG0aJU+datqUKelmLePf9/N6WF9tx9tjLHcK7+/AvHkqZH9o0SI6zIA8sny5moQllc/j6Lp1dIwbHMf5/E5u305pcXGqEYKpTc8yQJE8h/nHVR8rQsAAKbxU9LUCpvBUMc8xl48XqFxuKD+BqugGlQFmOXDMlQmERaK8EmAOYxgpKMHgkcMYVF5jD1156TBAX7cLF9ybvi3Ms39l9uN6zsV7bjhPmIR7RaKsZIBZDhxzZe4h/KVAWCQSiUQiTQaY5cAxV+Yawm0FwiKRSCQS6TLALAeOuTK3EG7btlV2EB7JEO7LEP5ZICwSiUSiwiIDzHLgmCtLh3BPhvAghnB41hCexxCOFwiLRCKRSAQZYJYDx1xZdhCOiZ1AW7dupjZtWgqERSKRSCTSZIBZDhxzZdlBGG8onDlzOrVq9ZlAWCQSiUQiTQaY5cAxV5YdhPv1700jRgTQ5599LBAWiUQikUiTAWY5cMyVZQfhH35oR23afEkffdRcICwSiUQikSYDzHLgmCvLDsJffPEpvfJKE2re/D2BsEgkEolEmgwwy4Fjriw7CL/zzptUo0Z1avbeOzYIxztDeMDAvvSrQFgkEolEhUcGmOXAMVcGCL/CEO7TlyE8bBBFRmWEcLt231LLlp/Thy3e90B4ngOENzCEAwXCIpFIJCp0MsAsB465MjuEhzpAeMaMqZScvJdaf/mFQFgkEolEIk0GmOXAMVeWHYSHDBlAwcFjqUXzZhcEwiKRSCQSZZQBZjlwzJVlB+FOv3SY9kO7777q1atXZYGwSCQSiUQZZYBZDhxzZdlB+Pfff/3xJksCYZFIJBKJMsgAsxw45soEwiKRSCQS+S8DzHLgmCvzE8I7BcIikUgkEuU9hGcLhEUikUgkMmWAWQ4cc2UCYZFIJBKJ/JcBZjlwzJUJhEUikUgk8l8GmOXAMVcmEBaJRCKRyH8ZYJYDx1xZjiE8lyEc5wjhEQzhPgzhjgJhkUgkEhUWGWCWA8dcWTqEezCEBzKEwwTCIpFIJBK5lAFmOXDMlfkH4TiBsEgkEolElOcQnisQFolEIpHIIwPMcuCYK8sZhBsLhEUikUgksskAsxw45spyBOHGAmGRSCQSiewywCwHjrkygbBIJBKJRP7LALMcOObKcgThRo3q+4TwaIZw/wF96JdfBcIikUgkKjQywCwHjrkyBeFXXqbefUwIR0T6AeH1AmGRSCQSFU4ZYJYDx1yZHcJDhmYL4XqdZ8yYRps3bxQIi0QikUiUlxBu0KBe5zFjRlNkZDj98OP3AmGRSCQSFXYZYJYDx1xZjiBcv36dzj17/sELu1L7H74TCItEIpGosMsAsxw45spyDOHvvvuGWrT4gNq1/1YgLBKJRKLCLgPMcuCYK8sZhOs92vm9996hRx+tRd99/7VAWCQSiUSFXQaY5cAxV5YjCNdjCLdq+Tlv0IS+b/eNQFgkEolEhV0GmOXAMVeWYwiPGxdI0dFRkpglEolEIlFeQvippxp1njw5lvbuTZIhSiKRSCQS5SWEA/r3L9OwYf1eTzzxeEC79t9cEQiLRCKRqJDLALMcOObKcgRhu9r/8N15gbBIJBKJCrkMMMuBY64slyC8xgPh3gzhDgJhkUgkEhUWGWCWA8dcmQnhJgzh7gzhAQzhUIGwSCQSiUQuZYBZDhxzZQJhkUgkEon8lwFmOXDMlQmERSKRSCTyXwaY5cAxVyYQFolEIpHIfxlglgPHXJlAWCQSiUQi/2WAWQ4cc2UCYZFIJBKJ/JcBZjlwzJXlGoRHjR5B/fr3pk6/CIRFIpFIVGhkgFkOHHNlgPDLDOFevQXCIpFIJBLlVAaY5cAxV2aH8OAhAmGRSCQSiXIiA8xy4JgrEwiLRCKRSOS/DDDLgWOuTCAsEolEIpH/MsAsB465MoGwSCQSiUT+ywCzHDjmygTCIpFIJBL5LwPMcuCYKxMIi0QikUjkvwwwy4FjrkwgLBKJRCKR/zLALAeOuTKBsEgkEolE/ssAsxw45soEwiKRSCQS+S8DzHLgmCsTCItEIpFI5L8MMMuBY67sT0D4Ww3CwxnCvRjCPwmERQVaV69epbS0NDp48CDt27ePDh06RGfPnqX//ve/+qoFQleuXKH9+/eTYRhe27t3Lx07dkxdi0gkylcZYJYDx1xZOoT/YAj3FwjnRNeuXVOV9+nTp33amTNn6Pz583Tx4kVVmWIbUf4J5X/gwAHq3r07Pffcc1SlShVq0qQJBQUF0alTp/TVC4QA4IYNG1Lp0qWpVKlSynDenTp1ohMnTuir57p8PedYJs+zSCQQzhfBazp58iSNHz+ehg4d6mjDhg2j0aNHU1RUFM2ePZtWrVpFcXFxyvMCnMWLyXudO3eOIiIiqGzZsvS///u/9D//8z/0f//3f1S9enXavHlzgbwn8HwBYPv/yC233EKff/45HT16VF89V4Xn/Pjx4xQcHJzp+UbDJTU1tcBGEESiPJIBZjlwzJUJhP0UPAAAFZU3CtGX3XPPPXTfffdRkSJFqHjx4lSpUiVq2rQpjRo1inbs2KGgIJVY3glA+eGHH+i2227L8MzhHgHOiFoUNAHC8H7t52tBGBC8nkKjBI2Thx56KNOz/eCDD9Lq1atVhEckKsQywCwHjrkygbCfAoS3b99OJUqU0M89S4PndfPNN9O9995LtWvXppiYGBXaExDnjdAX/Pvvv9Ndd93lvSd4VkuWLElz5sxR3QYFTfkJ4ayeczQq161bVyCjByJRHsq4SSCc98qqcnJr//jHP+iRRx4psJX/jahLly7RwoULqW7duipKARjjHiI6gb7XgtgYyk8IQ4mJiZnC4TCUG6I50i8sKuQybhII5718QRjXjT7Gu+++W1Xy+LzjjjuU9wsvWL9WVKbvv/8+HTlyRD+E6DoIkEXIecuWLTR8+HDq3bs3zZgxg5KTkwusR5ffEEYmduXKlTM9v2XKlFGAFokKuQwwS6/b3VquQXjkqOHUt18v+rlT4YYwkn3q1atH/fv3V0lZQ4YMod9++015WkgG+vvf/55h/f/3//4fVatWTVVmWXlh+O3y5csqIxUZsYcPH1ZZvkjywlAVZPbCm/a1Dyy/cOGCCsdiexi2sbwYfKJ/2r5vNAywPqClezsAFs4Ffaw4B6yP7bA91vd1Hm6Ffkb7ucKQCJddRi5+Q9Ib1rVvi2vFOVvlgPMGeAEYnD/Wt/dtuikvXCe2QznZ7wW6F9wCHcfBcbENkqwwbAqG88O1Yj+AcLly5TL8T7mFsLV/7Mt+rtb9wnFwnVndL5RTzZo11bNqHR9Axv85hniJRIVcBpjlwDFXpiD8chPq2csZwl0Fws7yBeF//etf1KJFC1W5AwaoXFH5paSkqCxpgFj3KNC3tmLFCgVZJ+FYgACyqwH2n376id5991164okn6JVXXqE2bdpQ3759VVgbIHBKlAGgly9frobm/PLLL8rQUECljEoYSWZITPr555/pjTfeoKeeeoo+/PBD6tatm+q3BghwfqisAWt4ksiORZLTq6++Sk8++aQ6px9//JGio6PV9Vrr51S4XoCoX79+3nOFdenSRWXp+hpKhGOhnEaOHEmdO3f2bvfrr7/SoEGDFCBxrXo5wFB+CEdbkM2qvPAbGk24TjSwEMlo3LixuhetW7dWx8Kzgfuf1fXjNzwfa9euVZn02Pb5559XQ6a+//57Gjt2LG3dupXi4+OpRo0aGSDoBsK4Fjx7GzZsoHHjxqlyaN68ubq3MNyv9u3b08SJE9Xz6itJEPfy8ccfz9CAxLnUqlVLAVokKuQywCwHjrkyO4QHDWYIRwiEXckXhFE5fvrpp5kqR1RuqLBQwSJcbd8GmdPz5s1T/ZW6ADJU+L169VLZqEjouv322+mf//yn6lPGvm699VbVtwlv6euvv6aNGzdm8kYBLkAEYU2Ex2EVK1ZUFfDcuXPpxRdfVOdh3zcaFHfeeae6xg8++EBlycJbmzJliqqU77//fpVljHPA+tgO2yPJ6ZNPPqH169f7bFhkJZx3UlISNWrUyBvOh+Fc0Ifuqx8SjY81a9aocrK2gaFb4KWXXlLen1M5wBBuRSPHOl+n9VBekyZNoiVLltBbb72lGk84J3Q12O8F7hHOPTQ0VEHQCWw4fzQKwsPDVYIezhHbIpKC/aBcUb5oaAHG6MPGMezPWVYQxnUArGgQwItF9rfVLYL9wPAdxylatCg9++yzqpGI/elli3LD7zg36/gAMp4BAFokKuQywCwHjrkygbCf8gfCAAsmiLBXZignVPTwVvQQJipSgOy9995TFbLdE3IyeNioaDGxA6BuT/ZCWBVeHaBhP9eXX35ZVdIArq97huXYLzw9NAYwLMt+DbphfTQKPvroI7+TnQB7NCgAJvu+AThACeFVXRY47ZnPMJw7vGgA0akcYADR0qVLvRB2Wg/lhTIANHFeWZUXIIcJNaZPn668b10414CAADVkTe+isO8HQEbfK67brSeMa0BDDA2nBx54gP72t79l2rd+HNzPChUqqPsLb99+zxBdee211zI0HrE+wAxAi0SFXMZNAuG8ly8IA2ao/Pbs2ePtlwRQAGAkAqGyt5cNKuD69etnCuuhEkQF17JlSwUV+zaojOHB4OYBEqjwrd/xiXNASBnHtLwaJ6gA2vBeUUljOxjOB/vX758FBJyLtT62t9a3r2utj7JByNafsbdoQABg8Dbt52KF+9GfaRfKC14ZIGmHBbYFxJYtW6bg5FQOMDcQtoaX4Zqt8kJZWH/rZYCyffPNNzM1ROCxo9GFELMTILEv+z3AcfUuDF8QxnEQym/VqpWKIujnZZ2z0z3DMnSXoJsBoXRLgHKzZs3UtVvrooxff/11BWiRqJDLuEkgnPfyBWFUyEi0Ql8bvC/0saJCfPrpp5VXoie3oPJHf6TezwlwxcbGKi/ZXgFj//Ce2rVrp/oR0WfboEEDVSlbZY5PHAtJYehzhJygYhnWB9wAKzQIHn74YbWeXvHbzxuNAHhOODbCv/hbXx/eIrxZhF1zKsAE4VSUmz0MayUEoa/UHjkA2FauXKmuwf7sAYQIHaNBg336Kgc3ELYM+8d+ce/r1Kmjygzf7edprYf7t2DBggxdDWiYde3aNdO+sT5Ah30B0OXLl1cgdQKmLwjjuUEfvv7cWPcYyx999FH1jOIZ0b1w/I3EQvvsYTjGZ599po5prYfzBJglq18kEgjni3xBGNeNyhh9owiD4hOVF8J39jJBBYk+WEDKMIwM/XCWV4eEJ7tXh23Q7ws4o/KzsoAxYcILL7yQYV2cA5KlrD67rKCC80P2NvpE4ZHjupAYhPPX18U1YB9oWCDkCS9v06ZNKgSvh45xPghj+ust4ZwRHtXDywjNIkHN7q2hEdOnTx/HdTE7mbWur3LICYQBIPTtz58/X2UH4/7hnjh5tujrRVKUFT7HfUaiFUBoXxflivsAzxl9zmiAoO97wIAB6p7rIHaCMJ4b3A897wD7RiMJERo0VHDOiNSgDxjnoYMYlQKS4qyGIRpRetcAjg8w640AkagQyrhJIJz38gVht4YK7csvv1Qg0yfqgFeHjFndq0PF98UXX6iKFrDAetZQHmQNAzjWutgOoUVkPWflAQIE8HwRHrUAZJ+qUK/80ZiAd7pz506vp4TtkEmM49nPF/tGQhHO1x9Z5QCP2+7VAYLISLbgbjVadPjg3NF/jfuUVVge5hbC2Cf6egEza0gYDF0OmIlLXx9/I1qB/UHYBvOI43j29VBWSDpDg8rymnHOuEach964cIKwlZiGiTXs98Hq8kBGu3V91jOBjHi9iwRliLK0+nvhuXfo0EE1KK118Px+8803fkU5RKIbTMZNAuG815+FMCrzYsWKqWEp8Hjsw4qQyIMsXCRj2bdBJfjtt98qDwwQsAwABISRAWtfH542ZodCpe4LKqhMMcRJfxEAKv+3335bhV3t6wMG8E718DlAC8/bKXRsjSVFxQ8IoXLHMl8GoCKMbkEIw2rs/ZHYL7KZrZCp1QjQ4YNr++qrrzJcm69ycAthC356GNaCK8rcvj48UHQdYDwuBI8Yfa72BhMM9xZDz6z1LOH6kJynN0ScIIznBh65/twgooHhSYCpXbgf8OKRyW2/byhDeN9WFjqiLRiKZS8LnC/ArO9TJCqEMm4SCOe9fEEY142+N1TGgCwMfW8oaABND0mjzw9eHcLAVvIOAIS31OA3+76xPipCAMPat2UAsO61oqLHW54w/tMXVHBeI0aMyBDahQAueOp6iBnXMnXq1EwZv0iUQt+rHdo4X/RfI7QKoaGB0DU8aXjZvgz9zBi6A2Dh3HENOlgQ5rXOGw0CPWyNckZS17Rp0zKcq69ycAthlBeymvXyAiwR1cAx7esDwt99953XY3Q6Vxju34QJExyT2NDA0UHpBGE8NxiSpD832DdCz077xn1GdMXe3wtDeVjJbDhn5C3YzxnlAs8fgBaJCrmMmwTCeS9fEAaEEMqDV4TQICbhwLSISKJC/ygqSD1hBhAFdAAcCN5Fx44dM4T//DE7YH1BBRU0Enn0ChrQgNetv20I54q+Y31CEHiG6HPUPVY7hFGho78ToEKDwZcBsAMHDvR6wwkJCZn6UHEc9GMjExiQwjhn+7ApAAsTUuDY9sxkX+XgFsK+YInzRIhefx50CMPTRdKeXq44/uLFi73HtwvRAGQi2xs4ThDGc4PJUvTnBg1CRE+cxqH7etbsjS08P2h44HmyfgeQ7f3GIlEhlnGTQDjv5QvC8II//vhj78xVMIQqUZGhfxYVp+514G94nVbYFBU2wqi6F4oyRf8e+uzcGIBpJTD5ggoqaEzWoVfQOAfAQ4cFrtfex2oJEEbYGNdvresEYYBG7w/VDQ0VjPe1KniAC6FaOyiwb0yegYYO9omsX/szZ4XNrb5YS77KwS2EUV5OL9xAeezatYtKliyZYX0dwvhs27ZtpnuLe+XrtYBODRwnCPvaN85Zz9C2BE8Ws4vpSXiAMIaI4TqtaATuPRoCMPuzJRIVchk3FQwIBwiEbzIrR6fJOiB4FfAu9NAqgIkZneDVQagYnZJ84OkheQcTbMCrzs5atGihJu2w5kB2gooOH0u+IAzIADb+QhjHQsKZ3mCwG6AxePBg7/AqwAPXgWPbnyt4zMgeRlnZQ7A4LvpQAWgdam7LIav14M3r5eUWwri3mAJTh56vxhCEBp2eKe8EYXi1nTp1yuTV4nnDLGd6FwKUVcQDURyUH84J33G8d955RxkyoxctWpSpMSISFUIZN+UKhLsJhHMifyCMygxelJ68o08BaCXvADL29XCz0FeMSThQMWdnAKM1fWVWUMkrCKPfFNsiUoBJNXwZ+sjhhVkhX19Db3BuOCZCtfboAjxGeI5W9rRdbsvB7XqW3EIYDQuM39b7bXGvx4wZk2kmMCt5CuOR7eF4Jwhj3wjj6/vGc4PuEKtRYxcafnpfPv530YjZvXu3N/sbAMex0PcPw3d9alSRqJDKuEkgnPfKKYQBIGQFY5IG3QvSpwC03nmrh22tyS8Al6wqP5wbKk14MdZ6OYXK9YAwzgXXhnX1BoPeeNBfJgCAwDu290ui3DA2F2Fp+1hXeH4hISHePna73JaD2/UsuYUwwIU+ZT2T3ZoJDA0x+3XD04SHjOfM/j/lBGEr0oJztK+LRgm8V2Se2/eN5wMhcJSfPU8BZYnkOPu80Lg+NBDQZQJD2erPgEhUSGXcJBDOe/mCsJUwtG3bNuVlAKzIfMYYzZ49e6qxtHoWs94njIoSyUiY1UifYQvboxJH5QugYV2cC76jYsQ+0PcMTxIelBWOzSlUrgeE/4zQiEFmNcboWsDAMwYQ26eNhLeIJC5MiKGfI+S2HNyuZ8kthLGd08xeuCb0a4eFhamGCBodOAcME0LkwCmPQIcwngVMwqF7zTgOkuECAwO9w7+wb5QR+pD1e2yNYbeeRzxDeJYwDA7LMawOfcSAuj7fuUhUCGXcJBDOe/mCMKCJcDMyczGLFTxcVIoYd4lkIR3AKCf0v+kZt9bYTNwge1la01Zi3CeSbQBcAB7fUTFizC+8Q0wliTGj1j5zCpWCBmEIx3BKbLMb+kORIayPt7XkthzcrmfJLYQBSjTMnMZgA5wIA1tTkmIGMPT/63OHw5wgDKFfGFOl6tvgucM4asx0hmFMaBAijI/ny+4FWwlv9heAAMboN8a14biANBoMKGfrukSiQizjJoFw3ssXhGGoyDBEBl4azHrhgb4elqFSw1SF+lAaeBgALN66ZO8HhaFCRUgbsEfFiHMAHDAuGBUkfke4E16VFZLNKVQKIoSteZFx3b7KE+fn67WQkNtycLueJbcQhnBPMFMVGl/6deDeYRv8YwKkuPdYxw5KmC8Iw2vFJCYNGzbM9KYr7APPB/qMsW993Dq+Yzngiv1a/cHoG8bMY/YGJL7j7VvwvLPqGhGJCoGMmwTCea+sIOzGUImhMgRk0S+nV+oQoIP3/WJaSYS5c1KmNyKEUdnj3cror9TnO4ZZWeb2iU90uS0Ht+tZygmEcW4I5SIhCp57VvcVzwn+SQHs7BKzLKHvFpEVdGfoc5b7MtwrNOwQuUFkxerGsCYh0cPn+I5lmGZTz0AXiQqZjJsKBIRHBlCfvgzhnwsPhNFf5wbCKAtUpqgQUXkCvpgZCpMkOM0dbQmVNfrvMNEC+pkBAIBGD2nbDb/hGOg7xdSXbsLR1sxIdiGcmxsQxvSSuQVhCGF6vJ1KT26D4WFGqNUpC9iS23Jwu56l7CCsh8exPebrxn1FZrQeLUHZwVNFeLpHjx5q/ml7trwFYX26UQjPDc4fw5KeeOIJtZ39dZd2w/OC4yC8jLHp6He3RxGwLzRqMCWp3bO25hDPqsEjEhUSGTflAoR79PyTEB7hgXDHQgJhK0yHifFRgWVlSKaqVauWmtUJ4yt79+6tKmB4R9l5ETgOIA2QYXIE9OPBw0FljwkV4PEiG9gKTcNrRr8fwraooC1YAkyYPQvb2s8N/dU4F/08ADtAqGrVqhnWx1AqeKN6xYtrQV8moGutC0/pmWeeydUXv1uJTThv+3mhvxMesv6KQ11uy8HtepYsLx3lY18f5YdydJreEdeC5CjMwYzXB1r3FPcS/bIYG4xkKAwJQtQFIESZYr9oZGFMsK+5m3E+iILAq8XzhhwFlBH2j24LPDPW84LMaczYhvukXxdkTaOKdfG8wRCKRvlk1eARiQqJDDDLgWOuzA7hgYP6U7hA2L1QiWL8qmEY2Ro8BmRLI3yImaCcKrusBJhidiJkzgLI8KCRAY05geHxYkgTluFYgC88YLu3iu/wjqxX79nPy3obkF1YHxW8vr71BiddAB+Oi3Ozr49s3Jxea1ayGiU4b/txrGM5nZtdbsvB7Xp2OT0P2B7lqEcOLKHcrHLGG6PgvWLKU3jVeF4QWsa22Deuz9ovyhkNn6waHBB+x/OG80LjYebMmQq4OA7+xn4AeX1ImF1WWSDjH8l/oaGhqlGA/fq6LpGoEMkAsxw45soEwn9RoXIFDABbjA9FCBHLfFWkooIt3Dc0VnAvcV9zG27Yv/XMALg4TnYA14X1sS0sp9uKRDewDDDLgWOuTCAsEolEIpH/MsAsB465MoGwSCQSiUT+ywCzHDjmygTCIpFIJBL5LwPMcuCYKxMIi0QikUjkvwwwy4FjrkwgLBKJRCKR/zLALAeOuTKBsEgkEolE/ssAsxw45soEwiKRSCQS+S8DzHLgmCsTCItEIpFI5L8MMMuBY64sFyE8jCHckyH8o0BYJBKJRIVFBpjlwDFXZkL4JYbw7wzhfgzh8QJhkUgkEolcygCzHDjmygTCIpFIJBL5LwPMcuCYKxMIi0QikUjkvwwwy4FjrkwgLBKJRCKR/zLALAeOuTKBsEgkEolE/ssAsxw45soEwiKRSCQS+S8DzHLgmCvLVQj37iMQFolEIlGhkgFmOXDMlQHCTRjC3Xv8GQivZwiPMCHcoaNAWCQSiUSFRgaY5cAxV2aH8ICB/SgsXCAsEolEIpFbGWCWA8dcmUBYJBKJRCL/ZYBZDhxzZQJhkUgkEon8lwFmOXDMlQmERSKRSCTyXwaY5cAxVyYQFolEIpHIfxlglgPHXJlAWCQSiUQi/2WAWQ4cc2UCYZFIJBKJ/JcBZjlwzJUJhEUikUgk8l8GmOXAMVcmEBaJRCKRyH8ZYJYDx1yZQFgkEolEIv9lgFkOHHNluQjhoQzhHgzhHwTCIpFIJCosMsAsB465snQI/8YQ7ssQDhEIi0QikUjkUgaY5cAxVyYQFolEIpHIfxlglgPHXJlAWCQSiUQi/2WAWQ4cc2UCYZFIJBKJ/JcBZjlwzJUJhEUikUgk8l8GmOXAMVcmEBaJRCKRyH8ZYJYDx1yZQFgkEolEIv9lgFkOHHNluQLhdQzh4QzhXr170E8dBMJ5qatXr9KFCxfUJ/Tf//5X/X3u3Dm6ePGi+lskEolE100GmOXAMVemINzkJfqj+2/Uf0BfCg0TCGera9eu0ZkzZ+jYsWN09OjRDHbixAm6cuWKvsl10eXLl2n79u00ZcoUio+PV38DvjNnzqTx48fTwoUL6fz58/pmIpFIJMo9GWCWA8dcmUDYDwHAoaGh9N1331Hr1q0zWKdOnWjfvn0K1Ndbhw8fpqZNm1KFChWoVatWqhFw8OBBevnll6lMmTL0ySefUGpqqr6ZSCQSiXJPBpjlwDFXJhD2Q4Ddl19+Sffddx/dfvvtdP/999MDDzygrGbNmrR582ZvePh66siRI/Txxx9T1apV6YcffqDjx49TSkoKNWjQgG677TZ66623FKhFIpFIdN1kgFkOHHNlAmE/BO8S8LvlllvojjvuoA8++EBBGfbzzz9TUlKSAuShQ4fo9OnTKmy9f/9+Sk5OVsvRZwtvGl6rtezs2bNe79nq1wXssZ1hGMq7xv4Qbrb6eS9dukQbN25U4eidO3eqcLRAWCQSifJUBpjlwDFXJhD2Q3YIly9fXoEQy2AALmD51Vdf0auvvkoBAQHUpk0bqlu3LtWoUYOaN29OM2bMoJEjR9JLL72kljVr1ozGjRuntgVgAdcVK1ao8Da2Q7gZ3u7rr79OkZGRlJaWptYDpNu2bUtPP/00de7cWfVHC4RFIpEoT2WAWQ4cc2UCYT9khzD6XufPn087duxQ3ujevXuVNW7cmG699VYqUqQIFS1aVIWqb775ZrWsXLlyVKJECbX8zjvvVPupXLkyTZ48WSVSwSZOnEjVq1enYsWKUcmSJenee+9V61WrVo0WLVqkQA3g4jh33303vfvuuwq4AmGRSCTKUxlglgPHXJlA2A9ZEP7Xv/5Ff//73xVMAUrAFYlSGzZsUCD8xz/+QXfddZfyhOH51qtXTy375z//SfXr16ehQ4fSN998o/qVEdbu0qULnTx5UoWlEaoeMmQIhYSEKMh369ZN7QvA7du3L506dcoRuE7LRCKRSHTdZIBZDhxzZQJhP6RDGN5u8eLFlVcMj9SCMGBbq1YtNYwIUP3pp58UcAHTXr16qWWrVq1SXjE8ZISWEZJGUteBAweUN9ynTx/q0KGD6nfGOtge+/EVenZaJhKJRKLrJgPMcuCYKxMI+yF7OLpUqVI0ffp0BV70De/evVslUgGE+B39voAtErQGDBigPFmEpqdNm6aSr5DEhX5lQBN9wNg3AIw+5bJlyyq4V6pUSfULw4sGhLPKhHZaJhKJRKLrJgPMcuCYKxMI+yELwvBMK1asqCbKsPpyMUsVMpotEL755psKhIDw4MGDFYQRvka/LrKZ0X8MwFoQxraTJk2i0qVLK08bY35jYmJowoQJCt4CYZFIJCpQMsAsB465slyC8GoPhLszhNsXGgjD00UoOTw8nBYsWKAMWc1xcXH0+OOPZwChDuHFixc7QhhDljARCMYgI2nr119/VftEfzH+FgiLRCJRgZIBZjlwzJWZEH6RIdyVIdzHAcKdBMK67H3Cf/vb3xQwAVYY+oAxBOmxxx7zC8IYM7xlyxaVBY0+ZfQ3P/jggyrsDQjDBMIikUhUYGSAWQ4cc2UCYT8EAAKEuE7A0W4Y1ztv3jwVhsbYXkzggfG8mIwjKCiIHn74YapTpw6tWbPGO7kGhhlhXXi9SLhChvSgQYOoUaNGKtkLY4m//vpr+v7779X+e/ToocYKYzzyO++8k+E4TstEIpFIdN1kgFkOHHNlAmE/hOxlwA1eLJKw7IY+XcxqhWQszHIFrxnrY9gRhhVhGULOSMrChBt42QNAjOVWZrR93U2bNqnkLfwG+GP/ADXWwbqArv04TstEIpFIdN1kgFkOHHNlAuECLEAaEJXXEYpEIlGBlQFmOXDMlQmERSKRSCTyXwaY5cAxVyYQFolEIpHIfxlglgPHXJlAWCQSiUQi/2WAWQ4cc2UCYZFIJBKJ/JcBZjlwzJUJhEUikUgk8l8GmOXAMVcmEBaJRCKRyH8ZYJYDx1xZrkE4YDhDuJdAWCQSiUSFSgaY5cAxV+aF8B+5BeGfBMIikUgkKjQywCwHjrkyC8LdAOH+AmGRSCQSiXIiA8xy4JgrEwiLRCKRSOS/DDDLgWOuTCAsEolEIpH/MsAsB465MoGwSCQSiUT+ywCzHDjmygTCIpFIJBL5LwPMcuCYKxMI/0nh/UZ4y5GYmJiYWD6bXkHnjQwwy4FjriwXITyEIfwHQ7hdoYAw32+6evW/dOnyVTp/4QqdExMTExPLN0M9jPr4ytVrqn7OQxlglgPHXJkJ4RcYwl0Ywr0ZwsEC4eyEG3zp0lU6euI8HT56lo6fPE8nT12gk6fFxMTExPLDjqdxfXzsLKWeOEcXL+E97HrNfd1kgFkOHHNlAmE/dOXKNTrCNxvgvcwtr6vc8rp67b9iYmJiYvlm11R9nMZARv18mevpPJIBZjlwzJUJhHOoa9y8OnPuEh07eY5v8lX9Z5FIJBLlo+AkHTt5nk6fvUjXruWJO2yAWQ4cc2UC4RwKXm/q8XN09vwllQggEolEooIj1Mvnzl+mw0fPqP7hPJABZjlwzJUJhHMotLIOHDlNFy9dycs+B5FIJBK5FHJ2kg+dyqtopQFmOXDMlQmEcyj0M6QcPpXXHf8ikUgkcinAN/mgQDjTwXJgBRjCV2m/QFgkEokKrATCAmGRSCQS5ZMEwgJhkUgkEuWTBMICYZFIJBLlkwolhIcFDKGeDOEfBcIikUgkykf91SD8kkDYvQTCIpFIVLD1V4Tw7926UD9AOFQgnKUEwiKRSFSwJRAWCItEIpEonyQQFgiLRCKRKJ8kEBYIi0QikSifJBAWCItEIpEonyQQFgiLRCKRKJ9USCE8mCHcjSH8vUBYJBKJRPkmgbBAWCQSiUT5pL8uhHsJhLNTXkMYL6jODV27ljv7EaXLKlPcI/N5kDIWiQqCBMIC4VwRKvnTZy/R5ct/7lhXr16j4yfP0xX+FOWO7GV64eIV2rL9sPoUiUT5L4GwQDhXhEp947ZDlHrs7J/yZLGfDVsP0hkGunhruSN7mZ49d4kWrzD487K+mkgkygcJhAXCuaLzFy7T6o0pdOjIGbpy5RpdvHiVLrFXfO78ZVXhX7hwRXlkEM7F/hs+8TeWK6/thOm1WaFTeNdYB4bl2D/2h79x3MtXsK52Qh6Z+zDXhQFIvhoJWZ2X+bu5L/wGw3eroWD9Zm844PslPn+n42W7Lz5PbGudC/5G2eD88TeuG+WATWBZlYm9TAHhhcsB4Uu2sxGJRPklgbBAOFdkh/A5hsT6LQdpR3wqLV29T1X6azcdoJRDp7whUfy2Yl0yLV65l1asTaY9xgkFDoAEXhs+lXfN3+P2HKXlvA7WO3L0LCUfOEXrNh+gJav20sp1+2m3cVxtq+saX3Ta6Yu0iT10rItjrd2Uwt76OUcwZnVeAOPpM+a+FixPovlLE5XnD5ihbM1zPZQhzAtwbt11hLfL6NW72dd6vr6tOw+r81jI6+B6U/gfFeWI8ly5fj8l7Tuh4AvIphw67bNM7GUqEBaJCpYEwgLhXJEdwgDM7EW7aemafbSfH6600xdoX0qagtsZBtLBw6dp0QpDha4RIj156oKCJcAILw+/WZ7onEV7FMiPMjgtz/TEyfN09Pg5dZyDh8+o3/Fdv0ZAB2DavOOwOsYpPkbcnmMKVCrcbVv3Kh87q/OyQrpoXBzmhsCh1DO0duMB2pNkQtp+3pbO8/mu5Gs+kXY+A4Td7Gs2XzfK6yCXJ64dDYJpcxNoe1yq6t89wNe9jMv3DMP06rVrWZaJ/dwEwiJRwZJAWCCcK7JDGLCbtyRReaw4BwAIUAP8jp04r2AHEAB2ODdADl4rZIcEbO7iPbRr91EFX0sAJmCFcO3JtAu0esN+5WVb4W4IxwSYZi7YrSCG/eMQ6tyWJtG+AxnXxzng3J3OS+2LQTpjQYJqVOBacW6Je0/Qmg0p/Lezh4lGw/K1+xQ0retzu6957B3jd3i6uNbdScfVNmgYYB/YN64bkQFAOKsy0ctUP0+RSJR/EggLhHNFOoQRQoUHbB0XcFnDvwMa8MgQioV3tiPB9OxMWGeG8IJlScrDs8LHlrd8OPWs8mrXbzlAcxn4CBsDWJawHrxIHTjwQhHSxbboa7YL5+h0XgDZAW44TJkdRxvYe92264gyeNk4ti8P0wnCOC93+0pS5YjNrOPDM0Y5Qwh1b9p+SIEa15FVmehlqp+nSCTKPwmEBcK5oswQzljRA3CAn/LcPP3CCMWiLxTrWv2bTsCAFw1ZnizCsFt2HFaeNiCE/tE9e81QriXLs0Wfqj1EbIWCnSAMD9PpvJA0hf5YeNXwSHFc09K83qoT3ABhhIXtEFb9tzncF7ZBgwIha5QjBAgjzI4w//GTF7IsE6cyFQiLRAVDhQPC7TUIDxtMPXp2ox9+FAjnlnIKYZwPQAlQIRQLWJqZwL6BgaSupOSTKqyNsCwAgz7bBbyOnpyF/WMd9K0CglafLIAOT3cv70cfi4x1nM4Lx4c3PmN+gjp/lCtgqTK1PdcC0C9eaahQMP6GIRKAcPqxE2Y43DpG9vtyD2GURwLDPKsyyapMRSJR/uovB+GX0iE8XodwVxcQXrtuNQ0VCOe6MkD4jG8IH05F4tYltQ7ABSgaDJLFq7KH8NWrZvIUMqUx5AaJRwDllDnxFJ94LAOErWMiBI4+ZRwPx9q7/6TaZ9qpjIlcVpjb13nBVqzbTzvij6pGBpKusAzJX9aQos3bD6sQMM4rjYGITOtJs3Yp6NoTs7LbV+br9kB4U2YIG3w98H6zKpOsylQkEuWv/ooQ/u33LtS3n0A4W+UlhBHG3bz9EB1FZjFX8AiHnvP0X1q/I1wKCCfuM0EILxPhWqybnJKmPEFsY21r/24JwLKG4ixkj3bZmmQVOgaI7H3CEMB6gj1TwAv9qeifXc7rq7Cv5gVjWyM5zed5YV+pDNNVG1JU6HcV/4Z9KtBdvqqSo3BtqzbspyW8/fylSbSM97F01T4FZDuEs9uXft1qfS5XQNcaAoUErJ0JR1WjBA2GrMokuzIViUT5J4GwQDhXpLzBS2YSkzWkxw4e63cADaDBFJfIXobnBrCqUKxnPWtb+3f7frDs9NmLymtVw5aw3yvOE3bgXOA9AlQ4Fta3Z0W1TnWZAAB0uUlEQVRbwrZZnRdk7Qu/IeyMfZpla66B/SIiAO8W3j6+Y30rqcyurPbldN3Yt/1Y+ETGuNVAyKpMsitTkUiUfxIIC4TzTSYU9KXuZMJFX+pbFozcKLvzsvblax23x4Gy21dOlNMyEYlE+S+BsEBYJBKJRPkkgbBAWCQSiUT5JIGwQPj/s3ce4HFcZdv2T0gjQCgfBBIICSWQj4RQAiF0SHUCCWkkJAT4Utx7b5Lc5d57je3Yjkvce++9d1uWxurNVu/F73+eMxp5vTq7Gq1krWQ993U9l+Sd2Wkrzz3vOWdmCSGEBIkGKuHRSsL9KGFCCCFBpX5KOKxMwh8FIuG9HhLuQAkTQggJGvVXwoMo4cqghAkhpG5DCVPChBBCggQlTAkTQggJEpQwJUwIISRIUMKUMCGEkCBBCVPChBBCggQlTAkTQggJEpQwJUwIISRIUMKUMCGEkCDRICTcySDhgeH9pHOXm13CpRKnJIzvlqWECSGk7lHfJPyih4RnzwlUwuMahoTxpe7xyVmshAkhpI6CIqm+SbhP3zAZOowSrpSSklJJuZIjOXlFUpUvmieEEHLjwXk5V52fE1OzpVidr2sBC84yeMxVKOEqUqo+4OzcQrmcnqerYkIIIXUHiPdKRr5kZhdIaWmtFEoWnGXwmKtQwgGAfuHkyzmSkVWgfy9RHzQ+bIZhGCY4wXkY5+OMrHxJUudn/F5LWHCWwWOuQgkHAFqh0SecciVXyzgtM08ycwokK6eQYRiGqeVkqqRl5kvylRydgsLi2hyzY8FZBo+5CiUcIPiA0eyBDzsnr+yPIZthGIap9ajzL87D+ep8jPNyLQoYWHCWwWOuQglXE3zY6Cf2bhphGIZhajHqPBykwbIWnGXwmKvUsIT7NjgJE0IIadBYcJbBY65iS7ixlq4t4ZmBSnhUmYTbU8KEEEIaChacZfCYq1DChBBCSOBYcJbBY65CCRNCCCGBY8FZBo+5CiVMCCGEBI4FZxk85iqUMCGEEBI4Fpxl8JirUMKEEEJI4FhwlsFjrkIJE0IIIYFjwVkGj7kKJUwIIYQEjgVnGTzmKpQwIYQQEjgWnGXwmKtQwoQQQkjgWHCWwWOuQgkTQgghgWPBWQaPuUqNSXiskvCAgX1FvU4JE0IIaShYcJbBY64CCb/wYmPp3SdUhgwdJLNmU8KEEEKIWyw4y+AxV6GECSGEkMCx4CyDx1yFEiaEEEICx4KzDB5zFUqYEEIICRwLzjJ4zFUoYUIIISRwLDjL4DFXoYQJIYSQwLHgLIPHXKWGJdyHEiaEENKQsOAsg8dc5ZqEQ5SEw6sj4ZFlEm5HCRNCCGkoWHCWwWOuUlHCMyhhQgghxCUWnGXwmKtQwoQQQkjgWHCWwWOuQgkTQgghgWPBWQaPuQolTAghhASOBWcZPOYqlDAhhBASOBacZfCYq1DCpEa5evWqFBYWSk5OjuTl5el/E0LITYwFZxk85iqUcACUlpZKdna2XL58WVJTU/XPK1euSGZmphZQQxZPQUGB7Nu3T+bMmSOLFy/Wx4kQQm5iLDjL4DFXoYQDAGL5+OOPpUOHDtKyZUtp1aqV/n348OGydetWLWWIuiGCi5Hu3bvLd7/7XXniiSckJibGexZCCLmZsOAsg8dchRIOAFS/LVq0kHvuuUfuvvtu/RMH8qtf/ao8/PDDMmTIEC2jhlgR4wKkdevW8sUvflF+8IMfyKVLl7xnIYSQmwkLzjJ4zFUo4QBISUmR9957Tz7/+c/Ll770JXnrrbfkqaeekq997Wty6623yo9//GPdJFtUVCT5+fla2rGxsWJZlkRHR0tiYqLk5uZqSSPoO4W84uLidOWYlJQk6enp+v2oqH1Nx7KxLfHx8Vr6JSUlen5Mw2sJCQm6bxbrKC4u1u/Da2g2x3x4HdOxPdgubCO2Fct1LiCwTLzmbHNGRoZeNrYFy8R0rBvvxbadO3dOtw5QwoSQBoIFZxk85io1IuH9B/bKmLEjpf+APtKxU8OS8EMPPSRHjhyRs2fP6iZpyAeVMfpEIcPdu3drKT355JN63kceeUReffVV+eSTT7TQIMTly5fr6vEPf/iD/OxnP5PXXntNBg4cKBEREXoZvqZD9G3btpXGjRtLt27dtKjT0tKkf//+8txzz8nf/vY3WbRokW4+j4qKkn/+85/y4osvyowZM/R6k5OTZdasWXp7fvrTn8qvf/1radKkiV4ftg0ihoDbtGmj1zl//nwJDw+XZ555RgeCvXDhgnTt2lXv3+OPP67X8corr8gXvvAFSpgQ0hCw4CyDx1xFS/gFJeHeITJ4iJLwLEq4UhwJQzQ/+tGPtIhQHUJ+X/7yl3VFPHXqVC2wJUuWaMF961vfku985zvy9a9/Xcv7sccekw0bNqjjt0N+9atf6Yoa8n7wwQfle9/7nvzxj3+Uo0ePaon7mr59+3YtSHyIP/nJT3QVimr7d7/7nXzuc5+Tr3zlK1reqFKxHd/+9rd1Fi5cqCviYcOG6WXhwgHbjG3D9mN7MagKFTgq3r/85S/lr3/zm9/U82Id2L527drJN77xDb0+vP++++7TTfS33HILJUwIaQhYcJbBY65CCQeAZyUMqU2fPl1XiL/4xS/k9ttv14OSNm/erJt1IbuxY8fK7NmzZdOmTVrUkCP6j/v27SuTJk3ScoUIUTGvX79eC3PevHn6vXPnzvU5HeLHcjEdckTVi+kQNZYPMULWx48flx49emiRos/6xIkTOj//+c/ljjvu0D9HjBih9wEXFXfddZeupCFgBBX4bbfdppeHiwf0h2OfcRGA5WGfIWgMTAsLC5MHHniAEiaENBQsOMvgMVehhAPAkTBk9dnPflZLENUhKmNUvM2bN9d9qOgvhSghzaFDh+pRw++++66eD9Uimq8xDeKD5PDe//73v7qp+uLFi7oPFqOtfU3H7UCQKZq5IfZOnTppsUOCaBJ2qualS5fK008/ravpN998U4tx1apVcu+99+rXevbsqbcT/cLNmjXT24f3Hjt2TL/mSPj++++XFStW6L5lVPlYLuSPfcG+QdiRkZF6HRA2JUwIaQBYcJbBY65CCQeAp4QhJ4gO/aEQ37hx43STMAYtQWxoLsZ0VMyQKYSJ90BcnTt31k3ZEPSjjz6qK1VUvBBg+/bttdQgO1/TsXwEfbqQMJqNX3rpJT190KBB+nWIE+uBcFEdo+LFBQL6rNF8jD+AyZMn635j9AOjGsZ6INe1a9dqqULC2FcMPoOUnQFdM2fO1BcfyLRp0/Rr6JNG/zTkTgkTQhoAFpxl8JirUMIB4Nkc/f3vf1/322JkMOSWlZWlRx6jKRqVIoQIgUGO6GdFf6xTPUKOeA+ya9cuPcDphz/8oZY03ocqGWL0NR3LR1UKcUKEqJQheWwTmqUxeAvyxQXCnXfeqfukd+7cqWW5ceNG3X8LWfbu3VsP0kLzNwZ6QfS4aMC8uKCAhPEaBmdhfQD9xWj+RisApN2vXz99wYALh/fff18fG0qYENIAsOAsg8dchRIOAM+BWegTNYkGTcl4oIcjqdDQUC1rCA//hoRRzUKu69atk9OnT8vBgwe1zFDVokodP368HDhwwOd0DP5C5Ym+ZkgTTeOQ7W9+8xtdYa9evVpLGNJGv+2f//xnXcniIgHN2egLRrPx73//ez3yGf3L6NfGMjAYDPNgUJcj4TfeeKNcwqj0MTobVT76lbFsXBSgDxtVO27VooQJIQ0AC84yeMxValjCvSnhMtAfjAFRGMgEqUGGkBP6ayFhBE/aQvM15sExgzwxqAuVMwY6Qa64hcjX9D179ujHZKJaxTSID9NQiaKyxWhpNIF/5jOf0RJF5Y17egFuUULTNCpqTMMIZ1ww4P1YB6ZhHmdglreE0SSNCh191NgX7CMqfGcEOC4IKGFCSAPAgrMMHnOVaxLupSQ8MFAJ71ESHtFgJAyRdenSRT+UAwOeICoTuMd39OjR8qc//UmLDZUnmns7duyo76tFVYzmafTlQoYQNCpLzI8+VggPVbCv6c69vM6jInHcIWeMuEazON6PgWCQISrcZcuW6WZkgGoYEsX2YSQ0lovl49YjXBhgmjMPBlrh/maMikaTswMeJnLo0CF5++239TrQDP7yyy/LgAED9P3MqI59HRtCCLlJsOAsg8dcpaKEp1PCleE8RQpNu86To0xAYqgmMR/uqcUDM5wve0AzL35iQBSm44EfqGwx2hnT8DrWg2ZtX9Od51M7T63CfIjzRCy8DhGjGkWftfP0LM/tg6yxDydPntTBfE6/trNs54laaAHAvz2BiDEdzeUIBorh4gDL8XdsCCHkJsGCswwecxVKuBaA+CAvX8+SdqZDWKYvfqhsek2A5VZn2dV9PyGE1FMsOMvgMVehhAkhhJDAseAsg8dchRImhBBCAseCswwecxVKmBBCCAkcC84yeMxVKGFCCCEkcCw4y+AxV6GECSGEkMCx4CyDx1yFEiaEEEICx4KzDB5zFUqYEEIICRwLzjJ4zFUoYUIIISRwLDjL4DFXqTEJjx4zQvr17y0dOlLChBBCGgwWnGXwmKs4Eg5TEh40eKB8RAkTQgghrrHgLIPHXIUSriHwQEo8lZJhGIap3QQZC84yeMxVKOFqUKo+/eLiUiksKmEYhmGClKKy4HxcWlrrVrbgLIPHXIUSDpCSklLJzi2UhJRsiU/OkqTUHEm+zDAMw9R2klRwLkaycgqluKRWv0zGgrMMHnMVSjgAIOC0zHxJScuV3PxiKVJXX/jQGYZhmOAE5+E8dT7GeflKRp4+T9cSFpxl8JirUMJVBF8rmJdfpK+8Cgrx9YTecxBCCAkGOB+jeTr5So4qkIr0+boWsOAsg8dc5QZIuO1NLeGS0qv6KgtNHkHoeyCEEOIHjNVBV2FKGqrhWjlHW3CWwWOuYkv4eSXhnkrCA6or4bCbXsJo9khIyZL8wmJWwYQQUgdBK2VsUpZuoq4FLDjL4DFXoYSrCD7UuKRMNkUTQkgdpai4RGISMvXPWsCCswwecxVKuIrgQ42lhAkhpM5CCVPChBBCggQlTAkTQggJEpQwJUwIISRIUMKUMCGEkCBBCVPChBBCggQlTAkTQggJEpQwJUwIISRIUMKUMCGEkCDRICU8avQI6dsvTNp3oIQJIYQEj/om4cZKwqFhSsKDBsjMjyhhv1DChBBSt6GEKWFCCCFBghKmhAkhhAQJSpgSJoQQEiQoYUqYEEJIkKCEKeEa42oNraS0tGaWQ4IH/haKikr4WRJSCQ1Ewu28JDy8TMJtKOEaAifbrJxCfeKtzrpKSkrlSnqeFKufpP5SqP7mzl28LBmZBVJanT8IQm5y6qeEe1DCbqhNCecXFMuRk4mScjmnWtUPlnP4RIJkK6HXVGVNap/8/GI5cCxe/T3kVuvvgZCbnfor4f5KwtMoYX/UpoTz8otk35E4SUzOluLiUikoKJFCVRXn5hVJTm6RPimjygXYFs9p+Il/43VdCafZlTAkjG1HdY15ELyO5WN5+DfWW1SMeb02qGw9bucFvrYLEikoLL7uogC/o9rDtKqsx3ufcnILy/fLmd3f8nxto69pWBcubBwROsvGtjv7o7epwN4/e/vs9SLXv7fi5+F8ppgH8+aUrTsjM1//PSRX86KMkJsdSpgSrhE8JZyrTsKHjifI6fMpsmNftGzZZcmBo/ESl5ipZYOTNabtPhgj2/Zckt0HYuSilaZFA/GgEsZPXV2r389dTJVdah7Ml5yaIzHxmXJQVVnb916SPQdjJcK6ot/rDQQRl5jlal7ga7uysgvVdiTq6Q6Q1omzyXoapOZ2PVgGjs2ZC6myY699bLBv0XEZ5fP72m4I1tc2Qoymafg3jmdaep6WIbY1Kjpdjp9O0rIFkCbmgVQzsgrk6MlEvV4s48DRuPJq1vR5XC67YErLyFP7FS9b1Xu27IqSfYdj1fst/XlRwoT4hhKmhGsETwlnZRfIuq0RsmN/tMSqP66MrHwtGcghW0krISlLtu62dNM1mp3TVdWEkz9O1hACpjmV3PqtF7XIU5UInKoPQkm9kqvXk5CUrafjd+99LFHLq8q8vrYLonW2ySFPbcsetT+Qj5aQy/VgGWu3RGjJxcRlSqZaPi4qIDy0AKD/1Nd2p2fkS7yPbYTATduPSvTYqUSJiMJFQYn+nLBubEOmWjaEj88Msk1Ty4f4jylB473YNvTrYn4sD1W79+eB92OZ+9X7T51L0e/D+iHkJWvOSoJaNiVMiG8oYUq4RvCUME7eG7dHarlgG9CMiZM4TuaonCALVIA4WWPbcJJ2Bu/gRI9p+Ils2HZRzkakavk6QFKQDppUISZUXaiynaZRT9zOi23Atpu2y3ObHCCgXQei9SAyR5xu1oNl4Nhcik0vG8R2VR87VJ8XIMqy/TQtL0ZdyMSp/6ymbSwpMW8/lhetPge0ROTlF2tJblDr36E+C3w+uJg4o47vuYjLkpySI2s2R2jBYpn4SPRnuSNKLwO/e38e2H5ciGC92E78G+vFa+uUsBNTKGFC/EEJU8I1greE0SSJCthZLwSwH32EqTm6GoR0ULWdvpCiRWbLuqKEN++M0hWhcyJ3quUkJQxUaai4IBU0yaKp1ZOqzAuwjabtwgWEPwlDgG7X4+xTupKU0yeLdaC5+fgZu4nY13ZjHlTlpm20ZW7YfiVLjFDeqrYflW5kdJocPp6gRXpUVch4be+hWElU1TaawL33E03QEDi2A5I1fR5JSrR71DLwN+CA47Nzf7QksTmaEL9QwpRwjVBRwtefzCEInMwhYVSHOLnjBI0R1Zg3KtoWlreE8TskCJzKDCd39GmikkNzNwRw8ZLdp+xQlXmvvcfu9/TeLgwy8t4fSAbNshAdJOd2PY6EsUxHwqgqHSli/X63u6zv13sbcex8bT+anfF+VN/7DsfpahotEmiZQHPxNvUT68Rnh2Zxz2Z3LA/9xY6EPT8PgM8SLRtYLj5jB1TYTh8+JUyIbyhhSrhGqKqEsT04OUNmkUouOPnbo3orSthZDvpeo2LStTzQrArBoT90s5rHeyBUVeZ1sEcHV9yuFFX5YZCR3dxqCx5VPppmITzM53Y92JeNOyJ11ek0VUNYkBhEjOPoa7ud5mrTNuJ3X9uP5Zy9mKoHhG3aEaXv59Z92krMx04l6f5gp6kaTci4sHAuECBcVNaX1DZhO7w/VzRbp5YJ3ekDdy6AsK7EFEqYEH9QwpRwjXCdhLMrnqwdCaPpEk2qmAcVF07yljrBoxqrTMJo9kXVhZG5GMSEkz5Es3z9eTkfefk64VVlXuA0AZu2C/2bkJU9UrpAV7EYdbx07Vl9URGf6H492Jc1WyJkr5Iu5I5/Y+AV9hN9uahofW03RiVDhKZtzNbHy7z9+B2fy9rNEbJfrRcjuyFzSH/N5gt6ufhbcboM8DqWg/ehesa2odo3NcsDjIZH5R6lthPz2AO6UtU2n+PALEIqgRKmhGsENFtiFG4qRuaqkzSqrFyPPkJMR/MqJBwZbZ/YUaWhSRfzYtARqle8x3mv5+8OqOCcW3e2qApt5/4Y3fSKZlvv/teqzIt/WzEZxu3C4Chs997DsbJdTUOFt1NNxy1GEDIk5HY9EBgqaFyQbN6JeaPV+6L16GXnfl9f2w2pRqgLAdM24vj62n5sg13RXpJLZccZle7ltFzd1+w8YAVBHzG2DSPZ0ee9S60bzeHen40nqOgxahsXDthWe5uj5aBazuWyW6MIIWYoYUq4RnAe5IATMk66kILTpOk5HSdzVGFoEsVtOKj0IB3nYRVOv6bdtGpeDl7LyrErQn3bEpZbXPHhGFWbV3xv11WMPrZvxUGVh0oev6NyxL5WZT12dR+l1pGvxQiJo3JFxezM62t5erS0n230uf1iNxtje/U2lW2L02yNVgMHvIb5sG1Yhj3dvpAwfR4OmAfz4vg424xBZhjlTQjxTcOT8P49MnLUcPWmMGnXnhIOJrZovV91B97n9r1VmRf42y6TgBzcrMe7iT3Q5VW2jb6mucVed9UXUhPrJqQhUe8k3Ph5CQntIeFKwjNmUsJ+qesSboigQkRTLX4SQgglTAmTWgTNweg/9e4rJoQ0TChhSpjUIvgcnFu0CCGEEqaECSGEBAlKmBImhBASJChhSpgQQkiQaMASDlUSbk0JE0IICRr1T8LPKQl3r66Eh1HChBBCgk79lXA/JeGplLA/KGFCCKnbUMKUMCGEkCBBCVPChBBCggQlTAkTQggJEpQwJUwIISRIUMKUMCGEkCBBCd/UEi6VOEqYEELqLPgecEr4JpUwvtA9KTVH8gqKJJDvhiWEEHLjwGk5r6BY4pNr7ZvVLDjL4DFXoYSrSGnpVUnPytcpKa2VD5gQQohLStQ5OiOrQNIycY6ulULJgrMMHnMVSjgACotKVDWcLbl5hWVfoXeVYRiGCXIg3dy8IklMzbG7DL1P3jcGC84yeMxVKOEAwIedowQMEaerq63c/CLJLyxmGIZhghSch9FCmZiSLTm5tdpdaMFZBo+5CiUcIPiAURFnZhdI8uUcLeREhmEYJijBeRjN0IV60GytCRhYcJbBY65CCVcT9BGjSRoDthiGYZjgBefjIGDBWQaPuQolTAghhASOBWcZPOYqNSLhfUrCI0YOk959lITbUcKEEEIaDBacZfCYqzgS7hXSXQaGKwnPoIQJIYQQt1hwlsFjrkIJE0IIIYFjwVkGj7lKDUs4REm4FSVMCCGkoWDBWQaPuco1CXerjoR3KwkPpYQJIYQ0NCw4y+AxV7lewn0pYUIIIaQKWHCWwWOuQgkTQgghgWPBWQaPuQolTAghhASOBWcZPOYqlDAhhBASOBacZfCYq1DChBBCSOBYcJbBY65CCRNCCCGBY8FZBo+5CiVMCCGEBI4FZxk85iqUMCGEEBI4Fpxl8JirUMKEEEJI4FhwlsFjrkIJE0IIIYFjwVkGj7kKJUwIIYQEjgVnGTzmKpQwIYQQEjgWnGXwmKtQwoQQQkjgWHCWwWOuQgkTQgghgWPBWQaPuUrNSXjEUAnrHSJtKWFCCCENBwvOMnjMVSDh55WEe/bqJgMG9pXplDAhhBDiGgvOMnjMVShhQgghJHAsOMvgMVepYQn3ooQJIYQ0JCw4y+AxV7km4a5lEp4SqISHlEm4JSVMCCGkoWDBWQaPuQolTAghhASOBWcZPOYqlDAhhBASOBacZfCYq1DChBBCSOBYcJbBY65CCRNCCCGBY8FZBo+5CiVMCCGEBI4FZxk85iqUMCGEEBI4Fpxl8JirUMKEEEJI4FhwlsFjrkIJE0IIIYFjwVkGj7kKJUwIIYQEjgVnGTzmKpQwIYQQEjgWnGXwmKtQwjXA1atXGYZhmCAnSFhwlsFjrkIJBwg+8KL8fMlOSpIrkZFyOSKCYRiGCVJwHsb5uCgvr7aFbMFZBo+5CiUcAFdLSyX38mU5s2yZLHznHRnxwx/KkAceYBiGYYKU4Q89JPPffFNOLV4sOSkp+jxdS1hwlsFjrkIJVxV1hZWXliZ7xoyRkQ8/LGF33SU91b72UNvNMAzDBCc4D4fdeaeMUDLeOXSoLpRqqSK24CyDx1ylxiQ8HBIO6yVt2t7cEi4pLJTIrVtl9KOPSq/PfrbCHwLDMAwTvPS85RZdIF1Yt06KCwq8T+E3AgvOMnjMVbSEn39OevTsKv0HVJRwKCV8PaiCN/TsKX2/9KUKHz7DMAwT/PT54hdlVdu2uhquBSw4y+AxV6GEq0hWQoJ81LixhN5+e/kHzuZohmGYupNet94qk377W8mMjfU+hd8ILDjL4DFXqWEJ97zpJZyhPtSJTz7JpmiGYZg6FM9iqOdnPiOjlIfSo6O9T+E3AgvOMnjMVWwJP6sk3EVJuE91JDy4TMItbnoJT3jiCUqYYRimDsVbwiN/9CNJv3TJ+xR+I7DgLIPHXIUSriKUMMMwTN0LJUwJMwzDMEEKJUwJMwzDMEEKJUwJMwzDMEEKJUwJMwzDMEEKJUwJMwzDMEEKJUwJMwzDMEEKJUwJMwzDMEEKJUwJMwzDMEEKJUwJMwzDMEEKJUwJMwzDMEEKJUwJMwzDMEEKJUwJMwzDMEEKJUwJM8xNG5zUwu68U0LvuIPfn83UyTRsCe/bLcOGD5ZQJeHWbShhhqnJ4OQC+fX90pek75e/LGGf+1ytihB/60MefFDmvvaazHrxRen/1a/W6voZxk3qs4SfUxLu3qOL9OvfR6ZNp4T9QgkztZ3Q22+Xyb//vWwMDZXNffrInJdflrC77qow341KPyX+Lf36yZXISEk6dUrmvvGGroq952OYYIYSpoQZ5oakzxe+ICtatZI0y5LM+HjZOWyY9FPVqPd8Nyr9vvIV2TF0qP7bTzl3Tj755z91Ne49H8MEMw1Owh07tSuqKOEelDDD1HD6fPGLsrpjR8m9ckUKsrJk7/jx0l/9x/Werzzq/17IbbdJbyVvVLF4P6ppX03I+Ft25oVw+959txY/Xuv9+c/r4G9+Q0iIrGjZUgbff7/0uuWW8mZyTEdljBMf/o31YVl4P+bzXh/D3IjUfwl3VhLurSQ8+ToJh4X1VLtkoGIlPKhMws0pYYapwVRFwjj5YNqUP/xBlithbu3fX9Z06iQfPf+8DHngAS3n8nnV/1GIctwvfmHPO2CA7BgyRNb36CGr2rWTlW3ayNImTWTSk0/K7L/9TdZ17apfH/3IIxJy661avNOfekrPM/fVV2XYd7+r+4zXduki2wYO1MIe89hjdtO1jwsAhqmp3KwS9lkJU8KUMFM7cSthnHgG3XefbO7dW1LOnpXc1FTJz8iQPPW+jJgYObdypUz89a8lRFXFmB9NyvP+8Q+JO3hQspOSJFP9bWfGxUnu5cs6OcnJEn/4sJb4oWnTJF0tI/X8eVnwzjv6vRigtXv0aElTJzr0FR+aOVMuX7yotxPrxfut7dtl6p/+dJ38GeZGhBKmhBnmhsSthNGEjIoWJ57S4mIpyMzUUs1WMiwuKJCC7Gw5s2yZPjnpEc/f+Y6cVWIuys3VEt4/caIO5r9aWqrXt6VvX5mmJHpk1iwpzMmRnJQU+fS996T3XXfJgK99TQ4qOeN1rC8/PV2/F+vH71gGtuHA5MnG7WWYmgwlTAkzzA2JKwmr/2/oq7V27pSSoiItvz1jx8rUP/5RFr77rsQeOCAlhYWSlZCgJYo+2xnPPCPp0dFSnJ8vEevXy8iHH9aJ2LBBSxuDwGY+95wMUcs9NH16pRJOPn1aljVrJhOffFJ2Dh2qq2G8Hr1njwz61rcq7BfD1GQoYUqYYW5I3EgYA6DQt4uTztWrV7VcJ/3mN3pA1sBvfEP39UKKkPOuESP0a2gmRjM1hHth3Tp90kLwO8SMZUDUEKgjW18SxnJ3jxqlm8MxOAt9xZA4tgUjqlF1e+8Xw9RkKGFKmGFuSNxIGLJF1YpKt7SkRBKOHi0XH0YvY/AUBAq5nl66VMK/+U0Z+sADus8Wr2UnJsreceN08DuaqM+tWqUHcw34+tcrlTD6kFe1baubxHECHFF2AoSEL1+4QAkzNzyUMCXMMDckbiSMv0c0A6N6RV8sBmYN//739YlJv799e/3+orw8OblwoQy85x4t0kX//rd+j26qVvLF4Cz066L5GiOeMbLZU7a+JIzXl3zwgX4d6xz2gx/oAVuUMFNboYQpYYa5IfGUcGF2thbfMCVY3NPrBI+0HPa97+nRzOiHRUX88SuvyEBVxY546KHyPl00G+uHfaj3OA8BgXxRyZ5avFj2KcHjViQIHbcv4cTmLVtfEnZep4SZYIQSpoQZ5obEU8KoWOOPHJE9Y8bI9sGDywNxQrb7J0/WI5NLCgq0kCHcYx9/rKtbNFPjqVt4BjQqXFTDxz/5RIsdfcM7hw/XFTMGV330wgsy9MEH9boxn0m2lDBTl0IJU8IMc0OiJdyhg5awspoWMZqlMdDKSdLJkzJcSXj8L38p59eskby0NCnKz9fTIEnd3Bwfr/t8w++9V5+k0Ne7Z/RoXR2XFhXp90CmEDb+zi/t3Kn7eT0raUqYqauhhClhhrkhwcCqT99/Xw+2QiVrCoQJ0WFkMv4+IduY/fv1SUhP371bP8kKg7EwkhoPz5j829/K2RUrdCUMwWM0s3NfMfqOIW48hAMDvvDsaNyChOp6Hr7A4XOf003a28LD7dcPHZJ5r79uP75S/d/HgK5Lu3ZJWlSURG7ZokdNe+8Xw9RkKGFKmGFuSHBCQTWM+4AhN1NwG1GvW2+1nxutfmLgFqQ8/vHHZcxPfqLf2+fuu/WysExUwYdmzNB9wWiKxlOxpj/9tH7c5aJ335UojJouKND9xWi+xvKxvMHf/ra+KMAJr6eSubMez9exfGyDfg+2TQmY/1+YGx1KmBJmmLoV9X9Qf9GC15co4GSF/t6kEye0aFExoyqGLCFT/H1jkBaama9cvCjT/vxnPnaSqfOhhJWEQ0J7SKvWlDDD1PWgX/j86tXlI6YjN2/W/b6nlyyRhCNHdP8w7hfGs6HxYA/PExzD1MXUawk/96x0625LeOq0ACS8V0l46DBKmGHqS9B3jG88wiMqcZ8wbmnC3zaCfuHkU6dk98iRelAWv46QqQ+5GSTctx8lXCmUMHMzBCes0Dvv1M+FxqMp8bWFuM1peYsWeoAVvoJwgDo5UMBMfQklTAkzTL0LTlzo78WDOzBwC4OrMMKZ8mXqWxq4hHeVSbg7JcwwDMPUeuq/hDspCYcpCU+ihP1BCTMMw9S9UMKUMMMwDBOkUMKUMMMwDBOkUMKUMMMwDBOkUMKUMMMwDBOkUMKUMMMwDBOkUMKUMMMwDBOkUMKUMMMwDBOkUMINSMITf/1rSphhGKYOxVvCox5+WD8XvRaw4CyDx1yFEq4i+OLzGU8/za92YxiGqaNBkTTxiSd00VQLWHCWwWOuQglXkdwrV2R1hw76S9a9P3iGYRgm+MEz0Jc1bSo5qanep/AbgQVnGTzmKpRwFcGXoJ9fs0Z/xRuaPLw/fIZhGCZ4wXl52Pe+J6eXLpXivDzvU/iNwIKzDB5zFUq4ily9elVyUlJkS58+MvTBB+1maY++CIZhGCYI+X/2N4IN+c53ZEPPnpKVlKTP17WABWcZPOYqlHAAXC0tlazERDk0Y4bMePZZGfrd78rg++9nGIZhghQURdP+8hc5MHmyZMbF6fN0LWHBWQaPuUqNSrhXiJJwq5tfwgBXWIU5OZIZGyvJp05J4vHjksAwDMPUenD+TT55UjJiYqQwO7s2BQwsOMvgMVdxJNy1W5mEpwYo4SFDbQm3bCAS9gQf+NWSEillGIZhaj04/2rx1k7zszcWnGXwmKtcJ+G+YTKFEiaEEEJcY8FZBo+5CiVMCCGEBI4FZxk85io3QMLNKGFCCCENBQvOMnjMVWwJP+NHwj3cSjhcSbgbJUwIIaQhYcFZBo+5yjUJd1QSDlUSnkgJE0IIIS6x4CyDx1yFEiaEEEICx4KzDB5zFUqYEEIICRwLzjJ4zFUoYUIIISRwLDjL4DFXoYQJIYSQwLHgLIPHXIUSJoQQQgLHgrMMHnMVSpgQQggJHAvOMnjMVShhQgghJHAsOMvgMVehhAkhhJDAseAsg8dchRImhBBCAseCswwecxVKmBBCCAkcC84yeMxVKGFCCCEkcCw4y+AxV6GECSGEkMCx4CyDx1wlcAl3qijhnr0oYUIIIQ0KC84yeMxVIOFnlYS7dO2oxVtBwqEuJLxn7y4ZPMSWcIuWlDC5MVy9KlJcXCL5+YXq96vek4kBX8eMR4+QGsOCswwec5UKEp5CCVdKaelVycrKleSUNElMulKe5JR0ycnNpyBuECUlJRITlyJbdx6T3NwC78nEgOcxy87JV8ctX1JSMyQx2f57zVR/xyUlpd5vI4S4x4KzDB5zFUo4ALKz82TOJxulXdfx0r77BOnYY6JOSL8ZsmXHMV11kJqnsKhYDh29IGMmLpEraVnek4kBz2OWkHhZtikZ9xk0W7r3nia9+s6QmR+vk0vRSRQxIYFjwVkGj7nKDZBw05tewhkZOTJp+kpZ8Ok2saITWQnXEoWFRbL/0FkZOnqBXL6S6T2ZGPA8Zmi5iY1P0dJNSLwiZ85Fy+gJS2TyjFWSkZnj/VZCiDssOMvgMVepIQnvVBIeqCTctUFIOD0jW0t4zYb9kptXsVkUEkZzaerlTN3sl6ROfmnpWbpvDpSUluqTXlKy3ZydejlDyztLVdilapoz3bM6wTIL1Ak1JydfN4cD3SyenauXgyoHy8E8zkUApufk5ElKanr5RQKqeLzu771u1+9NZfvtb50mnO1wmv3xnl17T5ZLGO/LLyjU68C+6eZVvd32+rzBsUXzK4411p2gj0ma/Z5Se18rW6a/fcT+maZBhFhGYWFx+b5iflTzzrHRx7egSLLV54XXcJywbuw3mo/RjHztc7X3I0/97eE4YD2YH+uv7JjhM8V8ej/zC2X7ruPSs890/TdCCAkIC84yeMxVrkm4gxJviJLwBEq4MiqTMGS6fPVuGTh8nnQNnSLdwqbKhKnL9UkRJ9iY2BRdfXQJmSLtuk2QPuGzVVW9VebM36hPrjg5j5+6QsvKOfHiBH70eIQsXbmrTNZX1Yk+TWbN2yAde0ySlh3HSFj/j9QJ95Q+uWJ6sjqxLlyyTULU651DJktIv5myet0+LVJ/73WzfhP+9hsnf3/r9Abz28dppV4Wmv7DBnwkU2auloHD5mmhYJuOqG0aP2W5EskM6aFkMm3WGvW+ZGPzKj43HPdFS7dL74EfSVu1zK6hU2XyzFUSG5eiBVbZMn3tI4SemZVjnHbuQozMmL1Wjp28KEVFxXo9FyPjdbNwhPqJf0P8e/aflk+X75ALF+NktjpOWHfnXupz6z9TLzc9PVt/HtgPHIeVa/fKgGFzpZf6XJet2q1FXNkx8wTS362OP+ZJURclhJCAsOAsg8dchRIOAJwEJ6qT6ydKnGjag6wQVFcQyvmIWOncc7IcPHJeVyLR6gR++ly0nob3TlCCGzt5qZxXJ2frUqKsWLNHWrQfpU+GECCWBTlExySVSxAnaVQtE6et0MuArGfMWSfhw+frk3eEOnFDuO2V1KOsBF0NzZq3XgaP+kROno7SkkBwIsbJ3N970VRZ2fq9gaD87TcE5W+d3tU11jFu8jIZNeFTdZxiJUodp2VKRM3ajdQXE9gP+4ImWY6fjNSDjyA7CAgXCqh2vcHngwuAtl3G6wsofHbY5jGTlipR2U2y/paJwXi+9hHr8zUNVebs+Rv0OAKIEvPib+dfH4TrLg1Uuc6F3fxFm/U+DxuzUDcXxyVc1s3J6L9dvX6frn6d/WjffaKehs8Vy8XfTmXHzKFI7ef5i7EyeOQnSvw7jceLEOIKC84yeMxVKOEAwAlzuDpJvt9yqHRSlUq33tN0UAFdiIyTE+oE3rrTWDlw+Fx5cyQqIIgmOiZZWnceKyfPWOVNmDg5zlSC6j/0Y7t5UUkYFRAk4cgJItu645iq0JbJFbVMiOKDVsOVwPdqaeIEfEotE8tet/GA3o6mbUfKpm1HJK+s0sSS0JTp773rNx3U6/W3fuxTUXGxbgXAyRs/0aysl+Fjvytbp2c1DPFj3e+3HCa7953Sy8EyIJ8Zc9ZK/yH2ccL1AZaPCxL006PiXqvkGj5ifoWqD6BZFwOSID5sH9aDzwAVKrYD4sRrvpaJ5mFf+4jl+JqGihMXHmGq+tZN3ErKvQfOktETl+hqGNuFdXdR1Ss+u/eaD9UXPHgf9hEXMHMXbNLNxjgGmL9LyGQtXHs/3B8zgAumi1EJMmTUApm/eIuex7nYIoRUGQvOMnjMVSjhAPBXCaM5ExUVpvXqN0NXWIdUZWQ3nxbpqhSCQ5+hAwQEWaIqcSNhrOfoiYvyytthMnT0Qt1cOn32Gj2tjZIJJLP3wBlp0maElr7nCRay8PdeNIeiMq1s/ZdUlbxxy2FVne3X256cnK6EkO1zvytbJ6pBz21EJdqs3Sg9kKi8GlfbsHnb4fLjhPnQjIztmD1vo5ZSmJIbqmtTHyfkFdr/I31s8Dk5xKtqE/JEdY5t9bVMCNTXZwux+Z5mb2cHVbmePntJTpyKlO5h01QVe04fZ8gbTf1ovt6w+ZA0bTNSV+Ge/ceHj12QJq2Ha1ljP1DZOqJ25nFzzAC2E9u3dNUu/Vl6t0IQQqqEBWcZPOYqlHAAVNYnXKpOgBhgY11K0s2YqGBGjl8scfGpckSdTNt2GSfxqLrK5seJcsv2o9dJGP3Fns20aIZExThu8lLdf3f4WIS8/f5AWbVun668Dqrg576DZ3UTN5pEcUL2PJkD+4Tu+72QBaTkb/04ccfEJcs2JYGNWw/Ljt0n9GsQka/9xm0y/tZZ7DGYSlenStpd1TbgWDigSXzrDvs4QURoLofwxitRYhuOK7mtWrtXbzuE6Y1JwrqCVBcqHyrBnT0frZtw/S3T12eL7fS1/5h2JS1TV77oj/5o7np9axCaqydNXyHzFm7Wle7Uj1brKrZ5+9H6mHhKGBcx2EZHwqikIV1nYJebY+ZIGD+Hj10kcQmprIAJqT4WnGXwmKtQwgHgT8I4p+FkbI9CLdWDoFDpoA9vx54TcubcJfm/5kO1jJ0TKJo+0V84YOhcfYKE0PqGz5EDqlLCfZ44UaL5Fs2KOKnjd8jiv82GyObtR/RgIVRwCCqjoqISLYL3WqBZ84RuKnbANvl7L7YpNdX/+lHxYr68/AK9/2jutve5xLjfO9V+o2/V3zo9gfhxAdCm8zi5GBWvl4dtwHH/WMkKxwlN2rgIwMA2VLC4kMGoZMgN92z7knCP3tNk0bLtkpmZq5eJY4MHWaDVAMdl207/y/T12e7ce1JfqJimYXQyqs/1qspFVY2KGFUyhI1p6H+HsHfuOSmRar9bdBhd3qQMMKIdA/dQKWMfHAmfPBVVfuzcHDNHwtgvDD4zDYgjhFQZC84yeMxVKOEAsAdXLZdPFm/VVafnfcK4FQVVDAbpoNpFVXL0+EXdnIkKDPNhsBSqHpz0Mf2IqkwxUhejYHGixEl3vlr29Flr9ShaLG/DlkPSXFW2g0bM0xLENoxV1dqIcYu14ND8iltV0BQJKWKesZOW6QE+587HlN9uk6Heh6rM13txYsYApMrW7w1kgIrX135j3f7W6V2RYRux7RhNjXuxUbWhORzLQzWbpJaHKrVTz0lyQskI60bliumtOo3x2RyN6QiacjHoCSORR6ptmqguqnDs/S0TVaivfdylBIrP0zQN+4+KFMfy/9SFUauOY/TfAfYZy/uw9Qh1YTZEdx2gH3rqrDX64Rq4EMByUOFi0N4SVV07T7zSEj5tjytwqOyYORLGMvYfPHNdFwAhJGAsOMvgMVehhAMAlSv61Jq3H6VOcOOve2LW2o0HdH8i+uxQ8WAgEOSKJkhUkxiog1Gvg0bM11UZTqa4XWbspKXl1QpOrBci4mTE2EVaCBA0fqJ/cvrstWX3rZbqftnx6mIAt6P0UZUrTrQYHIYmaKxHT5+yTA/iwTSMsF1ediuLv/eiqbay9XuDihYVr6/9xj75WycqN08wP44TmlEx6K1zyBTdJIyBRBOmrdAXAghuL8LrWGe3sGmyePkOPeDoSplwPIG8UE3iARUQE/YJ78VoYqvsqVH+lgkJ+9pHVOYQtmka9h/CxWcbrvYXknRu80KFjAsAvc1qPhwHdAfgVqpQ9X4ETcy4fc0ZQIX59AhoJXzvZnx/xwwXbmhOh/gHjZyvfuK4szmakGpiwVkGj7kKJRwAOFHi5JmYVPHZ0WhiRFMkfkdlg4rE82EKACdLnJBRYWLwk6641Mnd80lQmAcnWyzDqZghP1wAOMKCNNLVa6i8IiLjdFWOChACdprF01VlhZM6migxH6pcbIf/99qjhitbvyd4D5qm/e23v3Wa0MdJVXeQNLYfxxsPH8GxxzZgudimeFXxoRkX24jR2rgFC+vyBhJGRYn+aFTgeA9+YoSxM7+/ZWJ7fO0j3u9rWvn+l9qSd+7zttdnP3hDC7LsuF77+7oikWq/IX/P99ifa3ZZV4F+qZzKjhnA+7Bs/CSEVBsLzjJ4zFUo4RsIxOSv0nCmo+/P1+MY9TzeZ1ovMA9O8L7WpYWs+wi9p7h5b+Xr98bNfvtbpzf28ipK1aGy6Q7XmnHtvlSn39REZcv0t4/+plUFbJq9jd5TKsfN9hNCagQLzjJ4zFUo4TqA/ZD983r0LKpPcmPAICs8OQq3CXkPBiOEkACx4CyDx1yFEq4DYFQxmjBxvy2fXHTjQFcBRrSj/9ZflUgIIVXAgrMMHnMVSrgOgJZBVGYY1VzVpl/iHjQRo9/W1F9MCCEBYsFZBo+5SsAS7miQcI+elDAhdRV7MBsvQAipYSw4y+AxV9ESfvYZ6dylg/TuUw0JDxpsS7h5C0qYkLoGujwyMzN1fH3VIyEkICw4y+AxV/GW8GRKmJD6B8SalJSk4y1ZfRuUkm9aWpoOfveuiDFaurgYX0Rx7TuPCSGusOAsg8dchRImpJ4D6Z4+fVr+/e9/6+B3TxHr+44zMsoljN89JQzpFhQUSFxcnA5+p4gJcY0FZxk85io3QMJNKGFCahFUv5Dv448/roPf8ZpDZRJG9Qv5RkZG6uB3vEYIcYUFZxk85iq2hJ+uCQkPUBLuQgkTUst4SvhnP/uZPP/883LixInyatifhFHx5ufny6VLlyhhQgLDgrMMHnOVaxJuryTcixImpL4B2UK6kC8k7FTDkKnz5CxfEvaugiFjSJnN0YS4xoKzDB5zFUqYkJsA72r46aeflo0bN+r+XV8ShmhzcnJYBRNSPSw4y+AxV6GECalHoOpNSUnR8Rx85VTDL7zwgvz85z/XMn7zzTf1IK2ioqIKEsb8EHRsbGy5gKOjoysMysLvhYWFOqyOCTFiwVkGj7kKJUxIPQHiPH/+vLRq1UrnzJkz18k4NTVV2rRpI0888YSuhn/5y1/KBx98oKtk71uUIOb4+PhyAUdFRUliYmL5shz5olI+e/asDn6niAmpgAVnGTzmKpQwIfUECBfyffbZZ3XeeuutchlfuXJFixWyfPvtt8ubpf/6179q2Xo/rAPzovL1bIZ2qmBMc+SL6vrw4cM6+DfETAi5DgvOMnjMVShhQuoJnhJ+6qmndPA7pNurVy+JiIiQvLw8OXjwoLz77rvy4osvynvvvVd+u5LnYyvR7ws5Q8QQMN6Habm5uXo5jnwPHTqkQwkT4hMLzjJ4zFUoYULqCZ7N0aiCHRljEFbjxo2lWbNmcuzYMS1UiBeSNT1BCzhPyELVi58QcFZWlq6qveULIbM5mhCfWHCWwWOuQgkTUo9wBmZBlpDx66+/Ls8880x5VdyyZUs9vaqgwoVoHQHj5/Hjx8vly4FZhPjEgrMMHnMVSpiQeghkjIFU27dvlyZNmshzzz2nRfzOO+/o16sK+oNR8ToCxqhqDOLyHi1NCKmABWcZPOYqlDAh9RTnmc9oou7QoYP861//krZt2wZcCZ87d06LGD/RN+z9JQ+EECMWnGXwmKtQwoTUA1D5Xr58WZKTkysElS9EjD5g7/uH3eLckoSnZaFvGP3KpvBpWoRUwIKzDB5zFUqYkDoOpHrx4kXp0aOHtGjRwhhMwzyBCNgBcsUtTPv371f/r3cYg2mYhyImpBwLzjJ4zFUoYULqOKiAIVk8AQsDsUzBNMyDeQMFVS4ki8ddbtiwwRhMwzyYlxCiseAsg8dcpUYl3L0HJUxITUMJE1KnseAsg8dcxZFwp85Kwr2rI+FBZRJuTgkTUpOwOZqQOo0FZxk85iqeEg5TEp40mRImpM5R2cAsCBi/47aiQEQMqWJEdHZ2tl4GfvcelMWBWYQYseAsg8dchRImpJ7iPOcZX0U4dOhQ6d69uwwePFhLtKpAups3b5ZVq1bJli1bApY5IQ0QC84yeMxVKGFC6iEQJL41CQ/X6NOnj35k5YcffijdunXTr1cVPBVr5cqVsmDBAlm0aJGsX79eYmJi+KhKQirHgrMMHnOVGpRwfyXhzpQwITcQyBdVKr75aODAgdKxY0dp2rSpFjB+DhgwIOBKGIOuFi5cqEWMn8uXL9evoRkc0yljQoxYcJbBY65SUcLjKWFC6iIQMJqeId8uXbqUV78IBmf169dPP+0KT9HKyMjQMsZP05Ov8BqqXDyYA/3AaNZGnzJGQKMShogdGa9YsUI2bdqkvy6RIiakAhacZfCYq1DChNQTIFUI2FO++B1N0GPHjtVfSwgBY5AW/h0eHi4TJkwoFzGEizgCXrZsmcydO1eWLFmin7YFEWMdGAWNpmmnKnZkDBGjIiaEXIcFZxk85iqUMCH1BE8JI6iG8e+oqCgtWuc7gkePHq3FjOmDBg3SzckJCQkya9YsHfyO+SHgSZMmyeTJk2Xx4sW6LxnVNkZA4z2QLqpgCJgSJsQnFpxl8JirUMKE1BM8m6MR9At7jmJGlTtz5kx9zzAEjNHSkGxsbKyWL0ZOI/gdtzWhz3fKlCl6nqlTp8ratWvLJevcsuTImM3RhPjEgrMMHnMVSpiQeoQzMMv7FiI0MaM5Gk3QEDAq4ZEjR2oBY140S2Oa00SN1/BlD+j/RSUMEaMyRr+wZx+yI2MOzCLEJxacZfCYq1DChNwEoHl53Lhx5c3Qffv21V9LiH5eTPOWsNN8jWoalbHTLI3+YfQXE0JcY8FZBo+5CiVMSD3HqYJxe5JTBUPITvOxLwkDNGFDvE41PGfOHElKSjKOqCaEGLHgLIPHXIUSJqSe410FQ8aQsiNSfxLGPJAu5MtqmJCAsOAsg8dchRImpJ7jKWGnCnYk60z3JWEA4TrVMCVMSJWx4CyDx1yFEiaknoNqFgOwIF8Ev3s2J1cmYcyLQVqQL4Lf2RxNiGssOMvgMVehhAm5CYA0IVbEW6Do9/W+RQmveeI8wAPxfj8hxC8WnGXwmKtQwoTc5ECq3g/roGgJqTEsOMvgMVehhAlpAEC6no+tJITUGBacZfCYq9SshLt3lmaUMCGEkIaDBWcZPOYqkPAzkHCnako4XEm4GyVMCCGkYWHBWQaPuYoj4Y5KwqFhvWTiJEqYEEIIcYsFZxk85iqUMCGEEBI4Fpxl8Jir3AAJf0gJE0IIaShYcJbBY65yTcLtlIR7UsKEEEJIFbDgLIPHXKWihMdRwoQQQohLLDjL4DFXoYQJIYSQwLHgLIPHXIUSJoQQQgLHgrMMHnMVSpgQQggJHAvOMnjMVShhQgghJHAsOMvgMVehhAkhhJDAseAsg8dchRImhBBCAseCswwecxVK+AZz1fuFKnJVLaC4uETy8wvV79Vdmntqb00NhzpzTGvx74iQBoAFZxk85iqUcA1QXFIiV9KytCw9KSktlbSMbCkoLApYoCVq2TFxKbJ15zHJzS3wnlxtsF2FavtSL2fo5CnZ5+UVSmZ2brW+8i7Q/a0PVGXfMG9ubr6kpGZIYvIVSU5Jl8ysXPW5+ji2OObp6SLx8SJxcXaSkkSysuxp1UX9Pcnly6Ku6tzJ2M08hDRsLDjL4DFXoYSrSWnpVbkUnSRhAz6SCxGx151cMzJyZObH6+TsuegKgnZLYVGxHDp6QcZMXKJFX9MUqeWfOBUl/YZ8LH3CZ8v6zYdk/aaDsmrdPsnJyfee3RX6u2uz86SgIPCLj7pKVfcNLRjb1AVUn0GzpXvvadKr7wz9N4G/GaOIMzNFxo4VeestkXfeEfnPf0TatROZNk0kOtqWaHW4ckVk5EiRY8fw4XtPvR5IPyPDvbAJaZhYcJbBY65CCVeT3LwCWbR0u7z2Tm91cl0v2Tl55dNwAj54+LyuMAOtKlGl7j90VoaOXiCXr2R6T642OapKW6eku23ncdl74LQMHvmJhA+fL6fPXgr4wgHHYPW6/XLuQowUFRd7T67XVHXfcAxj41O0dBMSr8gZdUE2esISmTxjlWRk5njPbkty4ECRKVNELlwQiYwU2bTJFvGAASJpad7vqBq5uaL+09rVdWV/k7gg+OQTkRMnKhc2IQ0XC84yeMxVKOFqgEooKTlNevSeLr36zZB2XcdLfOLl8goJlU7q5UxdNeH3zMxcLT1IOTHJbprM8mr2RRM2Ts7JKWl6ngS1vF17T5ZLGMvOLyiUtPQs/X7dvKnmR7O1CSzb33qxvitpmfr12LhUOXs+WqIuJV7XB41qH/PjfZgPTatoYjVVgljmpZgkvb1bdxzT82PdmNdZDo4Z9gvb4zTVO9sJyaWkppdPR/M43o/XsCzsNy5MTOsGWEdO2TKcfc1WlSted6b72pfKjpWvfcPrvj4TLBefPdarPzu1P9t3HZeefabrbawAmooh4YUL1RVSjl2B4ufmzSKvvioSE3OtQkWTNf4NoXpWq/hZWGgLHfPExl5r1obEExKuzY9lZWfb0zAf5k9NFfVHKxIRIdK1q8iqVfZ6nCbxytbvja91OGKv6vIIqVtYcJbBY65CCVcDNOWiSm3ZcYxsUyflNp3HyY7dJ7RYQHpGtsyYs05JLUELdPL0VbJgyTbpPXCWtO82QXqoE/HseRvsSrnsZB0Tm6KqpJXSNXSKljqauafMXC0Dh83TyygsLJYjxyNk/JTl6kQ+Qy9j2qw16n3JxuZNbIO/9eICwd/yIJgEJRvMj2mde02WkP4zZfnq3ZKenl1BhhDWlJmr5KU3Q6RlhzF6uyEstBgkKvnOUsvp2GOSPmZh/T9SFxintJiwnZOmr5S5CzdLr77TpU2XcRKqpq/ZsF8WL9+hm3E79pgoI8d9KgcOn9ci9gaiS1ZiW6j2NUS9t3OI2tZ+M1Xluk+vv7J9SUv3f6wysnKM+4Y+Xn/H0BMc791qn/G5pqhlVsBbwgAXWEeOiDRubFfGENno0SJvv22LuVkzkQ0bRPLKWmEg4AMHRAYNEmneXOSNN0RefFGkbVuRGTNE+vcXOXcOZbotvzlzRNq3t5u+//tfkX79RE6dsrfjscdEXnlFpEMHkZUrbZlC6P7W7wn+PnytA/uBbajK8gipe1hwlsFjrlLjEm7arOFIOD0jRyZMXaFPvtExyTL1o9Uycvynqtiw+25x4u47aI6cOmPpqqmTkk/77hN1n6sVnSTHTl6UwSPtqgqVFEQ0bvIyGTXhUzl/IVZXpMuUIJq1G6llAgmjeRMn9+MnI/WALTSLQtpLV+7SVZk32AZ/683Oyfe7PFTlEM+wMQt1U2pcwmV94QEprl6/T50nrx8sBtFFWQm60tu09Uh5tYjl4IIETd179p+WiItxWpYQHeZH9dip52R18TFVV4qR6rWVa/bKO+8PVK9Pkt37TumLGawT24Lq3RtcAMyat14Gj/pETp6O0sJFcNwgw8r2BRdA/o4VRG7aN1yM+TuGDkXqszt/MVY3+X+6fKfx89ISRrPzxx+LpKTY1eelSyKTJom0aWPLc/hwW4popoYsp061+5AxDcJOThbp1k1k8WKRqCiRQ4dsGX/0kd203LKl/RqqzZMnRf71L7uJGlUoJA/hQ7ZY3gcfiCxbdq0SRnXtb/2oaj3B9vhaBySLyrwqyyOk7mHBWQaPuYqW8DPVlPDuPTtlYHh/6dqt4UgYVVdkVIIS5CjZvO2IbmKFPD5oNVwJNEbLCE2dqKhOnorS/YFotv5UVXWQLSpfNL0uX71H9w+iEkO/4fsth2nhoNLDOiDRGXPWSv8hH5c1R9sVOKovDPyCCNaqajF8xHxjnzG2we961Wu+loemdFxcfKj2CftmD0YSNW+OzF2wScsI2+cNXsP2Hjp6Xi8b1TIkhWOzQokVxwKDzHBx0rrzWC08yAvLQ1WKbcG+4z0fth4us+dv1AJ1BsGhko5V83tW4Xod6rWmbUfKJvV5oBlbv142DalsXyBmf8cKx8d73+x1V/6Z4CLgovp7GTJqgcxfvEUvx7sVQQMJ9+4t0quXXQ2jcm3Rws7GjSKnT9sV8dy5ttAgagj19ddt6aJ6RjMyKsozZ2yJYbT1+PF2tXn2rL2sgwdtCeK9r70msm3btWZoNBNj29AsDPHv2mVX13gNAvW1/kWL7KoXAoewsS0Qva91YNv8LQ/7gz5sQuo2Fpxl8JirOBLu0LGdhIQqCU+khF2Bqmjxsh2qUhsgE6atkHkLN8vEaSvln+8NkHmLNpf1Y14vYTRBHjxy7eRdPuhKnZjRB4xKClLHQB7nBI2m2s3bDuvqyamEIaCNWw7L7HkbdeUcVtZ0aupjxDb4W2+SWq+v5aFfFtsEsUFwzjZhGw4fuyBNlCAxjzfeosL8R09clFfeDpOhoxfqptrps9fI+CnLpI2SMKSHvlZs5yGP7UR13C1s6nXb7rwGoXn2peM2sePqODdpM0LL1ltw2IbK9uX4qUi/xwrH33vfnGX4OobOZ+JU4UtX7bK7H8r6qCsACYeGirRqZY+SRpPw00/b/bKoGvfuFfnFL+xKd9gwO2jahbQgbMgPzbuoPJcutUdUQ7xhYSLr1omujB0JQ4RYJgaBNWliN1/v3GlX0qhgvSWMpmN/68dyUOFivQsWiCxfbvfzYp9M64CM/S0P+wOhE1K3seAsg8dcJWAJhw/qlz9k6ADZt2+X7D+wW6ZNn6wutIfrN97sEsYJHJUvqqcxk5bIuo0HlSiPylr1c9SEJdI1ZGrZoJ/06ySM33E7kDPqWN9+pE74ECyWd0yJqmvIFP27A5qpt+44queBUKOVrDAIbLw60aP/GeJYtXavdFHvg6C8cS4ETOtF0/CRYxE+l4dtPqmq1ebtR19XeTpSRZXqVsKH1Xrefn+gvvXpwOFzclAFP/cdPKuXjePlHCtnO7E/6B8+febaSG281qP3NImIjNeDyhycbcJFjKdkHVCJVrYv2Hdfx8q5CPLeN8jUzWeC9w4fu0jiElIrbNt1OM3Rs2bZAkNTNP4NMaNShBB//3uR+fNFtm+3m3jxc+tWW7AQJSpQVJaoMJs2FenUSWTMGFt8GJTlKWEcQ4yCxkhsrPP990V69rRFjnkhYUgTEsb8u3f7Xj+Wcf68yOrVtojXrhVJTLS3ybQO7BuW7Wt5zv4QUrex4CyDx1wFEn711b/L8BFDZMLEsbJw0Xz1X+OiTJ06QcIH9VXXrf27NTKxctWnRUeO7FUX2cfk5MnDcvjwHtm/f4ds2rRGHnnkkZtawjj5Hjh0Ttp2Ga/7NvEQDfSN4ifuFUYTK273iU+4XEHCnpLxPMFDluhvxOCui1HxusrDyRrNoh8v2CQDhs7Vy9i267i0UxUW1osqGU3GuO8Ug5b8Sdi03r6D58inK3b6XR6k0aLD6PImcoDRxgs+3aorUizfGwhnoBK88x7sB/q3/9tsiGzefkTfZ4vXETQLY7tM21kuYY/bpXxJGOtAH+57LYbK9l3XBsc50+C9yvYFzdHe2+AtYe99w3rcfCZ4HYO38NMv3gOznD7Vf//bFtvRo3ZlvGKF3fSLahJBsy+EhR1FNTxzpkiXLrbkIDMsF8uCFD0ljPfgdQTvQ1Mw7k/GwChU0U5fLZaP4w3J+lo/loegCRnbjp9Yvq91oDI/ftz38pz9IaRuY8FZBo+5CiTctl0r7c9Dh/Zon8Krx44dkL17t8uMGZN7NjLRkCWMpsWJ01bogVje93ri3+g/xGCtiMg4+6R+2tIDhJzffZ3gMdgIg4YwgtiKTtTSwIAgNGtipHCSOqGjysJAJVRrcfGpuvLC9Fadxvhsjva1Xoh9i1q+v+Whn3PqrDX6YSGQjFOxo9l2ycpd+vYeb/AeDMKau2CzRMcm63+jD3isqhRHjFusBy5h2bopPD5Fi6m81cBjO20Jz7AlXHYLliPhi5H2hYonuGAZO2mZPobnzsfoeZEM9O+qeSvbFzSJe2+D92fkvW/YL1TS/o4hwHHaf/CM8Xhdh3OfsOfoaDTJorL98EORffvsqhiVJASGahVVK0QL6UFaWAaqZzRpo8KEUJ15MSLZs0/YsmzJQ7hYzp499qAo3BKF5ugRI+z+5IsX7b5l9Nmiz9rf+j2BSP2tA9V+VZZHSN3DgrMMHnMVSjgAdD+rOlkfOxFZfrJ2wAhYVDy49QVPyho1/lM5r6pj3DqjRz2r3x2hoKI+oU74k2as1ALBslCN4YTfTYmmc8gU3aSJgTzod8YtNPo2mpmr9Osduk9UFdw0fQsPBvxcMQzMgiR8rnf6Sj3i2N/yIC9U9LiwCFX7hKDJfM78jT4HF0FcaGruqQSK0eHoO4e8ILnxU5fr26/6hM/RFxYDh8/TzcdYlvd2QnrDxiyyq96yW33wGvpnsSzvflXMo9cxZZnan8l6+ZD48lW7tfwq2xcs23sbvD8j077hQsLvMVTHCHIeNHK++plSYbuvA6KbMMFu0nUGJeEYQ549ethSxdOu0G/6n//YI53R5IyKFYOcUIlGRNhSw+AsNEXjXl/cFoRbf/bvt6dhlDSqUlSj6KvF7UHvvWcvC0/UgmxRjaJpGPJv3druo8X2oVnZ1/q9Loy06P2tA5KuyvIIqXtYcJbBY65CCQcATvY4YeOeXW8H4d94HU2SaK50Ttx4j/O78x4IDPPYI3/tkw1EfFlVxBATmqUTk9L0wyeceXACx4Mg4lWVjNt4UM1hEBhGV3vfkwoqWy/WV9nysF7Mi37bSLVN6AdGk7IvmWD5aKbFYDMsExU+lqW3BetS70crgXUpUVeKEJ1pO/EaLjow3fs174sfB3s52J/L+vhhXVllo62Bv30xbYP3Z2TaNzfHEMvEOvHTL/g7QLMsqmBPAeGiAE3K6FuFaFHtok8Vt/SgiRgVJPpt8d6JE0XCw+3R0egHhuxQiaJ/FwOm0LeMJl8sH+tBNYpKF8tBFYplYBoOAkSM6bhdyBmwhfhavzdYhr91gKosj5C6hwVnGTzmKpRwHQUne+/mVk8qm15V3CwP51NbRN5TfOOIyxP8G/25viReE2CVWIevbQ1kX7zx3rfKjqH3cag2eidLrpc1hIu+YFSakB2qaYgbtzahGkYl7TRze2IfEO9XbZz1eG+/af3+8LcOUNXlEVI3sOAsg8dchRIm5GYC/cd4OhUGcqEixq1NM2faTdJoVsbtSmVN7YSQGsGCswwec5WAJVzxFqVJMnr0sAZxixIhdRZUkWjqxcArfPkCnkaF+41xz65l2U3ZhJCaxIKzDB5zlWu3KA2WCRPHyMJF89zdonT9wzp2yMDwftK1Wydp2uwDSpiQYIJmXcgWVTH6WjGYCs3SbOYl5EZgwVkGj7mK/bCOp6RDx7YSEtrD/cM6KGFCCCGEEiaEEEKChQVnGTzmKl/72tdqVsLNWzShhAkhhDQULDjL4DFXgYSffe6ZwCW8bftm2bd/NyVMCCGkIWLBWQaPuQok/JyHhCdNHl8m4ZBKJNyxbQ5m2LxlAyVMCCGkoWLBWQaPuYq3hCdPwTfYxUpoWA//Eu7QoU0mZti0eT0lTAghpKFiwVkGj7mKI+GOnWwJT5k68ToJ9+zZvUMjE94SDlcS7tb9moRvueWWCiurQihhQggh9QELzjJ4zFW+/vWvl0s4NKynewm3L5Pwho1r5cDBveUSbtmqKSVMCCGkoWDBWQaPuco999wjzzd+rlzCU6dN0hIOCe3uX8Jt27VOwQzr1q+Wg4f2Sfig/lrCrVo3o4QJIYQ0FCw4y+AxV4GEG3tIePqMKVrCPXp20RLu2qNzy0Ym2rRtGYsZVq9ZLoePHCiXcOs2zbWEP/vZz1ZYWRVCCRNCCKkPWHCWwWOu8o1vfENe/GvjcgnP/GiaknCcdO3WUUu4U9cOHzYy0apN80jMsGLlUjl67HC5hNu2ayk//vGP5dZbb62wsiqEEiaEEFIfsOAsg8dc5Zvf/Kb89a8vlEt41uwZuhLu3KU9JHy1Y8c2/2lkomXrZsch4WXLF8ux40fwkGkt4XbtW2kJ33bbbRVWVoVQwoQQQuoDFpxl8Jir3HvvvfLSS3/VEg7r3VPmzPlI4hNi9b8h4dbtWrzayESzFk22Q8KfLlkoJ04ek0GDB5RXwo8++qjcfvvtFVZWhVDChBBC6gMWnGXwWKXBrbz33Xef/P3vfyuX8Nx5s7WEUdBCwi1bNn2mkYlmzT9cCAkvWDBXzpw5KYOHDFQS7qwl/NhPH5M77rijwgqrEEqYEEJIfcCCswweqzSQ8Le+9S155dWXyyTcSz5RTo1PiNGDnCHhJk2aPNrIRIsWTfpCwh/PnSXnL5yRIUrC3Xt01vb++c9/Jp/73OcqrLAKoYQJIYTUByw4y+CxSgMJ33///fL6669Ip87tpHefEFn86QKJi4vWg7JatGxS+sYbb9zWyET79q1DMdOsWdPlYuQFGTI0XA+phoQff/xxueuuuyqssAqhhAkhhNQHLDjL4LFKAwk/8MAD8o9/vF4u4WXLPpVLlyK1hFu3aV7ayBddu3bUEp4+fbJY1kUZOmyQ9OzZVUm4tfzqV7+SL3zhCxVWWIVQwoQQQuoDFpxl8FilgYS/+93vylv//IeScHvp2zdUVq5aJhcvntcSbt+htW8Jh4R01xKeNHmcxMRaMmz4YOnZqyveJL/5zZNy9913V1hhFUIJE0IIqQ9YcJbBY5UGEv7+978v/3r3n/qWpL79wmTtulVy9twpLeGOndr6lnCfPr1CMNOYMSP0PU3DRwyRXiHdtIR//4ffyVe+8pUKK6xCKGFCCCH1AQvOMnis0kDCDz30kPznv/+SLl06SL/+vWXjpvVy/MQRLWElZr8S7omZMCoaT/cYO3akqOpYOnRsI3/5y5/kf/7nfyqssAqhhAkhhNQHLDjL4LFKAwn/6Ec/kvc/+K906dpB+g/oI9t3bNFfilQm4eJGvugV2qMzZurTN1RLGN+BiK9hgoSfefZp/c0QjQwrdRlKmBBCSH3AgrMMHqs0n/nMZ/TDrZo2+0A/pnLAwL6yd98u2bZ9s9McndfIF527dmiOe5jwgA40R8+YOVXCwnrqe51eeOF5/SiuRoaVugwlTAghpD5gwVkGj1UafMcCJNyyVTP9sKuB4f3k0OH9ul8YEm7XvlVyI1+0atX875Aw+oDxdA885QM3GkPCL738N/0UEJTajQwrdhFKmBBCSH3AgrMMHqs0eLLkI488oh9yhYdd4fHPx08claXLFmsJt2zV9FgjX7Rs2fKruJFYReLio+XTTxfqe5w6dmonr73+inznO9+hhAkhhNzsWHCWwWOVBg+1+tnPfqqfr9G9Rxc9xurc+TMyb/5sLeFmLT4c28gf6o0lmBH3NK1avVzf44QbjnHPE+59ooQJIYTc5FjKWaMMHqs0eJ7Gr371Sy1hPOwKD72yLl3U3ymsB2Z1bh/ayB+dOrfXEj5x8qhs2rReD6/u3KWD/Ps/78hDD/2gOhIee/XqVe8dJYQQQuoUylWWctZ4g8cqzZe//GX53e9+K+3bt5aevbrJ8BGD9XOjx40frSUc2qdXSCN/dO7SvhAzYjTXzl3bZMCAPnqY9YdN/k8efvjh6kh4emlpqfe+EkIIIXWKMglPN3is0uBW3qee+rN+vkavkO5avrjbaPCQAVrCuBW4kT/atW+dihkxkuvQ4QN6ZBeGWbds1VT+93//V2699dYKK3WZxcXFxd77SgghhNQpioqKLsFZBo9VGtxF1PiF5/StvaGhPfRdRpAwmqbh1q5dO7du5I/mLZqswowLF83XX2dof6dw2dcZPvaY3HnnnRVW6jKbCwsLvfeVEEIIqVMUFBRcgrMMHvMbtBR/+9vflldefcnjawzn6buNWrdprr9BqUWLD3/TyB+dOrXTj66EvZ0vcehR9iUOTzzxK/niF79YYcUuczIvL897XwkhhJA6RW5ubrRy1imDx/wGEv7e974n/3z7Tf3lDXjw1YqVSyUqKkJXwW3atihpVBl4fjRuURqN50cre48cOaz8+dF/+tMf5Ktf/WqFFbtMRlZWlve+EkIIIXWKzMzMGDjL4DG/cR5Z+X/v/VsPaO7br7ds3rJBjh+3nxvdqXO7yiUcEtK9E2YO691Tt2NPnTap/NGVjRs/V62nZl26dMl7XwkhhJA6RWRkZIK3v9zEeVoWCtkuXfHIyj6y/8AeLWJ4tUPHttmNKqNl25Z/UDOXqrJZD6tesHCe9MZTszq2ldde+7vcf//9AY+QXr16tfe+EkIIIXWKZcuWVbkKRvCgjp/+9KdlT8vqpMdUnT5zUhYt/kRLuHnLplsbuUEtQN8rHBFxTtasXSV9+obp9u13331bf09ioBIODw/33ldCCCGkTjFgwIAib3+5yZe+9CX5zW+fLHtQR1c9pio6JkqmTZ+kJdylSwf/9wg7KOEW4Q379u2WXbu365Ia9wrjWyFwm9Itt9xSYeVu8uabb0pJSYn3/hJCCCF1AjjqrbfequAvN8E3DeIbB517hMePHyOJiXEyZMhAd/cIO7Ru0+Is3rB02SI5eeq4Kqn769IaTdQotVFyNzJsQGXBqLHc3FzvfSaEEELqBHAUWny9/VVZ0EKM7tpXX31Zj6HCuKp582br25Pwb+XUq506tX+7kRs6dWrXGxJGCR0dY3ncptRKfv/73+nHcjUybERlwUZeuHDBe58JIYSQOkFERERAXa54Dx7tjEc8o/sW37uwZu1Kibh4rvz2pLCwP322kRtC+/Tqjjfhy4gxQnrS5PF6hDRK7BdfbCz33ntvhQ1wm3HjxnnvMyGEEFInGD9+fAVvuQmeJml/j3BT/ZRJ+HPv3l26S9e+Pal9YSO3tG7f+o94sgee8BEbFy2fLlkoffqG6G9Twk3I1fk2pb///e94JJj3fhNCCCFBBY9WhqO8veUmeJAVHmjVtp39FYZDhoTL+fNnZMHCuWXfI9xsa6Oq0LFT22K88eixQ7J9+xbpX/ZFDs2af1itwVnY0NTUVO99J4QQQoLK5cuX5e67767gLTe555575LnnnykflKUfeJUYq34O1xIOCeneq1FVaNuuZQzeuHzFEjl16rj+YuLuPexnSOO7EvGdiY0MG+Ims2fP9t53QgghJKjMmTOngq/cBC3DDz74oLz55uvSsVM76d2nl8z/5GM9KAstyBiU1blbxw8aVYXOXdv3gYTHTxgtcfExMnr0cG13WP7555/V1m9k2Bg3eemll9gkTQghpM4AJ7388ssVfOUmaBn+8Y//V7cU43GV/fvbj6s8dfq4roLx7I033njjtkZVoXv3Tk31kGpl8Xgl4U8+mavsHqK/GeLtavYL33777RIVFeV9DAghhJCgYFmW3HHHHRV85SboZv31k7/WLcVoMUbLMQSML2+AhNu1b43HYFYNDKVu37617hc+cfKobNu+WQYM6FP+3cKPPvqo3HbbbRU2xm1CQ0Pxxcnex4EQQgipVeCikJCQCp5yG9wx9Ne/vqDvB8adRGPHjtSPfR47bmTZdwh37NMoENq2bXEOC8B3C1+IOCtDh4aX3y9czW9U0hudlpbmfSwIIYSQWiU9PV3uu+++Cp5yE7QI//CHP5T//t+75V9fuGTpIomNu6RdiRblLt06vtMoEHqGdO+Bb4MIH9Sv7BuVJuungMD2//jHa/LAAw8E3CSN8J5hQgghwQYu8vaT23z+85+Xxx//hbRpa39pQ/ig/rJv/x7Zs3en881JeA51YLRr1/LnLVs1LUHzM77MYcPGteW3KkHOP/lJ9Zqk8RjLjIwM7+NBCCGE1AqZmZkBPabSCVp1X/xr47Jbk7rJyFHDJCbWkukzptiDstq2WNqoOiiLp2JBy5YvlnPnTsv/b++6o6Oqt/XoVa48nmWpiI2lLkUpIfQu0hQQkB56J4RkMr1lZpJJpRcxBEJCFQnSO9IhFAEJgdBiIBBq8Lp47y693mdH9jvfnhxWnMErIRMMsL+1vj8MY87knLP299t98pTxFB0TRWazntq925YqV67s96VKwuTkZMkNCwQCgeCuA9ozffp0P126XaIqukaNGhQ6avjNUPTKVcuo8Oqlm61J0dEOg6Y0cLsdHogwNimh8XjBx3O5StpmM9Ggwf2pWrVq9PDDD/t9udsl4vDXrl3zvTcCgUAgEJQpoD13mgsGsUeheYvmZOIpWXbeH5x95BB9vn83e8GKd/zLbc+L/iMYDIYgvSGC9wujSnrf57tp3LhEinJ6tyo1atSIy7M1t/iCt0ur1SorDgUCgUBw1wDNsdlsfnp0u0Q9FFp1+/TtxXVSsbHRlDorhVt6Z8xM9rYmWfRLNYGA0aTPxi/8eOE8XlD8UbHBHT16dit1gRZ6s7KysnzvkUAgEAgEZYLDhw/fcV8wWKlSJapXrx7p9OFcJ5U0JoG2bttEBQVn+GfYv+BwWbtrAgF3TJQesW2o/aVL52nDxrWUmBRHdoeZC7Tq1q1zxzuGVTZt2lR2DQsEAoGgzAGtgeb46tDtUt0d3LVrZ25DQp3U1KmTqOB8Pq1YuaQoFG34pyZQUL7zQ4rX+z1+MSaA5Ofn/W7HcJcPOvEXKo03DCYkJNBvv/3me78EAoFAIAgIoDGJiYl++lMSwumsUydYXVFYrDf4ErcpRWjDyOWKcmoCiSiXNQkX9MS6eJb0ipVL+cL4AuERoRQcHEwVK1b0+7IlIcZZ7tmzx/eeCQQCgUAQEOzdu5e1xld/bpdwNqtWrUqdOndkJxTO6KTJ4+nLvFMcji4qyPpp8ODBlTSBhE434kXlgj/jAjt2bqXcL0/whVVvGH1SgfCG0TtcWFjoe98EAoFAICgVrl69yhrjqzslIbzgYMULxrIGtCHFJ8TSsuWfckFWfHyM1zu2GVI1ZQGL1TQHF0hI9PBcTFxY9Ybx8zp16vD0EM0tvnhJ2KFDB/rhhx98759AIBAIBHcEaErHjh399KYkhJP5yiuvcAq2uBecm3uCdmVuVzcm/RKqC31NUxbQarVv4AKqN5ynuN+YJx0d4+Qv1K37B6XarlScOp1O1h0KBAKBoNSAluj1ej+dKSnRjluvfj0uSFZzwStWLPV6wQleL9hiNS7QlCWsVtM8XCg2zs1TQZCMTiqqlEZZdqNGDbmBWXOLP6CkHD9+vPQPCwQCgeCOAQ2ZMGGCn76UlBhKhfGWvXv3KKqIdtKUKRPp9JlcHumsesFwVjVlCeUCVdXc8MbP1tG5gjP04bTJ3DdssRio/4C+vFHikUce8fsjSkr80TNnzpSKaYFAIBCUGNCO1NTUUk11VIkRzc2bNyO9IaKoLzie23UvX7nILUreXLApTXM3oFxoKi5od1jowsUC2rZtM43lKVpWnqLVuk0rHmodiLD0o48+SrNnzxYhFggEAsFtA5oB7YCG+OpKSYlq6lq1atLQYYOLpmO5aXrKNEX/ztGq1cu9XrA58sfQ0NAqmruBsLCw/1K84X/hwosyFtAV5SSQlp5KcfExZLWZKGz0SC7Sevzxx/3+mDshvOqUlBQJTQsEAoHgTwGtwHIgLFjw1ZOSEs4kpkK+36kDws08I3rc+CTat2835Z/N48mRihbesNvNMZq7CYfDNhJjuZAHPnb8CB05kkUTJ4272bLUO6QnvfnmmwEJS4MIJ7jdbvr5559977dAIBAIBAxoRHR0dEBC0OCzzz5LjRs3Iqz0RTEWWpIWLpzPHUKps6Z7Z0SbIy8rl35Ic7dhtRkP4AvgVIABHmvWrOQ4uSMKYelIatOmNTc1ByIsrXLAgAG8/1EgEAgEguKANgwcONBPN+6U6AkOCqpFw4rC0Kh9mvrhJC7GwjIjVEnrdOHX3e6ozpq/Ak6ntZHasrRu/Sq6eLGAt0ggLF20S5EaNmxATz/9tN8fVxrWr1+fTp8+7Xv/BQKBQPCAAprQoEEDP724UyKKi2potN4iuquGoXfu2sZah/+GxjkcljWavxJWq34K4uGIlZ88eYxycrK5eZmrpZWTw9Bhg/gkUdoFD7585plnKCMjQ/LEAoFA8AADGrB48WLWBF+duFOqoylbt27FxcYoOsbSooyMhdwTPGfOrKKWJO13I0aMeFHzV8NsNRzHF0oaE0dXCi/S5i0b+cTgcjv4BNGrV3duW6pQoYLfH1sa4kYNHjyYvv76a9/nIhAIBIL7HLD9Q4YMCWjKE7+rSpUqnAfGIgZEdRHdTZnxEbfkqpOxdPrw606nPURTHmC3m+qrvcOfLJrP+eGMxQs5PxzltHFFWcf32/M0rUAVahXnCy+8wF7xr7/+6vuMBAKBQHCfAbYe3i9sv68elJYYNlW3bl0aGTqMrDYjeWLdvDXwyNEsyss7yT9DLtgeZVmpKU8wm426SN3o3/DlcFI4f/4spaXP5LFeKNRCgzNce8zdDFTVmi/btm1LWVlZdOPGDd9nJhAIBIJ7HLDthw8fpnbt2vnZ/0AQbbVBQUE0eMgATqdiKtaEiWNp+44tPJRjzNh4NQx9QavV/remvCEqyrIaIoy+qWPHj/JQ64+Sp7Irj7GWKPFu0aI5vfzyy2UmxPC0+/TpQydPnhQxFggEgvsAsOWw6X379i2TaCpYqVIlqlmzBvXtF1JUiOXgIVQYxoF2pDlzvXlgRH09HmcjTXlESEhIRUWAT+CL4gRxriBfObV8QVMUVx4TRuDGY/1Ts2ZN6aWXXiozIQYxJaVnz560f/9+mbYlEAgE9yBgu2HDe/XqFZDJV39ECHD16tV5LjTSp0ijIp26KONjrnNau24VC3CkLvy6xWIapinPsFr1NQ1GLU/TGj8hiS5fvkB79mbyIA9vxbSRRoeHUtOmTcvUI1aJJHuTJk0oPT2dvvnmG99nLBAIBIJyhm+//ZZtduPGjQNadHUrYv0uBLhXL1WAvZXQc+elcytSZuYOjuKiC8hiNczT3AuIj49urhZqJU+fyoVaO3Zs5dg6PGQIMTzi5i2acY44EKPFboe42b1796Zly5aJIAsEAkE5AmwybDNsdCD20t8On3zySapZsyaF9OnJAoz6JdQxpaenciT3i0P7uUUJaVan27ZRcy/B4bJ2V748D/JIS5/BMfWtWzexEMd4nDcrzFq1aslV02UZargVMZC7VatWlJiYqBwQdtB3333n+04IBAKBoIwAm7tz5062wbDFsMm+drqsCO8aQ6Rq165N/Qf0uekBQ4Bnpc2gs+dOU/aRQ1ycxbuDHeb9ev37f9fcazAaIw16Q8SvEOI5c9NYiLcrHjFC055YFy97wOzp9u3f5TnTgR7oURIi2Y9eZpzCMHd07ty5tH37djp27BhduXKFx6H99NNPUuwlEAgE/wGwkbCVsJmwnbChsKWwqbCtsLGBWnd7J0QKFK1N9evXoyFDB3IRltNl4xB0+uxZigCfoaM52ewociGWRX9Sqx32vOZehcGk80TqRl/3esQzOTS9e88u7ruKjYvmdYiYM929R1cOC6BHq6xzAEKhUCh88IiIK1KgqEkaFTaCzBYDud0OGjMmnuYvmEMF58/S4ewvbgqw4iEXREaOfEVzr8Ng0MZhugj+qJSUadxvdSjrAH04bTLFJ3g4DIBwAHqzMBcaldN3K08sFAqFwvufyDMj4vree+240Aq1SdExUTRuXCIt/nQRXbp8gfbv36uuJkQv8GmtVvuG5n6B0ai1GoxaDk1PmDiGh3mcPHWcUlNTOAzgdNnJZNbzLmLkiatVq8Zl45pb3EyhUCgUCm+HCD8///zzVKdOMK/YRaEVRlF6PC6uUVq/YQ1HaLdv38xDpZADVrTo+Mj7wQP2hd1uCTGZdT9BiJETPnnqGFegLfxkPo0dl8C7iHE6wY3o0aMrJ81x88QrFgqFQmFJCUcOm5AwJCp01DDFu9VxBTQGSE2dOpH27N1FV7+6QsuWf8riCzocll0jR458WnO/wuPxtDCaIv8NIUblGW5C4dVLtHHjOi7YQp7YEWXhmzUydCi1bNmCveInnnhCcsVCoVAo/FOi6OvFF1+k4ODa7NDp9RHs4GEKVlJSPFdAIxKLPuDpKdM4/KwI8A2n274yJCTkb5r7HTabLUjxiM+oJ49Pl3zCQoyEODZVJCbF8s1SveKQkJ5cyYaEesWKFf1uuFAoFAqFCD1jpWH16m9RmzataVTYcHboUACMRQzjJ4yhlauW0cVL5ynn2BGOyEKAkSo1m/WTNA8SwsLCnoxy2dfg9KFO1/oy7ySdv3CWQwO4Wbhp8IpRQo7PdO7ckWrXDuLCrbvZUyYUCoXC8ktESZ966imqVu0NHos8aHB/zv2iyhkOHeqO4PEeOPg5h5+RB8a/cwuSSfd/Lpe9k+ZBhXIDohXydC1UpW3evIG+Um4SJpXMmJnM8ztRwYZEOiqocbJ5r/27VKtWLQ43iBgLhULhg0lVfF9//XVq1LgR9enbi3T6CNYSdN3ExUVz8dWKlUsVB+8cnT6dS1M/nKSGn8liMR7WW/U1NQ86oqOjG5pMkWdxU3BzpkydwF4xSsY3fraOe4rRyoQTDQZ8oK8Yux4hxkFBtXgGNQZ9SM5YKBQK73+iWBdhZxRdNVbEF2MnMfgJHTaIniLMPGZsAs2eM4sHb8D7hZao7UcIPysCnEJED2kEXuj1+r9braZ0tY0JoQKEpdFTfPpMLi1ZmsGtTahqc7nsnC/GZ8JGj6BOnTpS3bp16NVXX+VhH1JNLRQKhfcfUROEaVdvVX+L3n67BfXv3+em+CLvi5HIiJ4i9LxnD4p+L9ORo1ncfaN6v4rDd8HjcbXUCG4N5eY0M5t1X6peMULRO3Zu5RD18eNH6ZNFCzhfzGLstnPMH2FqfB49YChFr1GjOueNUVFd1luahEKhUFh2RMqxcuXKvGMAzlaHju1p+IghpDdo2bMtLr7YX79t22aOop7Jz6P02anqBiToxC8WmzE5Li7uEY3gz2G3mxwmk+573DwQJ5n9B/bSV/+4Qjk52bznEbF+hKnd0Q6y2818GjIoDwah6i4fdKYmTRorglyDqlatyh4yHqaErIVCobD8EpFMTLeqUqUK53qDg4OpTdvW1K9fCAsqnC6r1cg5XxTvjhkTT8nJH9LWbZu45QjFvYs/Xcifg3bg/7HaTJk2ty1YIygZtFrt81a7aZ5yMzlEDU6cNJYOHNyniHEhD/tAwh0548SkeM4DYBkzvGNUVKO9CYLcvfsH9M47b/PwD/QcI4eMfALyyBK6FgqFwr+GcIoqVKjAKwUxmAkpRThODRs2pA4d3qP+A/qSNnI0px69Xq+Zna74eA+NG5/E/b6Zu3fQ5SsXeAoj0pZq3tc7+Up30eFy9NQISgdzlLmWzWFaoTyI34p7xrsyt3PM/1zBGT4FzUydzg8G3jHC2JiMgkIuCLK6ExLzqbt27ULvtGrJvcd44Ejuw1vGyQseM6as4MWQULZQKBSWnhie8dhjj3GK8Nlnn+XOltdee423KQUFBVHTpk14m16fPr0odNRwdqDgyVosBhZejDWG14uQ86TJ42nJkgyeK4GCq7zTp3jqotrKWjR28prDadVqBIGF3W2va7P9XoxxKkLzNYRYDVWvWbOScwNjxyWyIMd4XLyqCiFrPFQ8XOQTkNBHYdcA5bTVTfGW32vfjnPKWCKBFigINAZ+42WBSKMg4LnnnmMvGmXxjz/+OAs2Xi6INl40eNYS8hYKhfcj4ZjAxmEbEdJ7iCYidAxxhQMDgYVHi5ocDFdCOLl69epsSxFWbty4MbVu04o6de5IvUN60LBhg1g00VYERwkpRUQyUeGMMcaYoIge34kTx/GWo8zMHVRwPp9tPSKiKMCCHVfFV/GCr7lcNkNcXNzDGkHZwWrV17RaDfOUk88vqhjjQSRPn8reMUIT2F2ccyyby9KRnEf+GKcohDEgyijqwoPGA8c6K9VbxgkMvwshEMwaRdM3JnZ169aF3n+/A7V7ty21avUONW/RjPvS6inedHCd4JuirRIvHk55EHGEwOFto7AAgg4i7CIUCoXlhaptgp2CeMJmwXbBhqlCqhJrZ5Heq1u3LjVo2ICaKJ5sy5Zv85QqeLRdunSinj27Ub/+ITRs+CAKDw9luwr7CjsLRwiCi9HFXk/XxtFLiG5CYqziQCXxlr1PlyyiPXsz2cn6x9eFdCr3OIec4Xypth85X+V35TudjnBfrRCUMTBk2+12RCki+pVaAQdCUGemJtO27ZvpwoVzysO7ysn6g198TuvXr6F582fT5MkT2FPGKSs+PoY3auDkhbBHVJSVX4ziAg3ixcELpIq1SrxckToIdxiNDh/JA0VGjBzKpzwsjR6sCPnAQf3Y40ZxQd9+vTnsAoYUEdV+s2al0Pz5aUVML2Iaxca6b35OKBQKA022R317s31C28/Agf3YAUH6bqhiw2CfUF+DyGF4hFf4YPdUYVXFlQXWGFkksjrOz0JoMWwJVcyo2cG8h+gYp1dwE2LZOULHC7xaCCy6YVDvA0cKtT9Hcw7zzxMSPWxjVTtvNOmum636FXanuaOvNgj+AijC2UHxjucoD/zH4g8KL8uYsfGUsfhj+nz/Hq6egyhjVnVu7gneHwlvOWPxQkpVRBD5BuSVxygvBk5kEGi8LCj6Qhk8hBovEU5uTuWFgmDDo4Zo2+wKbSYWbxC9zF4aOAyOF/JWxIkQ18jcvZUOHtzjx4WfzOXPCIVCYSDpa4tUwl6x3bppw7w2DfQKqplFFbYPwgp7iOgiPFQILKKNyOHGxUdzShDOztixCSy20z6awo4Q0ogQ3CNHsqigIJ89XbSiwtvd+NladqRwLdWWg4rI3zCadbnR0VG2+3rT0b2OqCjbAEWQZyov0XfFPWQ1bwAxTUufQatWL+e2p3PnkE8uZHHG6evs2dMcysa/wZtet241LV26mBZ8PJfS0mbwSzRx4lh+oSDY8KgxnQUnOlRp44VjAU8APV4qYg6ivxmE6BbnZEX89+/PpOzsA35cvmKx3+eFQqEwkFRtE6jaq5v2S7FlsGmwbbBzIGwebB9s4ATFFqJLBQt45s5No4yMhSyymzZtoN27d1LW4YPs9Fy6dJ7FFrb2SuElOn7iKBfVouV08pTxpBZXFafJpLthMEUeiolxunQ63Wu+9l5QzqHX6+t4PC633hixTjlV/awm8X2Jh4/tTaiwRo8ZBnzv3ZfJLwlC2SgEwIujEqJ9+fIFPsHl5Z2iEydyeDILXjYUDOD/RREBTnpoHt+y9TPatHkDe90bNq6ldetXs7ir/GzTesrJOaT8nmw/7tu3k1avWSEUCoUB4Zq1K2ntulW/s0FI1WGlLGzR5i0b2W5t37GFdu7cRrv37ORIImb6Z2cf4g1EpxRRzc/P45QfulRUcfWyUBFZ77RD2EQ4MytXLWUPGGOJ4Tn7Okiqk6R44jcUe3zF4bBMcDhsIzFN0deuC+5hKCepF91up9nptsXrdOEHrDbjL2pT93+it+HbqJwY3TRp8jg+8c2ZO4tL45GvwIu9URFXiC2Kw/DCHso6yMIMIUeOA/Owz+TnUv7ZPC40UIlqv/PnIebHlc/gc79nfv4punipQCgUCgNGOBcFxezQ2XOnFfv0Jbf85H55gk6czOGIYPaRQ1xPg93vEGU4E3AiVqxYwmk8VC2jXxcRQnjIEFjkhn1tqC+LbKoiuPpreqM2LTbW7THbzB/42mzBA4DWrVs/otdr28fEuqNiYp1xOkP4R4rHnGexGn9QvOcb6lhM35cokIyOdnA4+ujRg35clDHf7/NCoVBYnomoIyZbKTb0utGk+1+tNmyTzWGKT0iI8diiLKOHa4dX9bXFAsEfIjx8yEsGc2QflyvKEqu8RArjYmKc8RabIV6rHTU5PGLUcoWZiljnKC9fvsEYUaiI9/+YzLpvzBb9dwq/t1gNPyjC/hO87+JUXtJf4xKir6/fsPLGlq3r/Th7zszf7Hbzr0KhUBgo2hT62iKrzfSz1Wb40WwxfG826/+teKn/UgT0nwZj5Nd6Q8QFxXvNVQT2YIQ2dHO4dtRsxWFJdDpt8YoXG5cAmxjrdlkd5vBwXXiLkJCQCr52VOCP/wenaSBBN8wTowAAAABJRU5ErkJggg==;" vertex="1" parent="1">
          <mxGeometry x="288" y="90" width="251" height="507.22" as="geometry" />
        </mxCell>
      </root>
    </mxGraphModel>
  </diagram>
</mxfile>
